<svg width="446.48mm" height="160.16mm" viewBox="0 0 446.48 160.16" xmlns="http://www.w3.org/2000/svg" version="1.1" preserveAspectRatio="xMidYMid meet"><g id="svgGroup" stroke-linecap="round" fill-rule="evenodd" font-size="9pt" stroke="#000" stroke-width="0.25mm" fill="none" style="stroke:#000;stroke-width:0.25mm;fill:none"><path d="M 24.847 160.113 L 24.847 157.66 L 42.813 157.66 L 42.813 160.113 L 42.859 160.16 L 61.051 160.16 L 61.098 160.113 L 61.098 157.66 L 79.063 157.66 L 79.063 160.113 L 79.109 160.16 L 97.301 160.16 L 97.348 160.113 L 97.348 157.66 L 115.313 157.66 L 115.313 160.113 L 115.359 160.16 L 140.113 160.16 L 140.16 160.113 L 140.16 149.109 L 140.113 149.063 L 137.66 149.063 L 137.66 131.098 L 140.113 131.098 L 140.16 131.051 L 140.16 120.047 L 140.113 120 L 0.047 120 L 0 120.047 L 0 131.051 L 0.047 131.098 L 2.5 131.098 L 2.5 149.063 L 0.047 149.063 L 0 149.109 L 0 160.113 L 0.047 160.16 L 24.801 160.16 L 24.847 160.113 Z" id="front_outsideCutPath" stroke="#FF0000" stroke-width="0.1" style="stroke:#FF0000;stroke-width:0.1" vector-effect="non-scaling-stroke"/><path d="M 75.933 143.113 L 75.282 143.113 L 75.282 140.333 A 1.84 1.84 0 0 0 75.261 140.044 Q 75.237 139.892 75.185 139.771 A 0.774 0.774 0 0 0 75.043 139.549 A 0.734 0.734 0 0 0 74.742 139.356 Q 74.553 139.29 74.294 139.29 Q 73.619 139.29 73.306 139.654 A 1.064 1.064 0 0 0 73.121 139.978 Q 73.009 140.275 72.994 140.717 A 4.17 4.17 0 0 0 72.992 140.858 L 72.992 143.113 L 72.341 143.113 L 72.341 138.815 L 72.87 138.815 L 72.976 139.403 L 73.008 139.403 Q 73.208 139.086 73.569 138.911 A 1.763 1.763 0 0 1 74.196 138.744 A 2.132 2.132 0 0 1 74.372 138.737 Q 74.887 138.737 75.233 138.901 A 1.17 1.17 0 0 1 75.541 139.111 A 1.128 1.128 0 0 1 75.816 139.543 Q 75.882 139.721 75.911 139.941 A 2.841 2.841 0 0 1 75.933 140.309 L 75.933 143.113 Z M 63.427 138.815 L 63.427 139.321 L 62.332 139.321 L 62.332 143.113 L 61.681 143.113 L 61.681 139.321 L 60.913 139.321 L 60.913 139.027 L 61.681 138.792 L 61.681 138.552 A 2.639 2.639 0 0 1 61.743 137.954 Q 61.973 136.968 63.066 136.968 Q 63.407 136.968 63.866 137.105 L 63.697 137.627 Q 63.43 137.54 63.218 137.515 A 1.4 1.4 0 0 0 63.054 137.505 A 0.878 0.878 0 0 0 62.842 137.529 A 0.564 0.564 0 0 0 62.509 137.75 Q 62.332 137.995 62.332 138.537 L 62.332 138.815 L 63.427 138.815 Z M 79.247 142.576 L 79.247 143.074 A 0.64 0.64 0 0 1 79.171 143.104 Q 79.077 143.136 78.936 143.159 A 2.822 2.822 0 0 1 78.752 143.183 Q 78.652 143.192 78.565 143.192 A 1.7 1.7 0 0 1 78.064 143.124 Q 77.513 142.955 77.369 142.356 A 2.046 2.046 0 0 1 77.318 141.878 L 77.318 139.321 L 76.702 139.321 L 76.702 139.007 L 77.318 138.737 L 77.592 137.819 L 77.969 137.819 L 77.969 138.815 L 79.216 138.815 L 79.216 139.321 L 77.969 139.321 L 77.969 141.851 A 1.311 1.311 0 0 0 77.988 142.081 Q 78.028 142.305 78.153 142.447 Q 78.338 142.655 78.659 142.655 A 2.138 2.138 0 0 0 78.972 142.632 A 1.97 1.97 0 0 0 78.992 142.629 A 3.522 3.522 0 0 0 79.086 142.613 Q 79.183 142.595 79.247 142.576 Z M 66.686 138.784 L 66.595 139.388 A 2.869 2.869 0 0 0 66.389 139.35 Q 66.286 139.335 66.195 139.331 A 1.527 1.527 0 0 0 66.125 139.329 A 1.128 1.128 0 0 0 65.291 139.689 A 1.543 1.543 0 0 0 65.233 139.752 A 1.487 1.487 0 0 0 64.874 140.587 A 1.976 1.976 0 0 0 64.862 140.807 L 64.862 143.113 L 64.211 143.113 L 64.211 138.815 L 64.748 138.815 L 64.823 139.611 L 64.854 139.611 A 2.199 2.199 0 0 1 65.1 139.26 A 1.679 1.679 0 0 1 65.431 138.964 A 1.298 1.298 0 0 1 66.172 138.737 Q 66.458 138.737 66.686 138.784 Z M 71.14 141.615 A 3.363 3.363 0 0 0 71.2 140.96 A 3.821 3.821 0 0 0 71.198 140.857 Q 71.189 140.499 71.111 140.195 A 2.027 2.027 0 0 0 70.668 139.337 Q 70.137 138.737 69.235 138.737 A 2.529 2.529 0 0 0 68.781 138.776 A 1.722 1.722 0 0 0 67.776 139.323 A 1.799 1.799 0 0 0 67.555 139.629 Q 67.385 139.926 67.31 140.307 A 3.38 3.38 0 0 0 67.25 140.96 A 3.257 3.257 0 0 0 67.291 141.488 A 2.408 2.408 0 0 0 67.494 142.145 A 2.14 2.14 0 0 0 67.541 142.238 A 1.763 1.763 0 0 0 68.184 142.921 A 1.813 1.813 0 0 0 68.6 143.106 A 2.091 2.091 0 0 0 69.207 143.192 A 2.528 2.528 0 0 0 69.649 143.155 A 1.736 1.736 0 0 0 70.67 142.602 Q 71.022 142.21 71.14 141.615 Z M 67.925 140.96 A 3.297 3.297 0 0 0 67.956 141.431 Q 68.027 141.917 68.254 142.215 A 1.067 1.067 0 0 0 68.949 142.625 A 1.617 1.617 0 0 0 69.223 142.647 Q 69.862 142.647 70.194 142.217 Q 70.525 141.788 70.525 140.96 A 3.248 3.248 0 0 0 70.494 140.497 Q 70.424 140.011 70.194 139.715 Q 69.862 139.29 69.215 139.29 A 1.549 1.549 0 0 0 68.829 139.335 A 1.037 1.037 0 0 0 68.25 139.709 A 1.346 1.346 0 0 0 68.041 140.114 Q 67.979 140.299 67.95 140.527 A 3.44 3.44 0 0 0 67.925 140.96 Z" id="front_labelLayer" stroke="#000000" fill="#000000" style="stroke:#000000;fill:#000000" vector-effect="non-scaling-stroke"/><path d="M 159.883 160.113 L 159.883 157.66 L 177.848 157.66 L 177.848 160.113 L 177.894 160.16 L 196.086 160.16 L 196.133 160.113 L 196.133 157.66 L 214.098 157.66 L 214.098 160.113 L 214.144 160.16 L 232.336 160.16 L 232.383 160.113 L 232.383 157.66 L 250.348 157.66 L 250.348 160.113 L 250.394 160.16 L 268.586 160.16 L 268.633 160.113 L 268.633 157.66 L 286.598 157.66 L 286.598 160.113 L 286.644 160.16 L 300.773 160.16 L 300.82 160.113 L 300.82 149.223 L 303.273 149.223 L 303.32 149.176 L 303.32 130.984 L 303.273 130.938 L 300.82 130.938 L 300.82 120.047 L 300.773 120 L 145.707 120 L 145.66 120.047 L 145.66 130.938 L 143.207 130.938 L 143.16 130.984 L 143.16 149.176 L 143.207 149.223 L 145.66 149.223 L 145.66 160.113 L 145.707 160.16 L 159.836 160.16 L 159.883 160.113 Z" id="left_outsideCutPath" stroke="#FF0000" stroke-width="0.1" style="stroke:#FF0000;stroke-width:0.1" vector-effect="non-scaling-stroke"/><path d="M 226.097 138.815 L 226.097 139.321 L 225.003 139.321 L 225.003 143.113 L 224.352 143.113 L 224.352 139.321 L 223.583 139.321 L 223.583 139.027 L 224.352 138.792 L 224.352 138.552 A 2.639 2.639 0 0 1 224.413 137.954 Q 224.644 136.968 225.736 136.968 Q 226.077 136.968 226.536 137.105 L 226.368 137.627 Q 226.1 137.54 225.888 137.515 A 1.4 1.4 0 0 0 225.725 137.505 A 0.878 0.878 0 0 0 225.513 137.529 A 0.564 0.564 0 0 0 225.179 137.75 Q 225.003 137.995 225.003 138.537 L 225.003 138.815 L 226.097 138.815 Z M 223.05 140.67 L 223.05 141.082 L 220.089 141.082 Q 220.108 141.839 220.471 142.231 A 1.183 1.183 0 0 0 221.092 142.581 A 1.792 1.792 0 0 0 221.493 142.623 A 3.438 3.438 0 0 0 222.781 142.368 A 3.94 3.94 0 0 0 222.865 142.333 L 222.865 142.913 Q 222.52 143.063 222.212 143.127 Q 221.973 143.178 221.657 143.189 A 5.304 5.304 0 0 1 221.469 143.192 A 2.53 2.53 0 0 1 220.836 143.117 A 1.791 1.791 0 0 1 219.965 142.611 A 1.916 1.916 0 0 1 219.507 141.77 Q 219.427 141.471 219.416 141.117 A 3.719 3.719 0 0 1 219.414 141 A 3.419 3.419 0 0 1 219.477 140.322 Q 219.594 139.745 219.926 139.348 A 1.668 1.668 0 0 1 221.142 138.742 A 2.301 2.301 0 0 1 221.301 138.737 A 1.983 1.983 0 0 1 221.859 138.811 A 1.509 1.509 0 0 1 222.579 139.268 Q 223.05 139.8 223.05 140.67 Z M 228.858 142.576 L 228.858 143.074 A 0.64 0.64 0 0 1 228.782 143.104 Q 228.688 143.136 228.546 143.159 A 2.822 2.822 0 0 1 228.362 143.183 Q 228.263 143.192 228.176 143.192 A 1.7 1.7 0 0 1 227.675 143.124 Q 227.124 142.955 226.98 142.356 A 2.046 2.046 0 0 1 226.929 141.878 L 226.929 139.321 L 226.313 139.321 L 226.313 139.007 L 226.929 138.737 L 227.203 137.819 L 227.58 137.819 L 227.58 138.815 L 228.827 138.815 L 228.827 139.321 L 227.58 139.321 L 227.58 141.851 A 1.311 1.311 0 0 0 227.598 142.081 Q 227.639 142.305 227.764 142.447 Q 227.948 142.655 228.27 142.655 A 2.138 2.138 0 0 0 228.583 142.632 A 1.97 1.97 0 0 0 228.603 142.629 A 3.522 3.522 0 0 0 228.697 142.613 Q 228.793 142.595 228.858 142.576 Z M 218.273 137.011 L 218.273 143.113 L 217.622 143.113 L 217.622 137.011 L 218.273 137.011 Z M 220.104 140.553 L 222.352 140.553 A 2.218 2.218 0 0 0 222.325 140.196 Q 222.294 140.005 222.226 139.851 A 1.007 1.007 0 0 0 222.077 139.609 A 0.892 0.892 0 0 0 221.54 139.304 A 1.338 1.338 0 0 0 221.293 139.282 A 1.283 1.283 0 0 0 220.922 139.333 A 0.991 0.991 0 0 0 220.467 139.619 Q 220.159 139.956 220.104 140.553 Z" id="left_labelLayer" stroke="#000000" fill="#000000" style="stroke:#000000;fill:#000000" vector-effect="non-scaling-stroke"/><path d="M 24.847 116.953 L 24.847 114.5 L 42.813 114.5 L 42.813 116.953 L 42.859 117 L 61.051 117 L 61.098 116.953 L 61.098 114.5 L 79.063 114.5 L 79.063 116.953 L 79.109 117 L 97.301 117 L 97.348 116.953 L 97.348 114.5 L 115.313 114.5 L 115.313 116.953 L 115.359 117 L 140.113 117 L 140.16 116.953 L 140.16 105.949 L 140.113 105.903 L 137.66 105.903 L 137.66 87.938 L 140.113 87.938 L 140.16 87.891 L 140.16 76.887 L 140.113 76.84 L 0.047 76.84 L 0 76.887 L 0 87.891 L 0.047 87.938 L 2.5 87.938 L 2.5 105.903 L 0.047 105.903 L 0 105.949 L 0 116.953 L 0.047 117 L 24.801 117 L 24.847 116.953 Z" id="back_outsideCutPath" stroke="#FF0000" stroke-width="0.1" style="stroke:#FF0000;stroke-width:0.1" vector-effect="non-scaling-stroke"/><path d="M 75.578 97.732 L 75.61 97.732 Q 75.778 97.493 76.124 97.104 L 77.512 95.634 L 78.285 95.634 L 76.543 97.465 L 78.406 99.932 L 77.618 99.932 L 76.1 97.9 L 75.61 98.324 L 75.61 99.932 L 74.967 99.932 L 74.967 93.83 L 75.61 93.83 L 75.61 97.065 A 4.338 4.338 0 0 1 75.608 97.188 Q 75.602 97.394 75.578 97.732 Z M 62.405 99.379 L 62.358 99.379 L 62.221 99.932 L 61.754 99.932 L 61.754 93.83 L 62.405 93.83 L 62.405 95.312 A 13.573 13.573 0 0 1 62.398 95.771 Q 62.39 96.002 62.374 96.206 L 62.405 96.206 A 1.48 1.48 0 0 1 63.485 95.579 A 2.224 2.224 0 0 1 63.754 95.563 A 1.99 1.99 0 0 1 64.314 95.638 A 1.49 1.49 0 0 1 65.07 96.141 Q 65.445 96.605 65.52 97.376 A 4.179 4.179 0 0 1 65.538 97.779 A 3.817 3.817 0 0 1 65.488 98.421 Q 65.429 98.763 65.303 99.038 A 1.83 1.83 0 0 1 65.066 99.424 A 1.541 1.541 0 0 1 63.97 100 A 2.208 2.208 0 0 1 63.754 100.01 A 1.975 1.975 0 0 1 63.258 99.95 A 1.718 1.718 0 0 1 62.987 99.855 Q 62.64 99.701 62.405 99.379 Z M 69.802 99.932 L 69.319 99.932 L 69.19 99.32 L 69.158 99.32 A 2.699 2.699 0 0 1 68.94 99.565 Q 68.822 99.68 68.705 99.761 A 1.199 1.199 0 0 1 68.517 99.867 Q 68.254 99.985 67.882 100.006 A 2.93 2.93 0 0 1 67.719 100.01 A 1.998 1.998 0 0 1 67.312 99.972 Q 66.955 99.897 66.717 99.681 A 1.07 1.07 0 0 1 66.394 99.117 A 1.638 1.638 0 0 1 66.354 98.744 A 1.126 1.126 0 0 1 66.995 97.68 Q 67.472 97.427 68.304 97.384 A 6.36 6.36 0 0 1 68.437 97.379 L 69.166 97.355 L 69.166 97.089 Q 69.166 96.779 69.085 96.569 A 0.727 0.727 0 0 0 68.949 96.341 A 0.661 0.661 0 0 0 68.678 96.165 Q 68.5 96.1 68.252 96.1 A 2.12 2.12 0 0 0 67.765 96.161 Q 67.424 96.242 67.037 96.43 L 66.837 95.932 A 3.002 3.002 0 0 1 67.416 95.693 A 3.417 3.417 0 0 1 67.533 95.661 A 3.015 3.015 0 0 1 68.292 95.563 A 2.75 2.75 0 0 1 68.71 95.593 Q 69.17 95.664 69.431 95.904 Q 69.722 96.172 69.784 96.693 A 2.562 2.562 0 0 1 69.802 96.998 L 69.802 99.932 Z M 74.01 95.779 L 73.81 96.332 Q 73.594 96.245 73.339 96.189 A 2.689 2.689 0 0 0 73.134 96.151 Q 73.001 96.132 72.888 96.132 A 1.444 1.444 0 0 0 72.302 96.242 Q 71.578 96.561 71.578 97.802 Q 71.578 98.322 71.716 98.683 A 1.35 1.35 0 0 0 71.898 99.018 A 1.034 1.034 0 0 0 72.568 99.418 A 1.575 1.575 0 0 0 72.845 99.442 A 2.725 2.725 0 0 0 73.597 99.332 A 3.365 3.365 0 0 0 73.947 99.21 L 73.947 99.787 Q 73.576 99.979 73.041 100.006 A 3.57 3.57 0 0 1 72.861 100.01 A 2.433 2.433 0 0 1 72.269 99.943 A 1.65 1.65 0 0 1 71.415 99.436 A 1.883 1.883 0 0 1 71.024 98.717 Q 70.937 98.431 70.913 98.088 A 3.937 3.937 0 0 1 70.904 97.81 A 3.592 3.592 0 0 1 70.959 97.157 Q 71.027 96.793 71.176 96.505 A 1.795 1.795 0 0 1 71.423 96.143 A 1.686 1.686 0 0 1 72.346 95.613 A 2.556 2.556 0 0 1 72.904 95.555 A 2.938 2.938 0 0 1 73.523 95.622 A 3.25 3.25 0 0 1 73.704 95.666 Q 73.888 95.717 74.01 95.779 Z M 63.66 96.108 A 1.829 1.829 0 0 0 63.306 96.14 Q 63.104 96.18 62.95 96.27 A 0.866 0.866 0 0 0 62.699 96.491 Q 62.441 96.826 62.409 97.567 A 5.016 5.016 0 0 0 62.405 97.779 Q 62.405 98.548 62.623 98.946 A 0.982 0.982 0 0 0 62.707 99.075 Q 62.978 99.425 63.541 99.461 A 2.093 2.093 0 0 0 63.676 99.465 A 1.298 1.298 0 0 0 64.044 99.416 A 0.936 0.936 0 0 0 64.57 99.028 A 1.494 1.494 0 0 0 64.755 98.628 Q 64.864 98.27 64.864 97.771 Q 64.864 96.932 64.57 96.52 A 0.949 0.949 0 0 0 63.965 96.137 A 1.506 1.506 0 0 0 63.66 96.108 Z M 69.151 98.206 L 69.151 97.818 L 68.499 97.846 Q 67.851 97.868 67.505 98.021 A 1 1 0 0 0 67.38 98.087 A 0.695 0.695 0 0 0 67.049 98.591 A 1.028 1.028 0 0 0 67.037 98.751 Q 67.037 99.062 67.202 99.242 A 0.58 0.58 0 0 0 67.25 99.289 Q 67.464 99.473 67.848 99.473 A 1.792 1.792 0 0 0 68.236 99.434 Q 68.505 99.374 68.704 99.224 A 1.087 1.087 0 0 0 68.803 99.14 A 1.09 1.09 0 0 0 69.108 98.595 Q 69.15 98.42 69.151 98.213 A 2.082 2.082 0 0 0 69.151 98.206 Z" id="back_labelLayer" stroke="#000000" fill="#000000" style="stroke:#000000;fill:#000000" vector-effect="non-scaling-stroke"/><path d="M 159.883 116.953 L 159.883 114.5 L 177.848 114.5 L 177.848 116.953 L 177.894 117 L 196.086 117 L 196.133 116.953 L 196.133 114.5 L 214.098 114.5 L 214.098 116.953 L 214.144 117 L 232.336 117 L 232.383 116.953 L 232.383 114.5 L 250.348 114.5 L 250.348 116.953 L 250.394 117 L 268.586 117 L 268.633 116.953 L 268.633 114.5 L 286.598 114.5 L 286.598 116.953 L 286.644 117 L 300.773 117 L 300.82 116.953 L 300.82 106.063 L 303.273 106.063 L 303.32 106.016 L 303.32 87.824 L 303.273 87.778 L 300.82 87.778 L 300.82 76.887 L 300.773 76.84 L 145.707 76.84 L 145.66 76.887 L 145.66 87.778 L 143.207 87.778 L 143.16 87.824 L 143.16 106.016 L 143.207 106.063 L 145.66 106.063 L 145.66 116.953 L 145.707 117 L 159.836 117 L 159.883 116.953 Z" id="right_outsideCutPath" stroke="#FF0000" stroke-width="0.1" style="stroke:#FF0000;stroke-width:0.1" vector-effect="non-scaling-stroke"/><path d="M 228.235 99.006 L 227.583 99.006 L 227.583 96.226 A 1.84 1.84 0 0 0 227.562 95.937 Q 227.538 95.785 227.486 95.664 A 0.774 0.774 0 0 0 227.344 95.441 A 0.734 0.734 0 0 0 227.043 95.249 Q 226.854 95.183 226.595 95.183 A 1.97 1.97 0 0 0 226.227 95.215 Q 225.825 95.291 225.605 95.551 A 1.083 1.083 0 0 0 225.421 95.877 Q 225.293 96.222 225.293 96.759 L 225.293 99.006 L 224.642 99.006 L 224.642 92.904 L 225.293 92.904 L 225.293 94.751 A 5.857 5.857 0 0 1 225.289 94.976 Q 225.282 95.163 225.262 95.304 L 225.301 95.304 A 1.301 1.301 0 0 1 225.757 94.866 A 1.589 1.589 0 0 1 225.848 94.816 A 1.671 1.671 0 0 1 226.397 94.653 A 2.113 2.113 0 0 1 226.658 94.637 A 2.641 2.641 0 0 1 227.102 94.672 Q 227.566 94.752 227.84 95.012 A 1.134 1.134 0 0 1 228.12 95.451 Q 228.187 95.634 228.215 95.86 A 2.815 2.815 0 0 1 228.235 96.202 L 228.235 99.006 Z M 222.273 94.708 L 223.76 94.708 L 223.76 95.12 L 222.964 95.214 A 1.058 1.058 0 0 1 223.055 95.35 Q 223.095 95.421 223.132 95.505 A 2.007 2.007 0 0 1 223.16 95.573 A 1.252 1.252 0 0 1 223.234 95.872 A 1.608 1.608 0 0 1 223.246 96.073 A 1.492 1.492 0 0 1 223.177 96.536 A 1.207 1.207 0 0 1 222.814 97.081 Q 222.426 97.42 221.776 97.454 A 2.828 2.828 0 0 1 221.63 97.457 A 2.092 2.092 0 0 1 221.388 97.444 A 1.767 1.767 0 0 1 221.269 97.426 Q 220.854 97.646 220.854 97.979 Q 220.854 98.155 220.999 98.24 A 0.457 0.457 0 0 0 221.1 98.281 Q 221.206 98.312 221.367 98.321 A 2.477 2.477 0 0 0 221.497 98.324 L 222.258 98.324 A 2.665 2.665 0 0 1 222.662 98.353 Q 223.073 98.416 223.33 98.618 A 0.952 0.952 0 0 1 223.684 99.225 A 1.43 1.43 0 0 1 223.705 99.473 Q 223.705 100.187 223.132 100.561 Q 222.56 100.936 221.461 100.936 A 3.648 3.648 0 0 1 220.972 100.905 Q 220.724 100.872 220.521 100.801 A 1.513 1.513 0 0 1 220.161 100.622 A 1.038 1.038 0 0 1 219.827 100.259 Q 219.72 100.061 219.706 99.809 A 1.375 1.375 0 0 1 219.704 99.736 A 0.995 0.995 0 0 1 219.955 99.057 Q 220.206 98.771 220.661 98.669 A 0.676 0.676 0 0 1 220.399 98.457 A 0.802 0.802 0 0 1 220.385 98.438 A 0.604 0.604 0 0 1 220.274 98.112 A 0.748 0.748 0 0 1 220.273 98.073 A 0.744 0.744 0 0 1 220.311 97.833 A 0.66 0.66 0 0 1 220.399 97.661 A 0.932 0.932 0 0 1 220.522 97.522 Q 220.632 97.419 220.795 97.32 A 1.141 1.141 0 0 1 220.299 96.923 A 1.415 1.415 0 0 1 220.252 96.853 A 1.346 1.346 0 0 1 220.045 96.205 A 1.643 1.643 0 0 1 220.042 96.1 A 1.881 1.881 0 0 1 220.091 95.656 A 1.238 1.238 0 0 1 220.465 95.012 Q 220.831 94.682 221.46 94.637 A 2.875 2.875 0 0 1 221.665 94.63 A 2.495 2.495 0 0 1 221.995 94.65 A 1.901 1.901 0 0 1 222.273 94.708 Z M 231.548 98.469 L 231.548 98.967 A 0.64 0.64 0 0 1 231.473 98.997 Q 231.378 99.029 231.237 99.052 A 2.822 2.822 0 0 1 231.053 99.075 Q 230.954 99.085 230.866 99.085 A 1.7 1.7 0 0 1 230.365 99.017 Q 229.814 98.847 229.67 98.249 A 2.046 2.046 0 0 1 229.619 97.771 L 229.619 95.214 L 229.003 95.214 L 229.003 94.9 L 229.619 94.63 L 229.893 93.712 L 230.27 93.712 L 230.27 94.708 L 231.517 94.708 L 231.517 95.214 L 230.27 95.214 L 230.27 97.744 A 1.311 1.311 0 0 0 230.289 97.974 Q 230.329 98.198 230.454 98.34 Q 230.639 98.548 230.96 98.548 A 2.138 2.138 0 0 0 231.273 98.525 A 1.97 1.97 0 0 0 231.294 98.522 A 3.522 3.522 0 0 0 231.388 98.506 Q 231.484 98.488 231.548 98.469 Z M 217.406 94.677 L 217.316 95.281 A 2.869 2.869 0 0 0 217.11 95.243 Q 217.007 95.228 216.915 95.223 A 1.527 1.527 0 0 0 216.845 95.222 A 1.128 1.128 0 0 0 216.012 95.582 A 1.543 1.543 0 0 0 215.953 95.645 A 1.487 1.487 0 0 0 215.595 96.48 A 1.976 1.976 0 0 0 215.583 96.7 L 215.583 99.006 L 214.932 99.006 L 214.932 94.708 L 215.469 94.708 L 215.543 95.504 L 215.575 95.504 A 2.199 2.199 0 0 1 215.821 95.153 A 1.679 1.679 0 0 1 216.151 94.857 A 1.298 1.298 0 0 1 216.892 94.63 Q 217.179 94.63 217.406 94.677 Z M 218.861 94.708 L 218.861 99.006 L 218.21 99.006 L 218.21 94.708 L 218.861 94.708 Z M 222.05 98.908 L 221.269 98.908 A 1.497 1.497 0 0 0 221 98.931 Q 220.745 98.978 220.579 99.12 A 0.686 0.686 0 0 0 220.354 99.509 A 1.042 1.042 0 0 0 220.332 99.728 A 0.654 0.654 0 0 0 220.375 99.971 Q 220.445 100.146 220.626 100.257 A 1.043 1.043 0 0 0 220.883 100.367 Q 221.124 100.437 221.464 100.438 A 3.256 3.256 0 0 0 221.469 100.438 A 4.377 4.377 0 0 0 221.897 100.419 Q 222.325 100.376 222.594 100.242 A 1.081 1.081 0 0 0 222.683 100.193 A 0.95 0.95 0 0 0 222.903 100.008 A 0.712 0.712 0 0 0 223.077 99.528 A 0.881 0.881 0 0 0 223.061 99.353 Q 223.041 99.252 222.994 99.178 A 0.41 0.41 0 0 0 222.862 99.044 A 0.618 0.618 0 0 0 222.715 98.98 Q 222.483 98.908 222.05 98.908 Z M 220.83 96.64 A 0.697 0.697 0 0 0 220.94 96.767 Q 221.195 96.998 221.65 96.998 Q 222.603 96.998 222.603 96.073 Q 222.603 95.304 221.995 95.145 A 1.416 1.416 0 0 0 221.638 95.104 A 1.366 1.366 0 0 0 221.36 95.131 Q 221.189 95.166 221.059 95.249 A 0.749 0.749 0 0 0 220.932 95.351 A 0.781 0.781 0 0 0 220.743 95.67 Q 220.703 95.793 220.691 95.943 A 1.713 1.713 0 0 0 220.685 96.085 Q 220.685 96.425 220.83 96.64 Z M 218.164 93.424 A 0.721 0.721 0 0 0 218.155 93.543 Q 218.155 93.763 218.265 93.871 A 0.365 0.365 0 0 0 218.397 93.955 A 0.414 0.414 0 0 0 218.54 93.979 A 0.38 0.38 0 0 0 218.81 93.871 A 0.318 0.318 0 0 0 218.872 93.789 Q 218.901 93.735 218.913 93.667 A 0.674 0.674 0 0 0 218.924 93.543 Q 218.924 93.436 218.897 93.356 A 0.329 0.329 0 0 0 218.81 93.218 A 0.384 0.384 0 0 0 218.54 93.112 Q 218.375 93.112 218.265 93.216 A 0.305 0.305 0 0 0 218.198 93.311 Q 218.175 93.361 218.164 93.424 Z" id="right_labelLayer" stroke="#000000" fill="#000000" style="stroke:#000000;fill:#000000" vector-effect="non-scaling-stroke"/><path d="M 349.292 160.113 L 349.292 157.66 L 367.258 157.66 L 367.258 160.113 L 367.304 160.16 L 385.496 160.16 L 385.542 160.113 L 385.542 157.66 L 403.508 157.66 L 403.508 160.113 L 403.554 160.16 L 421.746 160.16 L 421.792 160.113 L 421.792 157.66 L 443.933 157.66 L 443.98 157.613 L 443.98 143.598 L 446.433 143.598 L 446.48 143.551 L 446.48 125.359 L 446.433 125.313 L 443.98 125.313 L 443.98 107.348 L 446.433 107.348 L 446.48 107.301 L 446.48 89.109 L 446.433 89.063 L 443.98 89.063 L 443.98 71.098 L 446.433 71.098 L 446.48 71.051 L 446.48 52.859 L 446.433 52.813 L 443.98 52.813 L 443.98 34.848 L 446.433 34.848 L 446.48 34.801 L 446.48 16.609 L 446.433 16.563 L 443.98 16.563 L 443.98 2.547 L 443.933 2.5 L 421.792 2.5 L 421.792 0.047 L 421.746 0 L 403.554 0 L 403.508 0.047 L 403.508 2.5 L 385.542 2.5 L 385.542 0.047 L 385.496 0 L 367.304 0 L 367.258 0.047 L 367.258 2.5 L 349.292 2.5 L 349.292 0.047 L 349.246 0 L 331.054 0 L 331.008 0.047 L 331.008 2.5 L 308.867 2.5 L 308.82 2.547 L 308.82 16.563 L 306.367 16.563 L 306.32 16.609 L 306.32 34.801 L 306.367 34.848 L 308.82 34.848 L 308.82 52.813 L 306.367 52.813 L 306.32 52.859 L 306.32 71.051 L 306.367 71.098 L 308.82 71.098 L 308.82 89.063 L 306.367 89.063 L 306.32 89.109 L 306.32 107.301 L 306.367 107.348 L 308.82 107.348 L 308.82 125.313 L 306.367 125.313 L 306.32 125.359 L 306.32 143.551 L 306.367 143.598 L 308.82 143.598 L 308.82 157.613 L 308.867 157.66 L 331.008 157.66 L 331.008 160.113 L 331.054 160.16 L 349.246 160.16 L 349.292 160.113 Z" id="bottom_outsideCutPath" stroke="#FF0000" stroke-width="0.1" style="stroke:#FF0000;stroke-width:0.1" vector-effect="non-scaling-stroke"/><path d="M 422.513 90.592 L 420.241 90.592 L 420.241 80.832 A 6.703 6.703 0 0 0 420.173 79.847 Q 420.013 78.773 419.474 78.143 Q 418.804 77.359 417.484 77.26 A 5.274 5.274 0 0 0 417.093 77.246 Q 414.971 77.246 413.958 78.465 Q 412.946 79.683 412.946 82.215 L 412.946 90.592 L 410.673 90.592 L 410.673 80.832 A 6.703 6.703 0 0 0 410.606 79.847 Q 410.446 78.773 409.907 78.143 Q 409.244 77.367 407.934 77.263 A 5.321 5.321 0 0 0 407.512 77.246 A 5.643 5.643 0 0 0 406.345 77.359 Q 405.624 77.511 405.088 77.87 A 2.978 2.978 0 0 0 404.384 78.526 Q 403.485 79.686 403.4 82.189 A 15.819 15.819 0 0 0 403.392 82.721 L 403.392 90.592 L 401.12 90.592 L 401.12 75.59 L 402.967 75.59 L 403.337 77.643 L 403.446 77.643 A 4.466 4.466 0 0 1 405.26 75.932 A 5.394 5.394 0 0 1 407.391 75.335 A 6.515 6.515 0 0 1 407.881 75.316 A 7.439 7.439 0 0 1 409.556 75.491 Q 411.682 75.983 412.48 77.862 L 412.59 77.862 Q 413.26 76.685 414.533 76.001 A 5.751 5.751 0 0 1 416.643 75.359 A 7.171 7.171 0 0 1 417.435 75.316 A 7.898 7.898 0 0 1 418.868 75.438 Q 419.664 75.585 420.286 75.91 A 3.744 3.744 0 0 1 421.247 76.624 A 3.913 3.913 0 0 1 422.087 77.998 Q 422.513 79.138 422.513 80.805 L 422.513 90.592 Z M 332.559 88.662 L 332.395 88.662 L 331.916 90.592 L 330.287 90.592 L 330.287 69.294 L 332.559 69.294 L 332.559 74.468 A 47.372 47.372 0 0 1 332.533 76.068 Q 332.508 76.825 332.456 77.499 A 28.385 28.385 0 0 1 332.449 77.589 L 332.559 77.589 A 5.166 5.166 0 0 1 336.33 75.399 A 7.76 7.76 0 0 1 337.267 75.344 A 6.944 6.944 0 0 1 339.222 75.605 A 5.198 5.198 0 0 1 341.86 77.363 Q 343.169 78.979 343.43 81.671 A 14.584 14.584 0 0 1 343.495 83.077 A 13.322 13.322 0 0 1 343.319 85.319 Q 343.114 86.513 342.674 87.471 A 6.386 6.386 0 0 1 341.846 88.819 A 5.379 5.379 0 0 1 338.023 90.829 A 7.706 7.706 0 0 1 337.267 90.865 A 6.892 6.892 0 0 1 335.536 90.654 A 5.997 5.997 0 0 1 334.591 90.325 A 5.032 5.032 0 0 1 332.559 88.662 Z M 371.294 88.716 L 371.294 90.455 A 2.235 2.235 0 0 1 371.029 90.56 Q 370.7 90.669 370.206 90.749 A 9.848 9.848 0 0 1 369.564 90.833 Q 369.218 90.865 368.913 90.865 A 5.934 5.934 0 0 1 367.164 90.63 Q 365.242 90.037 364.739 87.949 A 7.142 7.142 0 0 1 364.56 86.28 L 364.56 77.356 L 362.411 77.356 L 362.411 76.261 L 364.56 75.316 L 365.518 72.114 L 366.832 72.114 L 366.832 75.59 L 371.185 75.59 L 371.185 77.356 L 366.832 77.356 L 366.832 86.184 Q 366.832 87.539 367.476 88.265 A 2.111 2.111 0 0 0 368.773 88.955 A 3.037 3.037 0 0 0 369.241 88.99 A 7.462 7.462 0 0 0 370.334 88.912 A 6.876 6.876 0 0 0 370.405 88.901 Q 370.94 88.816 371.264 88.725 A 3.417 3.417 0 0 0 371.294 88.716 Z M 381.191 88.716 L 381.191 90.455 A 2.235 2.235 0 0 1 380.925 90.56 Q 380.596 90.669 380.102 90.749 A 9.848 9.848 0 0 1 379.46 90.833 Q 379.114 90.865 378.809 90.865 A 5.934 5.934 0 0 1 377.06 90.63 Q 375.138 90.037 374.635 87.949 A 7.142 7.142 0 0 1 374.456 86.28 L 374.456 77.356 L 372.307 77.356 L 372.307 76.261 L 374.456 75.316 L 375.414 72.114 L 376.728 72.114 L 376.728 75.59 L 381.081 75.59 L 381.081 77.356 L 376.728 77.356 L 376.728 86.184 Q 376.728 87.539 377.372 88.265 A 2.111 2.111 0 0 0 378.669 88.955 A 3.037 3.037 0 0 0 379.137 88.99 A 7.462 7.462 0 0 0 380.231 88.912 A 6.876 6.876 0 0 0 380.301 88.901 Q 380.836 88.816 381.16 88.725 A 3.417 3.417 0 0 0 381.191 88.716 Z M 360.413 83.077 Q 360.413 86.745 358.565 88.805 A 6.058 6.058 0 0 1 355 90.737 A 8.823 8.823 0 0 1 353.46 90.865 A 7.296 7.296 0 0 1 351.339 90.567 A 6.327 6.327 0 0 1 349.887 89.921 A 6.151 6.151 0 0 1 347.644 87.535 A 7.468 7.468 0 0 1 347.478 87.211 A 8.405 8.405 0 0 1 346.772 84.918 A 11.367 11.367 0 0 1 346.63 83.077 A 11.797 11.797 0 0 1 346.837 80.796 Q 347.099 79.467 347.693 78.432 A 6.277 6.277 0 0 1 348.464 77.363 A 6.01 6.01 0 0 1 351.97 75.452 A 8.825 8.825 0 0 1 353.555 75.316 A 7.635 7.635 0 0 1 355.797 75.63 A 5.948 5.948 0 0 1 358.558 77.411 A 7.075 7.075 0 0 1 360.104 80.407 Q 360.413 81.619 360.413 83.077 Z M 397.136 83.077 Q 397.136 86.745 395.289 88.805 A 6.058 6.058 0 0 1 391.724 90.737 A 8.823 8.823 0 0 1 390.183 90.865 A 7.296 7.296 0 0 1 388.063 90.567 A 6.327 6.327 0 0 1 386.611 89.921 A 6.151 6.151 0 0 1 384.367 87.535 A 7.468 7.468 0 0 1 384.202 87.211 A 8.405 8.405 0 0 1 383.496 84.918 A 11.367 11.367 0 0 1 383.353 83.077 A 11.797 11.797 0 0 1 383.56 80.796 Q 383.822 79.467 384.416 78.432 A 6.277 6.277 0 0 1 385.187 77.363 A 6.01 6.01 0 0 1 388.694 75.452 A 8.825 8.825 0 0 1 390.279 75.316 A 7.635 7.635 0 0 1 392.52 75.63 A 5.948 5.948 0 0 1 395.282 77.411 A 7.075 7.075 0 0 1 396.827 80.407 Q 397.136 81.619 397.136 83.077 Z M 348.984 83.077 A 11.506 11.506 0 0 0 349.093 84.721 Q 349.339 86.416 350.134 87.457 A 3.724 3.724 0 0 0 352.559 88.886 A 5.643 5.643 0 0 0 353.514 88.963 A 5.278 5.278 0 0 0 354.907 88.79 A 3.673 3.673 0 0 0 356.902 87.464 Q 357.762 86.349 357.983 84.467 A 11.968 11.968 0 0 0 358.059 83.077 A 11.337 11.337 0 0 0 357.951 81.462 Q 357.833 80.639 357.583 79.973 A 4.678 4.678 0 0 0 356.902 78.731 A 3.738 3.738 0 0 0 354.578 77.345 A 5.731 5.731 0 0 0 353.487 77.246 A 5.407 5.407 0 0 0 352.141 77.404 A 3.619 3.619 0 0 0 350.12 78.711 A 4.698 4.698 0 0 0 349.39 80.122 Q 349.174 80.771 349.073 81.564 A 12.006 12.006 0 0 0 348.984 83.077 Z M 385.707 83.077 A 11.506 11.506 0 0 0 385.817 84.721 Q 386.062 86.416 386.857 87.457 A 3.724 3.724 0 0 0 389.283 88.886 A 5.643 5.643 0 0 0 390.238 88.963 A 5.278 5.278 0 0 0 391.63 88.79 A 3.673 3.673 0 0 0 393.626 87.464 Q 394.486 86.349 394.706 84.467 A 11.968 11.968 0 0 0 394.782 83.077 A 11.337 11.337 0 0 0 394.675 81.462 Q 394.556 80.639 394.306 79.973 A 4.678 4.678 0 0 0 393.626 78.731 A 3.738 3.738 0 0 0 391.302 77.345 A 5.731 5.731 0 0 0 390.211 77.246 A 5.407 5.407 0 0 0 388.864 77.404 A 3.619 3.619 0 0 0 386.843 78.711 A 4.698 4.698 0 0 0 386.113 80.122 Q 385.898 80.771 385.797 81.564 A 12.006 12.006 0 0 0 385.707 83.077 Z M 336.939 77.246 A 6.385 6.385 0 0 0 335.702 77.358 Q 334.998 77.497 334.463 77.81 A 3.022 3.022 0 0 0 333.585 78.581 A 3.889 3.889 0 0 0 333.022 79.653 Q 332.643 80.718 332.574 82.337 A 17.506 17.506 0 0 0 332.559 83.077 A 15.023 15.023 0 0 0 332.633 84.63 Q 332.839 86.601 333.613 87.601 Q 334.558 88.822 336.526 88.948 A 7.306 7.306 0 0 0 336.994 88.963 A 4.529 4.529 0 0 0 338.28 88.791 A 3.268 3.268 0 0 0 340.114 87.437 A 5.216 5.216 0 0 0 340.76 86.041 Q 340.962 85.378 341.057 84.575 A 13.019 13.019 0 0 0 341.141 83.05 A 13.424 13.424 0 0 0 341.06 81.52 Q 340.867 79.847 340.218 78.837 A 3.769 3.769 0 0 0 340.114 78.684 A 3.313 3.313 0 0 0 338.005 77.348 A 5.255 5.255 0 0 0 336.939 77.246 Z" id="bottom_labelLayer" stroke="#000000" fill="#000000" style="stroke:#000000;fill:#000000" vector-effect="non-scaling-stroke"/></g></svg>