0
SECTION
2
HEADER
9
$INSUNITS
70
4
9
$ACADVER
1
AC1014
9
$HANDSEED
5
FFFF
0
ENDSEC
0
SECTION
2
TABLES
0
TABLE
2
VPORT
5
8
100
AcDbSymbolTable
0
ENDTAB
0
TABLE
2
LTYPE
5
5
100
AcDbSymbolTable
0
LTYPE
5
14
100
AcDbSymbolTableRecord
100
AcDbLinetypeTableRecord
2
BYBLOCK
70
0
0
LTYPE
5
15
100
AcDbSymbolTableRecord
100
AcDbLinetypeTableRecord
2
BYLAYER
70
0
0
ENDTAB
0
TABLE
2
LAYER
5
2
100
AcDbSymbolTable
70
2
0
LAYER
5
50
100
AcDbSymbolTableRecord
100
AcDbLayerTableRecord
2
0
70
0
6
CONTINUOUS
0
ENDTAB
0
TABLE
2
STYLE
5
3
100
AcDbSymbolTable
70
1
0
STYLE
5
11
100
AcDbSymbolTableRecord
100
AcDbTextStyleTableRecord
2
STANDARD
70
0
0
ENDTAB
0
TABLE
2
VIEW
5
6
100
AcDbSymbolTable
70
0
0
ENDTAB
0
TABLE
2
UCS
5
7
100
AcDbSymbolTable
70
0
0
ENDTAB
0
TABLE
2
APPID
5
9
100
AcDbSymbolTable
70
2
0
APPID
5
12
100
AcDbSymbolTableRecord
100
AcDbRegAppTableRecord
2
ACAD
70
0
0
ENDTAB
0
TABLE
2
DIMSTYLE
5
A
100
AcDbSymbolTable
70
1
0
ENDTAB
0
TABLE
2
BLOCK_RECORD
5
1
100
AcDbSymbolTable
70
1
0
BLOCK_RECORD
5
1F
100
AcDbSymbolTableRecord
100
AcDbBlockTableRecord
2
*MODEL_SPACE
0
BLOCK_RECORD
5
1B
100
AcDbSymbolTableRecord
100
AcDbBlockTableRecord
2
*PAPER_SPACE
0
ENDTAB
0
ENDSEC
0
SECTION
2
BLOCKS
0
BLOCK
5
20
100
AcDbEntity
100
AcDbBlockBegin
2
*MODEL_SPACE
0
ENDBLK
5
21
100
AcDbEntity
100
AcDbBlockEnd
0
BLOCK
5
1C
100
AcDbEntity
100
AcDbBlockBegin
2
*PAPER_SPACE
0
ENDBLK
5
1D
100
AcDbEntity
100
AcDbBlockEnd
0
ENDSEC
0
SECTION
2
ENTITIES
0
LWPOLYLINE
5
100
100
AcDbEntity
8
0
100
AcDbPolyline
90
4
70
1
43
0.0
10
15.000000223517418
20
33.000000491738319
10
55.000000819563866
20
33.000000491738319
10
55.000000819563866
20
5.000000074505806
10
15.000000223517418
20
5.000000074505806
0
LWPOLYLINE
5
101
100
AcDbEntity
8
0
100
AcDbPolyline
90
4
70
1
43
0.0
10
15.000000223517418
20
39.000000581145287
10
55.000000819563866
20
39.000000581145287
10
55.000000819563866
20
43.000000640749931
10
15.000000223517418
20
43.000000640749931
0
LWPOLYLINE
5
102
100
AcDbEntity
8
0
100
AcDbPolyline
90
4
70
1
43
0.0
10
13.000000193715096
20
37.009419696345475
10
57.000000849366188
20
37.009419696345475
10
57.000000849366188
20
45.000000670552254
10
13.000000193715096
20
45.000000670552254
0
LWPOLYLINE
5
103
100
AcDbEntity
8
0
100
AcDbPolyline
90
4
70
1
43
0.0
10
57.000000849366188
20
35.000000521540642
10
13.000000193715096
20
35.000000521540642
10
13.000000193715096
20
5.000000074505806
10
57.000000849366188
20
5.000000074505806
0
LINE
5
104
100
AcDbEntity
8
0
100
AcDbLine
10
98.000001311302185
20
25.00000037252903
30
0
11
95.550001311302196
21
25.00000037252903
31
0
0
LINE
5
105
100
AcDbEntity
8
0
100
AcDbLine
10
11.000000163912773
20
65.000000074505806
30
0
11
3.0000000447034836
21
65.000000074505806
31
0
0
LINE
5
106
100
AcDbEntity
8
0
100
AcDbLine
10
-5.000000074505806
20
49.999999968901648
30
0
11
0.55000040269348949
21
49.999999968901648
31
0
0
LINE
5
107
100
AcDbEntity
8
0
100
AcDbLine
10
93
20
5
30
0
11
93
21
35.000000521540642
31
0
0
LINE
5
108
100
AcDbEntity
8
0
100
AcDbLine
10
11.000000163912773
20
65.000000074505806
30
0
11
11.000000163912773
21
95.000000521540642
31
0
0
LINE
5
109
100
AcDbEntity
8
0
100
AcDbLine
10
0.55000040269348949
20
25.00000037252903
30
0
11
2.999999650707827
21
25.00000037252903
31
0
0
LINE
5
110
100
AcDbEntity
8
0
100
AcDbLine
10
135
20
0
30
0
11
98.000001311302185
21
0
31
0
0
LINE
5
111
100
AcDbEntity
8
0
100
AcDbLine
10
11.000000163912773
20
5.000000074505806
30
0
11
-5.000000074505806
21
5.000000074505806
31
0
0
LWPOLYLINE
5
112
100
AcDbEntity
8
0
100
AcDbPolyline
90
4
70
1
43
0.0
10
15.000000223517418
20
67.0000009983778
10
15.000000223517418
20
93.000000491738319
10
55.000000819563866
20
93.000000491738319
10
55.000000819563866
20
67.0000009983778
0
LWPOLYLINE
5
113
100
AcDbEntity
8
0
100
AcDbPolyline
90
4
70
1
43
0.0
10
150.00000183284283
20
93.000000491738319
10
100.00000129640102
20
93.000000491738319
10
100.00000129640102
20
67.000000104308128
10
150.00000183284283
20
67.000000104308128
0
LINE
5
114
100
AcDbEntity
8
0
100
AcDbLine
10
160
20
0
30
0
11
98.000001311302185
21
0
31
0
0
LINE
5
115
100
AcDbEntity
8
0
100
AcDbLine
10
11.000000163912773
20
105.00000067055225
30
0
11
-5.000000074505806
21
105.00000067055225
31
0
0
LINE
5
116
100
AcDbEntity
8
0
100
AcDbLine
10
0.55000040269348949
20
49.999999968901648
30
0
11
-9.0356497347113748e-15
21
49.999999968901648
31
0
0
LINE
5
117
100
AcDbEntity
8
0
100
AcDbLine
10
47.000000849366188
20
110
30
0
11
23.000000193715096
21
110
31
0
0
LINE
5
118
100
AcDbEntity
8
0
100
AcDbLine
10
158.00000190734863
20
95.000000521540642
30
0
11
98.000001311302185
21
95.000000521540642
31
0
0
LINE
5
119
100
AcDbEntity
8
0
100
AcDbLine
10
98.000001311302185
20
0
30
0
11
98.000001311302185
21
25.00000037252903
31
0
0
LINE
5
120
100
AcDbEntity
8
0
100
AcDbLine
10
13.000000193715096
20
52.499999968901641
30
0
11
13.000000193715096
21
49.999999968901641
31
0
0
LWPOLYLINE
5
121
100
AcDbEntity
8
0
100
AcDbPolyline
90
4
70
1
43
0.0
10
5.0000000298023224
20
93.000000491738319
10
9.0000001341104507
20
93.000000491738319
10
9.0000001341104507
20
67.000000104308128
10
5.0000000298023224
20
67.000000104308128
0
LINE
5
122
100
AcDbEntity
8
0
100
AcDbLine
10
160
20
65
30
0
11
160
21
60
31
0
0
LINE
5
123
100
AcDbEntity
8
0
100
AcDbLine
10
160
20
5
30
0
11
160
21
0
31
0
0
LWPOLYLINE
5
124
100
AcDbEntity
8
0
100
AcDbPolyline
90
4
70
1
43
0.0
10
5.0000000298023224
20
103.00000064074993
10
9.0000001341104507
20
103.00000064074993
10
9.0000001341104507
20
99.108477813137654
10
5.0000000298023224
20
99.108477813137654
0
LINE
5
125
100
AcDbEntity
8
0
100
AcDbLine
10
95.550001311302196
20
0
30
0
11
90
21
0
31
0
0
LINE
5
126
100
AcDbEntity
8
0
100
AcDbLine
10
0.55000040269348949
20
49.999999968901648
30
0
11
0.55000040269348949
21
25.00000037252903
31
0
0
LINE
5
127
100
AcDbEntity
8
0
100
AcDbLine
10
95.550001311302196
20
25.00000037252903
30
0
11
95.550001311302196
21
0
31
0
0
LINE
5
128
100
AcDbEntity
8
0
100
AcDbLine
10
-5.000000074505806
20
105.00000067055225
30
0
11
-5.000000074505806
21
110.00000074505806
31
0
0
LINE
5
129
100
AcDbEntity
8
0
100
AcDbLine
10
13.000000193715096
20
112.50000167638063
30
0
11
23.000000193715096
21
112.50000167638063
31
0
0
LINE
5
130
100
AcDbEntity
8
0
100
AcDbLine
10
0
20
60
30
0
11
0.5500000447034834
21
60
31
0
0
LINE
5
131
100
AcDbEntity
8
0
100
AcDbLine
10
2.999999650707827
20
49.999999968901648
30
0
11
13.000000193715096
21
49.999999968901641
31
0
0
LINE
5
132
100
AcDbEntity
8
0
100
AcDbLine
10
-2
20
65.000000074505806
30
0
11
-5.000000074505806
21
65.000000074505806
31
0
0
LINE
5
133
100
AcDbEntity
8
0
100
AcDbLine
10
-2.0000000000000022
20
45.000000670552254
30
0
11
-5.000000074505806
21
45.000000670552254
31
0
0
LINE
5
134
100
AcDbEntity
8
0
100
AcDbLine
10
3.0000000447034836
20
85.000001266598701
30
0
11
3.0000000447034836
21
60
31
0
0
LWPOLYLINE
5
135
100
AcDbEntity
8
0
100
AcDbPolyline
90
4
70
1
43
0.0
10
150.00000183284283
20
7.0000001043081284
10
150.00000183284283
20
33.000000491738319
10
100.00000129640101
20
33.000000491738319
10
100.00000129640101
20
7.0000001043081284
0
LWPOLYLINE
5
136
100
AcDbEntity
8
0
100
AcDbPolyline
90
4
70
1
43
0.0
10
251.99976081147182
20
5.5500008195638628
10
251.99976081147182
20
8.0000008195638639
10
241.9997606624602
20
8.0000008195638639
10
241.9997606624602
20
5.5500008195638628
0
LWPOLYLINE
5
137
100
AcDbEntity
8
0
100
AcDbPolyline
90
4
70
1
43
0.0
10
65.000001013278961
20
39.00941972614779
10
65.000001013278961
20
43.000000640749931
10
61.000000908970833
20
43.000000640749931
10
61.000000908970833
20
39.00941972614779
0
LINE
5
138
100
AcDbEntity
8
0
100
AcDbLine
10
57.000253720455056
20
49.999999968901641
30
0
11
67.0000009983778
21
49.999999968901641
31
0
0
LWPOLYLINE
5
139
100
AcDbEntity
8
0
100
AcDbPolyline
90
4
70
1
43
0.0
10
241.9997606624602
20
62.000000819563866
10
251.99976081147182
20
62.000000819563866
10
251.99976081147182
20
64.450000819563869
10
241.9997606624602
20
64.450000819563869
0
LINE
5
140
100
AcDbEntity
8
0
100
AcDbLine
10
69.450000983864442
20
49.999999968901641
30
0
11
75.000001117587118
21
49.999999968901641
31
0
0
LWPOLYLINE
5
141
100
AcDbEntity
8
0
100
AcDbPolyline
90
4
70
1
43
0.0
10
207.9997606624602
20
64.450000819563869
10
207.9997606624602
20
62.000000819563866
10
217.99976081147182
20
62.000000819563866
10
217.99976081147182
20
64.450000819563869
0
LINE
5
142
100
AcDbEntity
8
0
100
AcDbLine
10
73.000001087784767
20
35.000000521540642
30
0
11
73.000001087784767
21
37.009419696345475
31
0
0
LINE
5
143
100
AcDbEntity
8
0
100
AcDbLine
10
72
20
35.000000521540642
30
0
11
73.000001087784767
21
35.000000521540642
31
0
0
LWPOLYLINE
5
144
100
AcDbEntity
8
0
100
AcDbPolyline
90
4
70
1
43
0.0
10
61.000000908970833
20
33.000000491738319
10
61.000000908970833
20
7.0000001043081284
10
65.000001013278961
20
7.0000001043081284
10
65.000001013278961
20
33.000000491738319
0
LINE
5
145
100
AcDbEntity
8
0
100
AcDbLine
10
75.00000111758709
20
0
30
0
11
75.00000111758709
21
5.000000074505806
31
0
0
LWPOLYLINE
5
146
100
AcDbEntity
8
0
100
AcDbPolyline
90
4
70
1
43
0.0
10
217.99976081147182
20
8.0000008195638639
10
207.9997606624602
20
8.0000008195638639
10
207.9997606624602
20
5.5500008195638628
10
217.99976081147182
20
5.5500008195638628
0
LINE
5
147
100
AcDbEntity
8
0
100
AcDbLine
10
59.00000087916851
20
5.000000074505806
30
0
11
59.00000087916851
21
35.000000521540635
31
0
0
LINE
5
148
100
AcDbEntity
8
0
100
AcDbLine
10
72
20
37.009419696345475
30
0
11
72
21
45.000000670552254
31
0
0
LWPOLYLINE
5
149
100
AcDbEntity
8
0
100
AcDbPolyline
90
4
70
1
43
0.0
10
190
20
70
10
270
20
70
10
270
20
0
10
190
20
0
0
LWPOLYLINE
5
150
100
AcDbEntity
8
0
100
AcDbPolyline
90
4
70
1
43
0.0
10
65.000001013278961
20
67.000000104308128
10
65.000001013278961
20
93.000000491738319
10
61.000000908970833
20
93.000000491738319
10
61.000000908970833
20
67.000000104308128
0
LINE
5
151
100
AcDbEntity
8
0
100
AcDbLine
10
70
20
49.999999968901641
30
0
11
69.450000983864442
21
49.999999968901641
31
0
0
LINE
5
152
100
AcDbEntity
8
0
100
AcDbLine
10
75.00000111758709
20
60
30
0
11
75.00000111758709
21
65.000000074505806
31
0
0
LINE
5
153
100
AcDbEntity
8
0
100
AcDbLine
10
67.0000009983778
20
37.009419696345475
30
0
11
59.00000087916851
21
37.009419696345475
31
0
0
LWPOLYLINE
5
154
100
AcDbEntity
8
0
100
AcDbPolyline
90
4
70
1
43
0.0
10
65.000001013278961
20
99.009419726147797
10
65.000001013278961
20
103.00000064074993
10
61.000000908970833
20
103.00000064074993
10
61.000000908970833
20
99.009419726147797
0
LINE
5
155
100
AcDbEntity
8
0
100
AcDbLine
10
59.00000087916851
20
35.000000521540635
30
0
11
67.0000009983778
21
35.000000521540642
31
0
0
LINE
5
156
100
AcDbEntity
8
0
100
AcDbLine
10
75.00000111758709
20
65.000000074505806
30
0
11
72
21
65.000000074505806
31
0
0
LINE
5
157
100
AcDbEntity
8
0
100
AcDbLine
10
47.000000700354576
20
52.499999968901641
30
0
11
57.000253720455056
21
52.499999968901641
31
0
0
LINE
5
158
100
AcDbEntity
8
0
100
AcDbLine
10
69.450000998377803
20
85.000001266598701
30
0
11
67.0000009983778
21
85.000001266598701
31
0
0
LWPOLYLINE
5
159
100
AcDbEntity
8
0
100
AcDbPolyline
90
4
70
1
43
0.0
10
57.000000849366188
20
65.000000074505806
10
57.000000849366188
20
95.000000521540642
10
13.000000193715096
20
95.000000521540642
10
13.000000193715096
20
65.000000074505806
0
LINE
5
160
100
AcDbEntity
8
0
100
AcDbLine
10
59.00000087916851
20
37.009419696345475
30
0
11
59.00000087916851
21
45.000000670552254
31
0
0
LINE
5
161
100
AcDbEntity
8
0
100
AcDbLine
10
67.0000009983778
20
49.999999968901641
30
0
11
67.0000009983778
21
25.00000037252903
31
0
0
LINE
5
162
100
AcDbEntity
8
0
100
AcDbLine
10
73.000001087784767
20
97.009419696345475
30
0
11
59.00000087916851
21
97.009419696345475
31
0
0
LINE
5
163
100
AcDbEntity
8
0
100
AcDbLine
10
44.450277998288861
20
49.999999968901641
30
0
11
47.000000700354576
21
49.999999968901641
31
0
0
LINE
5
164
100
AcDbEntity
8
0
100
AcDbLine
10
59.00000087916851
20
95.000000521540642
30
0
11
73.000001087784767
21
95.000000521540642
31
0
0
LINE
5
165
100
AcDbEntity
8
0
100
AcDbLine
10
47.000000700354576
20
49.999999968901641
30
0
11
47.000000700354576
21
52.499999968901641
31
0
0
LINE
5
166
100
AcDbEntity
8
0
100
AcDbLine
10
59.00000087916851
20
65.000000074505806
30
0
11
59.00000087916851
21
95.000000521540642
31
0
0
LINE
5
167
100
AcDbEntity
8
0
100
AcDbLine
10
152.00000181794167
20
45
30
0
11
90
21
45
31
0
0
LINE
5
168
100
AcDbEntity
8
0
100
AcDbLine
10
69.450000998377803
20
60.000000908970833
30
0
11
75.00000111758709
21
60
31
0
0
LINE
5
169
100
AcDbEntity
8
0
100
AcDbLine
10
75.000001117587118
20
49.999999968901641
30
0
11
75.00000111758709
21
45.000000670552254
31
0
0
LWPOLYLINE
5
170
100
AcDbEntity
8
0
100
AcDbPolyline
90
4
70
1
43
0.0
10
150.00000183284283
20
39.000000581145287
10
150.00000183284283
20
43.000000640749931
10
100.00000129640101
20
43.000000640749931
10
100.00000129640101
20
39.000000581145287
0
LINE
5
171
100
AcDbEntity
8
0
100
AcDbLine
10
72
20
97.009419696345475
30
0
11
72
21
105.00000067055225
31
0
0
LINE
5
172
100
AcDbEntity
8
0
100
AcDbLine
10
158.00000190734863
20
37.000000551342964
30
0
11
158.00000190734863
21
35.000000521540642
31
0
0
LINE
5
173
100
AcDbEntity
8
0
100
AcDbLine
10
75.00000111758709
20
5.000000074505806
30
0
11
59.00000087916851
21
5.000000074505806
31
0
0
LINE
5
174
100
AcDbEntity
8
0
100
AcDbLine
10
152.00000181794167
20
50
30
0
11
135
21
50
31
0
0
LINE
5
175
100
AcDbEntity
8
0
100
AcDbLine
10
67.0000009983778
20
25.00000037252903
30
0
11
69.450000983864442
21
25.00000037252903
31
0
0
LINE
5
176
100
AcDbEntity
8
0
100
AcDbLine
10
72
20
65.000000074505806
30
0
11
72
21
95.000000521540642
31
0
0
LINE
5
177
100
AcDbEntity
8
0
100
AcDbLine
10
75.00000111758709
20
45.000000670552254
30
0
11
72
21
45.000000670552254
31
0
0
LINE
5
178
100
AcDbEntity
8
0
100
AcDbLine
10
95
20
50
30
0
11
152.00000181794167
21
50
31
0
0
LINE
5
179
100
AcDbEntity
8
0
100
AcDbLine
10
92.000001221895218
20
35.000000521540642
30
0
11
92.000001221895218
21
37.000000551342964
31
0
0
LINE
5
180
100
AcDbEntity
8
0
100
AcDbLine
10
73.000001087784767
20
95.000000521540642
30
0
11
73.000001087784767
21
97.009419696345475
31
0
0
LWPOLYLINE
5
181
100
AcDbEntity
8
0
100
AcDbPolyline
90
4
70
1
43
0.0
10
55.000000819563866
20
99.000001475214958
10
55.000000819563866
20
103.0000015348196
10
15.000000223517418
20
103.0000015348196
10
15.000000223517418
20
99.000001475214958
0
LINE
5
182
100
AcDbEntity
8
0
100
AcDbLine
10
72
20
5.000000074505806
30
0
11
72
21
35.000000521540642
31
0
0
LINE
5
183
100
AcDbEntity
8
0
100
AcDbLine
10
160
20
45
30
0
11
154.45000181794165
21
45
31
0
0
LINE
5
184
100
AcDbEntity
8
0
100
AcDbLine
10
57.000000849366188
20
112.50000167638063
30
0
11
47.000000849366188
21
112.50000167638063
31
0
0
LINE
5
185
100
AcDbEntity
8
0
100
AcDbLine
10
69.450000983864442
20
25.00000037252903
30
0
11
69.450000983864442
21
49.999999968901641
31
0
0
LINE
5
186
100
AcDbEntity
8
0
100
AcDbLine
10
157
20
45
30
0
11
157
21
37.000000551342964
31
0
0
LINE
5
187
100
AcDbEntity
8
0
100
AcDbLine
10
57.000000849366188
20
110
30
0
11
75.00000111758709
21
110.00000074505806
31
0
0
LINE
5
188
100
AcDbEntity
8
0
100
AcDbLine
10
59.00000087916851
20
97.009419696345475
30
0
11
59.00000087916851
21
105.00000067055225
31
0
0
LINE
5
189
100
AcDbEntity
8
0
100
AcDbLine
10
154.45000181794165
20
50
30
0
11
160
21
50
31
0
0
LINE
5
190
100
AcDbEntity
8
0
100
AcDbLine
10
67.0000009983778
20
45.000000670552254
30
0
11
59.00000087916851
21
45.000000670552254
31
0
0
LINE
5
191
100
AcDbEntity
8
0
100
AcDbLine
10
90
20
50
30
0
11
152.00000181794167
21
50
31
0
0
LINE
5
192
100
AcDbEntity
8
0
100
AcDbLine
10
73.000001087784767
20
37.009419696345475
30
0
11
72
21
37.009419696345475
31
0
0
LWPOLYLINE
5
193
100
AcDbEntity
8
0
100
AcDbPolyline
90
4
70
1
43
0.0
10
57.000000849366188
20
97.009419696345475
10
57.000000849366188
20
105.00000067055225
10
13.000000193715096
20
105.00000067055225
10
13.000000193715096
20
97.009419696345475
0
LINE
5
194
100
AcDbEntity
8
0
100
AcDbLine
10
67.0000009983778
20
49.999999968901641
30
0
11
57.000253720455056
21
49.999999968901641
31
0
0
LINE
5
195
100
AcDbEntity
8
0
100
AcDbLine
10
75.00000111758709
20
110.00000074505806
30
0
11
75.00000111758709
21
105.00000067055225
31
0
0
LINE
5
196
100
AcDbEntity
8
0
100
AcDbLine
10
90
20
45
30
0
11
90
21
50
31
0
0
LINE
5
197
100
AcDbEntity
8
0
100
AcDbLine
10
152.00000181794167
20
35.000000521540642
30
0
11
92.000001221895218
21
35.000000521540642
31
0
0
LINE
5
198
100
AcDbEntity
8
0
100
AcDbLine
10
69.450000998377803
20
60.000000908970833
30
0
11
69.999999999995907
21
60.000000908970833
31
0
0
LINE
5
199
100
AcDbEntity
8
0
100
AcDbLine
10
57.000253720455056
20
52.499999968901641
30
0
11
57.000253720455056
21
49.999999968901641
31
0
0
LINE
5
200
100
AcDbEntity
8
0
100
AcDbLine
10
154.45000181794165
20
37.000000551342964
30
0
11
158.00000190734863
21
37.000000551342964
31
0
0
LINE
5
201
100
AcDbEntity
8
0
100
AcDbLine
10
70
20
110
30
0
11
57.000000849366188
21
110
31
0
0
LINE
5
202
100
AcDbEntity
8
0
100
AcDbLine
10
92.000001221895218
20
37.000000551342964
30
0
11
152.00000181794167
21
37.000000551342964
31
0
0
LINE
5
203
100
AcDbEntity
8
0
100
AcDbLine
10
67.0000009983778
20
65.000000074505806
30
0
11
59.00000087916851
21
65.000000074505806
31
0
0
LINE
5
204
100
AcDbEntity
8
0
100
AcDbLine
10
93
20
37.000000551342964
30
0
11
93
21
45
31
0
0
LINE
5
205
100
AcDbEntity
8
0
100
AcDbLine
10
75.00000111758709
20
105.00000067055225
30
0
11
59.00000087916851
21
105.00000067055225
31
0
0
LINE
5
206
100
AcDbEntity
8
0
100
AcDbLine
10
160
20
60
30
0
11
154.45000181794165
21
60
31
0
0
LINE
5
207
100
AcDbEntity
8
0
100
AcDbLine
10
69.450000998377803
20
60.000000908970833
30
0
11
69.450000998377803
21
85.000001266598701
31
0
0
LINE
5
208
100
AcDbEntity
8
0
100
AcDbLine
10
160
20
50
30
0
11
160
21
45
31
0
0
LINE
5
209
100
AcDbEntity
8
0
100
AcDbLine
10
67.0000009983778
20
85.000001266598701
30
0
11
67.0000009983778
21
60
31
0
0
LINE
5
210
100
AcDbEntity
8
0
100
AcDbLine
10
154.45000181794165
20
85.000001266598701
30
0
11
154.45000181794165
21
60
31
0
0
LINE
5
211
100
AcDbEntity
8
0
100
AcDbLine
10
135
20
60
30
0
11
152.00000181794167
21
60
31
0
0
LINE
5
212
100
AcDbEntity
8
0
100
AcDbLine
10
57.000000849366188
20
110
30
0
11
57.000000849366188
21
112.50000167638063
31
0
0
LINE
5
213
100
AcDbEntity
8
0
100
AcDbLine
10
2.999999650707827
20
25.00000037252903
30
0
11
2.999999650707827
21
49.999999968901648
31
0
0
LINE
5
214
100
AcDbEntity
8
0
100
AcDbLine
10
154.45000181794165
20
65
30
0
11
160
21
65
31
0
0
LINE
5
215
100
AcDbEntity
8
0
100
AcDbLine
10
-1.9999999999999998
20
37.009419696345475
30
0
11
-3.0000000447034836
21
37.009419696345475
31
0
0
LINE
5
216
100
AcDbEntity
8
0
100
AcDbLine
10
13.000000193715096
20
49.999999968901641
30
0
11
2.999999650707827
21
49.999999968901648
31
0
0
LINE
5
217
100
AcDbEntity
8
0
100
AcDbLine
10
22.999705401115666
20
49.999999968901641
30
0
11
22.999705401115666
21
52.499999968901641
31
0
0
LINE
5
218
100
AcDbEntity
8
0
100
AcDbLine
10
90
20
0
30
0
11
90
21
5
31
0
0
LINE
5
219
100
AcDbEntity
8
0
100
AcDbLine
10
152.00000181794167
20
60
30
0
11
95
21
60
31
0
0
LWPOLYLINE
5
220
100
AcDbEntity
8
0
100
AcDbPolyline
90
4
70
1
43
0.0
10
9.0000001341104507
20
39.108477813137654
10
5.0000000298023224
20
39.108477813137654
10
5.0000000298023224
20
43.000000640749931
10
9.0000001341104507
20
43.000000640749931
0
LINE
5
221
100
AcDbEntity
8
0
100
AcDbLine
10
158.00000190734863
20
35.000000521540642
30
0
11
154.45000181794165
21
35.000000521540642
31
0
0
LINE
5
222
100
AcDbEntity
8
0
100
AcDbLine
10
152.00000181794167
20
60
30
0
11
152.00000181794167
21
85.000001266598701
31
0
0
LINE
5
223
100
AcDbEntity
8
0
100
AcDbLine
10
152.00000181794167
20
25.00000037252903
30
0
11
154.45000181794165
21
25.00000037252903
31
0
0
LINE
5
224
100
AcDbEntity
8
0
100
AcDbLine
10
152.00000181794167
20
85.000001266598701
30
0
11
154.45000181794165
21
85.000001266598701
31
0
0
LINE
5
225
100
AcDbEntity
8
0
100
AcDbLine
10
98.000001311302185
20
5
30
0
11
160
21
5
31
0
0
LINE
5
226
100
AcDbEntity
8
0
100
AcDbLine
10
11.000000163912773
20
45.000000670552254
30
0
11
2.999999650707827
21
45.000000670552254
31
0
0
LINE
5
227
100
AcDbEntity
8
0
100
AcDbLine
10
90
20
60
30
0
11
90
21
65
31
0
0
LINE
5
228
100
AcDbEntity
8
0
100
AcDbLine
10
90
20
5
30
0
11
95.550001311302196
21
5
31
0
0
LINE
5
229
100
AcDbEntity
8
0
100
AcDbLine
10
11.000000163912773
20
37.009419696345475
30
0
11
2.999999650707827
21
37.009419696345475
31
0
0
LINE
5
230
100
AcDbEntity
8
0
100
AcDbLine
10
90
20
65
30
0
11
152.00000181794167
21
65
31
0
0
LINE
5
231
100
AcDbEntity
8
0
100
AcDbLine
10
25.00060850145648
20
49.999999968901641
30
0
11
44.450277998288861
21
49.999999968901641
31
0
0
LINE
5
232
100
AcDbEntity
8
0
100
AcDbLine
10
95.550001311302196
20
0
30
0
11
95
21
0
31
0
0
LINE
5
233
100
AcDbEntity
8
0
100
AcDbLine
10
11.000000163912773
20
97.009419696345475
30
0
11
11.000000163912773
21
105.00000067055225
31
0
0
LINE
5
234
100
AcDbEntity
8
0
100
AcDbLine
10
98.000001311302185
20
85.000001266598701
30
0
11
95.550001311302196
21
85.000001266598701
31
0
0
LINE
5
235
100
AcDbEntity
8
0
100
AcDbLine
10
22.999705401115666
20
49.999999968901641
30
0
11
25.00060850145648
21
49.999999968901641
31
0
0
LINE
5
236
100
AcDbEntity
8
0
100
AcDbLine
10
0.5500000447034834
20
60
30
0
11
0.5500000447034834
21
85.000001266598701
31
0
0
LINE
5
237
100
AcDbEntity
8
0
100
AcDbLine
10
152.00000181794167
20
60
30
0
11
90
21
60
31
0
0
LINE
5
238
100
AcDbEntity
8
0
100
AcDbLine
10
-5.000000074505806
20
45.000000670552254
30
0
11
-5.000000074505806
21
49.999999968901648
31
0
0
LINE
5
239
100
AcDbEntity
8
0
100
AcDbLine
10
23.000000193715096
20
112.50000167638063
30
0
11
23.000000193715096
21
110
31
0
0
LINE
5
240
100
AcDbEntity
8
0
100
AcDbLine
10
154.45000181794165
20
25.00000037252903
30
0
11
154.45000181794165
21
50
31
0
0
LINE
5
241
100
AcDbEntity
8
0
100
AcDbLine
10
-3.0000000447034836
20
95.000000521540642
30
0
11
11.000000163912773
21
95.000000521540642
31
0
0
LINE
5
242
100
AcDbEntity
8
0
100
AcDbLine
10
92.000001221895218
20
97.000000551342964
30
0
11
95.550001311302196
21
97.000000551342964
31
0
0
LINE
5
243
100
AcDbEntity
8
0
100
AcDbLine
10
152.00000181794167
20
50
30
0
11
152.00000181794167
21
25.00000037252903
31
0
0
LWPOLYLINE
5
244
100
AcDbEntity
8
0
100
AcDbPolyline
90
4
70
1
43
0.0
10
5.0000000298023224
20
33.000000491738319
10
9.0000001341104507
20
33.000000491738319
10
9.0000001341104507
20
7.0000001043081284
10
5.0000000298023224
20
7.0000001043081284
0
LINE
5
245
100
AcDbEntity
8
0
100
AcDbLine
10
160
20
105
30
0
11
98.000001311302185
21
105
31
0
0
LWPOLYLINE
5
246
100
AcDbEntity
8
0
100
AcDbPolyline
90
4
70
1
43
0.0
10
150.00000183284283
20
103.00000064074993
10
100.00000129640102
20
103.00000064074993
10
100.00000129640102
20
99.000000581145287
10
150.00000183284283
20
99.000000581145287
0
LINE
5
247
100
AcDbEntity
8
0
100
AcDbLine
10
98.000001311302185
20
110
30
0
11
135
21
110
31
0
0
LINE
5
248
100
AcDbEntity
8
0
100
AcDbLine
10
-5.000000074505806
20
110.00000074505806
30
0
11
13.000000193715096
21
110
31
0
0
LINE
5
249
100
AcDbEntity
8
0
100
AcDbLine
10
-5.000000074505806
20
60
30
0
11
0.5500000447034834
21
60
31
0
0
LINE
5
250
100
AcDbEntity
8
0
100
AcDbLine
10
13.000000193715096
20
110
30
0
11
13.000000193715096
21
112.50000167638063
31
0
0
LINE
5
251
100
AcDbEntity
8
0
100
AcDbLine
10
-5.000000074505806
20
65.000000074505806
30
0
11
-5.000000074505806
21
60
31
0
0
LINE
5
252
100
AcDbEntity
8
0
100
AcDbLine
10
160
20
110
30
0
11
160
21
105
31
0
0
LINE
5
253
100
AcDbEntity
8
0
100
AcDbLine
10
-3.0000000447034836
20
97.009419696345475
30
0
11
-3.0000000447034836
21
95.000000521540642
31
0
0
LINE
5
254
100
AcDbEntity
8
0
100
AcDbLine
10
22.999705401115666
20
52.499999968901641
30
0
11
13.000000193715096
21
52.499999968901641
31
0
0
LINE
5
255
100
AcDbEntity
8
0
100
AcDbLine
10
-3.0000000447034836
20
37.009419696345475
30
0
11
-3.0000000447034836
21
35.000000521540642
31
0
0
LINE
5
256
100
AcDbEntity
8
0
100
AcDbLine
10
-5.000000074505806
20
5.000000074505806
30
0
11
-5.000000074505806
21
0
31
0
0
LINE
5
257
100
AcDbEntity
8
0
100
AcDbLine
10
-2.0000000000000027
20
105.00000067055225
30
0
11
-2
21
97.009419696345475
31
0
0
LINE
5
258
100
AcDbEntity
8
0
100
AcDbLine
10
11.000000163912773
20
37.009419696345475
30
0
11
11.000000163912773
21
45.000000670552254
31
0
0
LINE
5
259
100
AcDbEntity
8
0
100
AcDbLine
10
157
20
105
30
0
11
157
21
97.000000551342964
31
0
0
LINE
5
260
100
AcDbEntity
8
0
100
AcDbLine
10
11.000000163912773
20
97.009419696345475
30
0
11
-3.0000000447034836
21
97.009419696345475
31
0
0
LINE
5
261
100
AcDbEntity
8
0
100
AcDbLine
10
-2.0000000000000022
20
45.000000670552254
30
0
11
-1.9999999999999998
21
37.009419696345475
31
0
0
LINE
5
262
100
AcDbEntity
8
0
100
AcDbLine
10
0.5500000447034834
20
85.000001266598701
30
0
11
3.0000000447034836
21
85.000001266598701
31
0
0
LINE
5
263
100
AcDbEntity
8
0
100
AcDbLine
10
93
20
97.000000551342964
30
0
11
93
21
105
31
0
0
LINE
5
264
100
AcDbEntity
8
0
100
AcDbLine
10
23.000000193715096
20
110
30
0
11
47.000000849366188
21
110
31
0
0
LINE
5
265
100
AcDbEntity
8
0
100
AcDbLine
10
90
20
105
30
0
11
90
21
110
31
0
0
LINE
5
266
100
AcDbEntity
8
0
100
AcDbLine
10
157
20
35.000000521540642
30
0
11
157
21
5
31
0
0
LINE
5
267
100
AcDbEntity
8
0
100
AcDbLine
10
95.550001311302196
20
105
30
0
11
90
21
105
31
0
0
LINE
5
268
100
AcDbEntity
8
0
100
AcDbLine
10
-2
20
95.000000521540642
30
0
11
-2
21
65.000000074505806
31
0
0
LINE
5
269
100
AcDbEntity
8
0
100
AcDbLine
10
44.450277998288861
20
49.999999968901641
30
0
11
25.00060850145648
21
49.999999968901641
31
0
0
LINE
5
270
100
AcDbEntity
8
0
100
AcDbLine
10
158.00000190734863
20
97.000000551342964
30
0
11
158.00000190734863
21
95.000000521540642
31
0
0
LINE
5
271
100
AcDbEntity
8
0
100
AcDbLine
10
13.000000193715096
20
110
30
0
11
0
21
110
31
0
0
LINE
5
272
100
AcDbEntity
8
0
100
AcDbLine
10
95
20
110
30
0
11
95.550001311302196
21
110
31
0
0
LINE
5
273
100
AcDbEntity
8
0
100
AcDbLine
10
47.000000849366188
20
112.50000167638063
30
0
11
47.000000849366188
21
110
31
0
0
LINE
5
274
100
AcDbEntity
8
0
100
AcDbLine
10
15.000000223517418
20
65.000000074505806
30
0
11
55.000000819563866
21
65.000000074505806
31
0
0
LINE
5
275
100
AcDbEntity
8
0
100
AcDbLine
10
11.000000163912773
20
5.000000074505806
30
0
11
11.000000163912773
21
35.000000521540642
31
0
0
LINE
5
276
100
AcDbEntity
8
0
100
AcDbLine
10
3.0000000447034836
20
60
30
0
11
67.0000009983778
21
60
31
0
0
LINE
5
277
100
AcDbEntity
8
0
100
AcDbLine
10
92.000001221895218
20
95.000000521540642
30
0
11
92.000001221895218
21
97.000000551342964
31
0
0
LINE
5
278
100
AcDbEntity
8
0
100
AcDbLine
10
-1.9999999999999998
20
35.000000521540642
30
0
11
-1.9999999999999998
21
5.000000074505806
31
0
0
LINE
5
279
100
AcDbEntity
8
0
100
AcDbLine
10
90
20
110
30
0
11
95.550001311302196
21
110
31
0
0
LINE
5
280
100
AcDbEntity
8
0
100
AcDbLine
10
98.000001311302185
20
110
30
0
11
160
21
110
31
0
0
LINE
5
281
100
AcDbEntity
8
0
100
AcDbLine
10
-3.0000000447034836
20
35.000000521540642
30
0
11
-1.9999999999999998
21
35.000000521540642
31
0
0
LINE
5
282
100
AcDbEntity
8
0
100
AcDbLine
10
3.0000000447034836
20
60
30
0
11
67.0000009983778
21
60
31
0
0
LINE
5
283
100
AcDbEntity
8
0
100
AcDbLine
10
95.550001311302196
20
95.000000521540642
30
0
11
92.000001221895218
21
95.000000521540642
31
0
0
LINE
5
284
100
AcDbEntity
8
0
100
AcDbLine
10
-5.000000074505806
20
0
30
0
11
75.00000111758709
21
0
31
0
0
LINE
5
285
100
AcDbEntity
8
0
100
AcDbLine
10
2.999999650707827
20
35.000000521540642
30
0
11
11.000000163912773
21
35.000000521540642
31
0
0
LINE
5
286
100
AcDbEntity
8
0
100
AcDbLine
10
0
20
0
30
0
11
70
21
0
31
0
0
LINE
5
287
100
AcDbEntity
8
0
100
AcDbLine
10
98.000001311302185
20
97.000000551342964
30
0
11
158.00000190734863
21
97.000000551342964
31
0
0
LINE
5
288
100
AcDbEntity
8
0
100
AcDbLine
10
98.000001311302185
20
110
30
0
11
98.000001311302185
21
85.000001266598701
31
0
0
LINE
5
289
100
AcDbEntity
8
0
100
AcDbLine
10
93
20
65
30
0
11
93
21
95.000000521540642
31
0
0
LINE
5
290
100
AcDbEntity
8
0
100
AcDbLine
10
95.550001311302196
20
85.000001266598701
30
0
11
95.550001311302196
21
110
31
0
0
LINE
5
291
100
AcDbEntity
8
0
100
AcDbLine
10
157
20
95.000000521540642
30
0
11
157
21
65
31
0
0
LINE
5
292
100
AcDbEntity
8
0
100
AcDbLine
10
72
20
45.000000670552254
30
0
11
69.450000983864442
21
45.000000670552254
31
0
0
LINE
5
293
100
AcDbEntity
8
0
100
AcDbLine
10
72
20
37.009419696345475
30
0
11
69.450000983864442
21
37.009419696345475
31
0
0
LINE
5
294
100
AcDbEntity
8
0
100
AcDbLine
10
72
20
35.000000521540642
30
0
11
69.450000983864442
21
35.000000521540642
31
0
0
LINE
5
295
100
AcDbEntity
8
0
100
AcDbLine
10
-2.0000000000000022
20
45.000000670552254
30
0
11
0.55000040269348949
21
45.000000670552254
31
0
0
LINE
5
296
100
AcDbEntity
8
0
100
AcDbLine
10
-1.9999999999999998
20
37.009419696345475
30
0
11
0.55000040269348949
21
37.009419696345475
31
0
0
LINE
5
297
100
AcDbEntity
8
0
100
AcDbLine
10
-1.9999999999999998
20
35.000000521540642
30
0
11
0.55000040269348949
21
35.000000521540642
31
0
0
LINE
5
298
100
AcDbEntity
8
0
100
AcDbLine
10
-2
20
65.000000074505806
30
0
11
0.5500000447034834
21
65.000000074505806
31
0
0
LINE
5
299
100
AcDbEntity
8
0
100
AcDbLine
10
72
20
65.000000074505806
30
0
11
69.450000998377803
21
65.000000074505806
31
0
0
ENDSEC
0
SECTION
2
OBJECTS
0
DICTIONARY
5
C
100
AcDbDictionary
3
ACAD_GROUP
350
D
3
ACAD_MLINESTYLE
350
17
0
DICTIONARY
5
D
100
AcDbDictionary
0
DICTIONARY
5
1A
330
C
100
AcDbDictionary
0
DICTIONARY
5
17
100
AcDbDictionary
0
ENDSEC
0
EOF
