0
SECTION
2
HEADER
9
$INSUNITS
70
4
9
$ACADVER
1
AC1014
9
$HANDSEED
5
FFFF
0
ENDSEC
0
SECTION
2
TABLES
0
TABLE
2
VPORT
5
8
100
AcDbSymbolTable
0
ENDTAB
0
TABLE
2
LTYPE
5
5
100
AcDbSymbolTable
0
LTYPE
5
14
100
AcDbSymbolTableRecord
100
AcDbLinetypeTableRecord
2
BYBLOCK
70
0
0
LTYPE
5
15
100
AcDbSymbolTableRecord
100
AcDbLinetypeTableRecord
2
BYLAYER
70
0
0
ENDTAB
0
TABLE
2
LAYER
5
2
100
AcDbSymbolTable
70
2
0
LAYER
5
50
100
AcDbSymbolTableRecord
100
AcDbLayerTableRecord
2
0
70
0
6
CONTINUOUS
0
ENDTAB
0
TABLE
2
STYLE
5
3
100
AcDbSymbolTable
70
1
0
STYLE
5
11
100
AcDbSymbolTableRecord
100
AcDbTextStyleTableRecord
2
STANDARD
70
0
0
ENDTAB
0
TABLE
2
VIEW
5
6
100
AcDbSymbolTable
70
0
0
ENDTAB
0
TABLE
2
UCS
5
7
100
AcDbSymbolTable
70
0
0
ENDTAB
0
TABLE
2
APPID
5
9
100
AcDbSymbolTable
70
2
0
APPID
5
12
100
AcDbSymbolTableRecord
100
AcDbRegAppTableRecord
2
ACAD
70
0
0
ENDTAB
0
TABLE
2
DIMSTYLE
5
A
100
AcDbSymbolTable
70
1
0
ENDTAB
0
TABLE
2
BLOCK_RECORD
5
1
100
AcDbSymbolTable
70
1
0
BLOCK_RECORD
5
1F
100
AcDbSymbolTableRecord
100
AcDbBlockTableRecord
2
*MODEL_SPACE
0
BLOCK_RECORD
5
1B
100
AcDbSymbolTableRecord
100
AcDbBlockTableRecord
2
*PAPER_SPACE
0
ENDTAB
0
ENDSEC
0
SECTION
2
BLOCKS
0
BLOCK
5
20
100
AcDbEntity
100
AcDbBlockBegin
2
*MODEL_SPACE
0
ENDBLK
5
21
100
AcDbEntity
100
AcDbBlockEnd
0
BLOCK
5
1C
100
AcDbEntity
100
AcDbBlockBegin
2
*PAPER_SPACE
0
ENDBLK
5
1D
100
AcDbEntity
100
AcDbBlockEnd
0
ENDSEC
0
SECTION
2
ENTITIES
0
LINE
5
100
100
AcDbEntity
8
0
100
AcDbLine
10
5.0255106787593178
20
37.872447544976566
30
0
11
5.705366843265991
21
34.473166722443203
31
0
0
LINE
5
101
100
AcDbEntity
8
0
100
AcDbLine
10
5.705366843265991
20
34.473166722443203
30
0
11
5.0255106787593178
21
37.872447544976566
31
0
0
LINE
5
102
100
AcDbEntity
8
0
100
AcDbLine
10
5.705366843265991
20
34.473166722443203
30
0
11
11.207213938444321
21
34.473166722443203
31
0
0
LINE
5
103
100
AcDbEntity
8
0
100
AcDbLine
10
16.000000238418576
20
30.000000447034832
30
0
11
16.000000238418576
21
39.333333919445678
31
0
0
LINE
5
104
100
AcDbEntity
8
0
100
AcDbLine
10
12.000000178813934
20
39.267345444987491
30
0
11
5.0255106787593178
21
37.872447544976566
31
0
0
LINE
5
105
100
AcDbEntity
8
0
100
AcDbLine
10
11.207213938444321
20
34.473166722443203
30
0
11
11.207213938444323
21
23.000000342726711
31
0
0
LINE
5
106
100
AcDbEntity
8
0
100
AcDbLine
10
16.000000238418576
20
30.000000447034832
30
0
11
18.000000268220901
21
23.000000342726707
31
0
0
LINE
5
107
100
AcDbEntity
8
0
100
AcDbLine
10
10.884246338594037
20
16.000000238418579
30
0
11
8.879970877189006
21
-0.03420345282172798
31
0
0
LINE
5
108
100
AcDbEntity
8
0
100
AcDbLine
10
8.879970877189006
20
-0.03420345282172798
30
0
11
13.000800779096949
21
-0.03420345282172732
31
0
0
LINE
5
109
100
AcDbEntity
8
0
100
AcDbLine
10
13.000800779096949
20
-0.03420345282172732
30
0
11
14.835359806935884
21
14.642268769344412
31
0
0
LINE
5
110
100
AcDbEntity
8
0
100
AcDbLine
10
29.007873305455259
20
13.845869490340084
30
0
11
32.998552845133915
21
0.00010041802987374439
31
0
0
LINE
5
111
100
AcDbEntity
8
0
100
AcDbLine
10
32.998552845133915
20
0.00010041802987374439
30
0
11
37.002052401896186
21
0.00011795813686782312
31
0
0
LINE
5
112
100
AcDbEntity
8
0
100
AcDbLine
10
37.002052401896186
20
0.00011795813686782312
30
0
11
32.670041390147745
21
15.030142646574422
31
0
0
LINE
5
113
100
AcDbEntity
8
0
100
AcDbLine
10
12.000000178813934
20
39.267345444987491
30
0
11
12.000000178813934
21
42.00000062584877
31
0
0
LINE
5
114
100
AcDbEntity
8
0
100
AcDbLine
10
12.000000178813934
20
42.00000062584877
30
0
11
16.000000238418576
21
39.333333919445678
31
0
0
LINE
5
115
100
AcDbEntity
8
0
100
AcDbLine
10
32.739360278805236
20
21.269569613294056
30
0
11
40.000000596046448
21
18.000000268220901
31
0
0
LINE
5
116
100
AcDbEntity
8
0
100
AcDbLine
10
40.000000596046448
20
18.000000268220901
30
0
11
39.15928087764032
21
16.133037730124737
31
0
0
LINE
5
117
100
AcDbEntity
8
0
100
AcDbLine
10
39.15928087764032
20
16.133037730124737
30
0
11
34.025793954496784
21
18.444719484379025
31
0
0
SPLINE
5
118
100
AcDbEntity
8
0
100
AcDbSpline
70
4
71
5
72
26
73
20
74
0
42
0.000000001
43
0.0000000001
44
0.0000000001
40
0
40
0
40
0
40
0
40
0
40
0
40
0.066666666666666666
40
0.13333333333333333
40
0.20000000000000001
40
0.26666666666666666
40
0.33333333333333331
40
0.39999999999999997
40
0.46666666666666662
40
0.53333333333333333
40
0.59999999999999998
40
0.66666666666666663
40
0.73333333333333328
40
0.79999999999999993
40
0.86666666666666659
40
0.93333333333333324
40
1
40
1
40
1
40
1
40
1
40
1
41
1
41
1
41
1
41
1
41
1
41
1
41
1
41
1
41
1
41
1
41
1
41
1
41
1
41
1
41
1
41
1
41
1
41
1
41
1
41
1
10
32.739372165391572
20
21.269558432669484
30
0
10
32.692288153984144
20
21.326398658327545
30
0
10
32.602869516497094
20
21.437145700675259
30
0
10
32.482971343203239
20
21.594468694793861
30
0
10
32.326418801342314
20
21.789572742039368
30
0
10
32.016306120662712
20
22.021913387516229
30
0
10
31.486181457962729
20
22.251640995118503
30
0
10
30.70791363399983
20
22.475436944608667
30
0
10
29.703932441298981
20
22.682785065330641
30
0
10
28.529020827901157
20
22.859810581585947
30
0
10
27.250253008438882
20
22.993637986513313
30
0
10
25.929953543715616
20
23.076282254037608
30
0
10
24.605147865370473
20
23.109854087984107
30
0
10
23.290427618657649
20
23.104422930603445
30
0
10
21.985268828304491
20
23.074563151066464
30
0
10
20.67931295156103
20
23.036646471028249
30
0
10
19.622363087200082
20
23.012129193614935
30
0
10
18.816880987086964
20
23.002205651953112
30
0
10
18.273379484335827
20
23.000000342726707
30
0
10
18.000000268220901
20
23.000000342726707
30
0
0
SPLINE
5
119
100
AcDbEntity
8
0
100
AcDbSpline
70
4
71
5
72
16
73
10
74
0
42
0.000000001
43
0.0000000001
44
0.0000000001
40
0.56679040015017257
40
0.56679040015017257
40
0.56679040015017257
40
0.56679040015017257
40
0.56679040015017257
40
0.56679040015017257
40
0.57500000000000018
40
0.6000000000000002
40
0.62500000000000022
40
0.65000000000000024
40
0.65349124672313463
40
0.65349124672313463
40
0.65349124672313463
40
0.65349124672313463
40
0.65349124672313463
40
0.65349124672313463
41
1
41
1
41
1
41
1
41
1
41
1
41
1
41
1
41
1
41
1
10
32.670041390147745
20
15.030142646574422
30
0
10
32.731497344309659
20
15.073977203338885
30
0
10
32.974315579971297
20
15.255712614024365
30
0
10
33.357867412210801
20
15.605726476832098
30
0
10
33.790502318416571
20
16.185924854681865
30
0
10
34.047105409453806
20
16.904230909828243
30
0
10
34.105848366441428
20
17.626846245406995
30
0
10
34.070221636603819
20
18.13701843634049
30
0
10
34.030913771300952
20
18.411103470601059
30
0
10
34.025793954496784
20
18.444719484379025
30
0
0
SPLINE
5
120
100
AcDbEntity
8
0
100
AcDbSpline
70
4
71
5
72
20
73
14
74
0
42
0.000000001
43
0.0000000001
44
0.0000000001
40
0
40
0
40
0
40
0
40
0
40
0
40
0.025000000000000001
40
0.050000000000000003
40
0.075000000000000011
40
0.10000000000000001
40
0.125
40
0.14999999999999999
40
0.17499999999999999
40
0.19999999999999998
40
0.20267486841108007
40
0.20267486841108007
40
0.20267486841108007
40
0.20267486841108007
40
0.20267486841108007
40
0.20267486841108007
41
1
41
1
41
1
41
1
41
1
41
1
41
1
41
1
41
1
41
1
41
1
41
1
41
1
41
1
10
11.207213938444323
20
23.000000342726711
30
0
10
11.003153826020464
20
22.811477210612686
30
0
10
10.61842402520549
20
22.434670558702535
30
0
10
10.111499663056723
20
21.870178160683103
30
0
10
9.5760921341932796
20
21.118969131265818
30
0
10
9.1426402581702089
20
20.184457689887523
30
0
10
8.948673319890359
20
19.260902999963562
30
0
10
9.0001955579080448
20
18.360865865140816
30
0
10
9.3068841687261301
20
17.506184813688723
30
0
10
9.7759661359919914
20
16.863517958854178
30
0
10
10.259530010257139
20
16.424133104336867
30
0
10
10.645054929634528
20
16.150253023196743
30
0
10
10.863034240751478
20
16.013184459719582
30
0
10
10.884246351705606
20
16.00000023026918
30
0
0
SPLINE
5
121
100
AcDbEntity
8
0
100
AcDbSpline
70
4
71
5
72
20
73
14
74
0
42
0.000000001
43
0.0000000001
44
0.0000000001
40
0.27764764910569667
40
0.27764764910569667
40
0.27764764910569667
40
0.27764764910569667
40
0.27764764910569667
40
0.27764764910569667
40
0.29999999999999999
40
0.32500000000000001
40
0.35000000000000003
40
0.37500000000000006
40
0.40000000000000008
40
0.4250000000000001
40
0.45000000000000012
40
0.47500000000000014
40
0.49268087529087978
40
0.49268087529087978
40
0.49268087529087978
40
0.49268087529087978
40
0.49268087529087978
40
0.49268087529087978
41
1
41
1
41
1
41
1
41
1
41
1
41
1
41
1
41
1
41
1
41
1
41
1
41
1
41
1
10
14.835359806935884
20
14.642268769344412
30
0
10
15.11790007096482
20
14.587712919535356
30
0
10
15.727134574987998
20
14.479097969549517
30
0
10
16.688316412062438
20
14.334022198760199
30
0
10
18.024978950548224
20
14.174207506073531
30
0
10
19.732895535696223
20
14.015086505036221
30
0
10
21.467512531580802
20
13.882410511740153
30
0
10
23.168891884927788
20
13.776438252308832
30
0
10
24.825850783641012
20
13.703921393374006
30
0
10
26.337967355637542
20
13.681278284938241
30
0
10
27.488759492326082
20
13.711751771755329
30
0
10
28.30257649873532
20
13.76881837294877
30
0
10
28.802977536456918
20
13.821180693272241
30
0
10
29.007873305455259
20
13.845869490340084
30
0
0
LINE
5
122
100
AcDbEntity
8
0
100
AcDbLine
10
29.007873305455259
20
13.845869490340084
30
0
11
32.998552845133915
21
0.00010041802987374439
31
0
0
SPLINE
5
123
100
AcDbEntity
8
0
100
AcDbSpline
70
4
71
5
72
26
73
20
74
0
42
0.000000001
43
0.0000000001
44
0.0000000001
40
0
40
0
40
0
40
0
40
0
40
0
40
0.066666666666666666
40
0.13333333333333333
40
0.20000000000000001
40
0.26666666666666666
40
0.33333333333333331
40
0.39999999999999997
40
0.46666666666666662
40
0.53333333333333333
40
0.59999999999999998
40
0.66666666666666663
40
0.73333333333333328
40
0.79999999999999993
40
0.86666666666666659
40
0.93333333333333324
40
1
40
1
40
1
40
1
40
1
40
1
41
1
41
1
41
1
41
1
41
1
41
1
41
1
41
1
41
1
41
1
41
1
41
1
41
1
41
1
41
1
41
1
41
1
41
1
41
1
41
1
10
32.739372165391572
20
21.269558432669484
30
0
10
32.692288153984144
20
21.326398658327545
30
0
10
32.602869516497094
20
21.437145700675259
30
0
10
32.482971343203239
20
21.594468694793861
30
0
10
32.326418801342314
20
21.789572742039368
30
0
10
32.016306120662712
20
22.021913387516229
30
0
10
31.486181457962729
20
22.251640995118503
30
0
10
30.70791363399983
20
22.475436944608667
30
0
10
29.703932441298981
20
22.682785065330641
30
0
10
28.529020827901157
20
22.859810581585947
30
0
10
27.250253008438882
20
22.993637986513313
30
0
10
25.929953543715616
20
23.076282254037608
30
0
10
24.605147865370473
20
23.109854087984107
30
0
10
23.290427618657649
20
23.104422930603445
30
0
10
21.985268828304491
20
23.074563151066464
30
0
10
20.67931295156103
20
23.036646471028249
30
0
10
19.622363087200082
20
23.012129193614935
30
0
10
18.816880987086964
20
23.002205651953112
30
0
10
18.273379484335827
20
23.000000342726707
30
0
10
18.000000268220901
20
23.000000342726707
30
0
0
LINE
5
124
100
AcDbEntity
8
0
100
AcDbLine
10
11.207213938444321
20
34.473166722443203
30
0
11
11.207213938444323
21
23.000000342726711
31
0
0
LINE
5
125
100
AcDbEntity
8
0
100
AcDbLine
10
8.879970877189006
20
-0.03420345282172798
30
0
11
13.000800779096949
21
-0.03420345282172732
31
0
0
LINE
5
126
100
AcDbEntity
8
0
100
AcDbLine
10
10.884246338594037
20
16.000000238418579
30
0
11
8.879970877189006
21
-0.03420345282172798
31
0
0
LINE
5
127
100
AcDbEntity
8
0
100
AcDbLine
10
32.998552845133915
20
0.00010041802987374439
30
0
11
37.002052401896186
21
0.00011795813686782312
31
0
0
LINE
5
128
100
AcDbEntity
8
0
100
AcDbLine
10
16.000000238418576
20
30.000000447034832
30
0
11
16.000000238418576
21
39.333333919445678
31
0
0
LINE
5
129
100
AcDbEntity
8
0
100
AcDbLine
10
40.000000596046448
20
18.000000268220901
30
0
11
39.15928087764032
21
16.133037730124737
31
0
0
LINE
5
130
100
AcDbEntity
8
0
100
AcDbLine
10
12.000000178813934
20
42.00000062584877
30
0
11
16.000000238418576
21
39.333333919445678
31
0
0
LINE
5
131
100
AcDbEntity
8
0
100
AcDbLine
10
13.000800779096949
20
-0.03420345282172732
30
0
11
14.835359806935884
21
14.642268769344412
31
0
0
LINE
5
132
100
AcDbEntity
8
0
100
AcDbLine
10
5.705366843265991
20
34.473166722443203
30
0
11
11.207213938444321
21
34.473166722443203
31
0
0
LINE
5
133
100
AcDbEntity
8
0
100
AcDbLine
10
37.002052401896186
20
0.00011795813686782312
30
0
11
32.670041390147745
21
15.030142646574422
31
0
0
LINE
5
134
100
AcDbEntity
8
0
100
AcDbLine
10
12.000000178813934
20
39.267345444987491
30
0
11
12.000000178813934
21
42.00000062584877
31
0
0
SPLINE
5
135
100
AcDbEntity
8
0
100
AcDbSpline
70
4
71
5
72
20
73
14
74
0
42
0.000000001
43
0.0000000001
44
0.0000000001
40
0.27764764910569667
40
0.27764764910569667
40
0.27764764910569667
40
0.27764764910569667
40
0.27764764910569667
40
0.27764764910569667
40
0.29999999999999999
40
0.32500000000000001
40
0.35000000000000003
40
0.37500000000000006
40
0.40000000000000008
40
0.4250000000000001
40
0.45000000000000012
40
0.47500000000000014
40
0.49268087529087978
40
0.49268087529087978
40
0.49268087529087978
40
0.49268087529087978
40
0.49268087529087978
40
0.49268087529087978
41
1
41
1
41
1
41
1
41
1
41
1
41
1
41
1
41
1
41
1
41
1
41
1
41
1
41
1
10
14.835359806935884
20
14.642268769344412
30
0
10
15.11790007096482
20
14.587712919535356
30
0
10
15.727134574987998
20
14.479097969549517
30
0
10
16.688316412062438
20
14.334022198760199
30
0
10
18.024978950548224
20
14.174207506073531
30
0
10
19.732895535696223
20
14.015086505036221
30
0
10
21.467512531580802
20
13.882410511740153
30
0
10
23.168891884927788
20
13.776438252308832
30
0
10
24.825850783641012
20
13.703921393374006
30
0
10
26.337967355637542
20
13.681278284938241
30
0
10
27.488759492326082
20
13.711751771755329
30
0
10
28.30257649873532
20
13.76881837294877
30
0
10
28.802977536456918
20
13.821180693272241
30
0
10
29.007873305455259
20
13.845869490340084
30
0
0
LINE
5
136
100
AcDbEntity
8
0
100
AcDbLine
10
16.000000238418576
20
30.000000447034832
30
0
11
18.000000268220901
21
23.000000342726707
31
0
0
SPLINE
5
137
100
AcDbEntity
8
0
100
AcDbSpline
70
4
71
5
72
20
73
14
74
0
42
0.000000001
43
0.0000000001
44
0.0000000001
40
0
40
0
40
0
40
0
40
0
40
0
40
0.025000000000000001
40
0.050000000000000003
40
0.075000000000000011
40
0.10000000000000001
40
0.125
40
0.14999999999999999
40
0.17499999999999999
40
0.19999999999999998
40
0.20267486841108007
40
0.20267486841108007
40
0.20267486841108007
40
0.20267486841108007
40
0.20267486841108007
40
0.20267486841108007
41
1
41
1
41
1
41
1
41
1
41
1
41
1
41
1
41
1
41
1
41
1
41
1
41
1
41
1
10
11.207213938444323
20
23.000000342726711
30
0
10
11.003153826020464
20
22.811477210612686
30
0
10
10.61842402520549
20
22.434670558702535
30
0
10
10.111499663056723
20
21.870178160683103
30
0
10
9.5760921341932796
20
21.118969131265818
30
0
10
9.1426402581702089
20
20.184457689887523
30
0
10
8.948673319890359
20
19.260902999963562
30
0
10
9.0001955579080448
20
18.360865865140816
30
0
10
9.3068841687261301
20
17.506184813688723
30
0
10
9.7759661359919914
20
16.863517958854178
30
0
10
10.259530010257139
20
16.424133104336867
30
0
10
10.645054929634528
20
16.150253023196743
30
0
10
10.863034240751478
20
16.013184459719582
30
0
10
10.884246351705606
20
16.00000023026918
30
0
0
LINE
5
138
100
AcDbEntity
8
0
100
AcDbLine
10
5.0255106787593178
20
37.872447544976566
30
0
11
5.705366843265991
21
34.473166722443203
31
0
0
LINE
5
139
100
AcDbEntity
8
0
100
AcDbLine
10
32.739360278805236
20
21.269569613294056
30
0
11
40.000000596046448
21
18.000000268220901
31
0
0
SPLINE
5
140
100
AcDbEntity
8
0
100
AcDbSpline
70
4
71
5
72
16
73
10
74
0
42
0.000000001
43
0.0000000001
44
0.0000000001
40
0.56679040015017257
40
0.56679040015017257
40
0.56679040015017257
40
0.56679040015017257
40
0.56679040015017257
40
0.56679040015017257
40
0.57500000000000018
40
0.6000000000000002
40
0.62500000000000022
40
0.65000000000000024
40
0.65349124672313463
40
0.65349124672313463
40
0.65349124672313463
40
0.65349124672313463
40
0.65349124672313463
40
0.65349124672313463
41
1
41
1
41
1
41
1
41
1
41
1
41
1
41
1
41
1
41
1
10
32.670041390147745
20
15.030142646574422
30
0
10
32.731497344309659
20
15.073977203338885
30
0
10
32.974315579971297
20
15.255712614024365
30
0
10
33.357867412210801
20
15.605726476832098
30
0
10
33.790502318416571
20
16.185924854681865
30
0
10
34.047105409453806
20
16.904230909828243
30
0
10
34.105848366441428
20
17.626846245406995
30
0
10
34.070221636603819
20
18.13701843634049
30
0
10
34.030913771300952
20
18.411103470601059
30
0
10
34.025793954496784
20
18.444719484379025
30
0
0
LINE
5
141
100
AcDbEntity
8
0
100
AcDbLine
10
12.000000178813934
20
39.267345444987491
30
0
11
5.0255106787593178
21
37.872447544976566
31
0
0
LINE
5
142
100
AcDbEntity
8
0
100
AcDbLine
10
5.705366843265991
20
34.473166722443203
30
0
11
5.0255106787593178
21
37.872447544976566
31
0
0
LINE
5
143
100
AcDbEntity
8
0
100
AcDbLine
10
39.15928087764032
20
16.133037730124737
30
0
11
34.025793954496784
21
18.444719484379025
31
0
0
LINE
5
144
100
AcDbEntity
8
0
100
AcDbLine
10
51.000000238418579
20
30.000000447034832
30
0
11
53.000000268220901
21
23.000000342726707
31
0
0
LINE
5
145
100
AcDbEntity
8
0
100
AcDbLine
10
75.000000596046448
20
18.000000268220901
30
0
11
74.159280877640313
21
16.133037730124737
31
0
0
SPLINE
5
146
100
AcDbEntity
8
0
100
AcDbSpline
70
4
71
5
72
21
73
15
74
0
42
0.000000001
43
0.0000000001
44
0.0000000001
40
0
40
0
40
0
40
0
40
0
40
0
40
0.10000000000000001
40
0.20000000000000001
40
0.30000000000000004
40
0.40000000000000002
40
0.5
40
0.59999999999999998
40
0.69999999999999996
40
0.79999999999999993
40
0.89999999999999991
40
1
40
1
40
1
40
1
40
1
40
1
41
1
41
1
41
1
41
1
41
1
41
1
41
1
41
1
41
1
41
1
41
1
41
1
41
1
41
1
41
1
10
67.670041390147745
20
15.030142646574422
30
0
10
67.747132687963884
20
15.085129391410639
30
0
10
67.896515768586255
20
15.201293298858252
30
0
10
68.106192915307886
20
15.394109918304839
30
0
10
68.356532578315608
20
15.684300699679749
30
0
10
68.617941827291787
20
16.080377234142983
30
0
10
68.824153099032898
20
16.483180369412501
30
0
10
68.972329689946605
20
16.868169896236843
30
0
10
69.062293343230778
20
17.218510581283695
30
0
10
69.100781084261854
20
17.534324788138026
30
0
10
69.099949424209811
20
17.830178228157685
30
0
10
69.078016532199726
20
18.066489758424055
30
0
10
69.054234452407272
20
18.251559373015102
30
0
10
69.035717638959483
20
18.379561935508349
30
0
10
69.025793954496791
20
18.444719484379025
30
0
0
LINE
5
147
100
AcDbEntity
8
0
100
AcDbLine
10
43.87997087718901
20
-0.03420345282172798
30
0
11
48.000800779096949
21
-0.03420345282172732
31
0
0
LINE
5
148
100
AcDbEntity
8
0
100
AcDbLine
10
48.000800779096949
20
-0.03420345282172732
30
0
11
49.835359806935884
21
14.642268769344412
31
0
0
LINE
5
149
100
AcDbEntity
8
0
100
AcDbLine
10
40.705366843265992
20
34.473166722443203
30
0
11
40.025510678759318
21
37.872447544976566
31
0
0
LINE
5
150
100
AcDbEntity
8
0
100
AcDbLine
10
40.705366843265992
20
34.473166722443203
30
0
11
40.025510678759318
21
37.872447544976566
31
0
0
LINE
5
151
100
AcDbEntity
8
0
100
AcDbLine
10
64.007873305455263
20
13.845869490340084
30
0
11
67.998552845133915
21
0.00010041802987374439
31
0
0
SPLINE
5
152
100
AcDbEntity
8
0
100
AcDbSpline
70
4
71
5
72
21
73
15
74
0
42
0.000000001
43
0.0000000001
44
0.0000000001
40
0
40
0
40
0
40
0
40
0
40
0
40
0.10000000000000001
40
0.20000000000000001
40
0.30000000000000004
40
0.40000000000000002
40
0.5
40
0.59999999999999998
40
0.69999999999999996
40
0.79999999999999993
40
0.89999999999999991
40
1
40
1
40
1
40
1
40
1
40
1
41
1
41
1
41
1
41
1
41
1
41
1
41
1
41
1
41
1
41
1
41
1
41
1
41
1
41
1
41
1
10
67.670041390147745
20
15.030142646574422
30
0
10
67.747132687963884
20
15.085129391410639
30
0
10
67.896515768586255
20
15.201293298858252
30
0
10
68.106192915307886
20
15.394109918304839
30
0
10
68.356532578315608
20
15.684300699679749
30
0
10
68.617941827291787
20
16.080377234142983
30
0
10
68.824153099032898
20
16.483180369412501
30
0
10
68.972329689946605
20
16.868169896236843
30
0
10
69.062293343230778
20
17.218510581283695
30
0
10
69.100781084261854
20
17.534324788138026
30
0
10
69.099949424209811
20
17.830178228157685
30
0
10
69.078016532199726
20
18.066489758424055
30
0
10
69.054234452407272
20
18.251559373015102
30
0
10
69.035717638959483
20
18.379561935508349
30
0
10
69.025793954496791
20
18.444719484379025
30
0
0
LINE
5
153
100
AcDbEntity
8
0
100
AcDbLine
10
47.000000178813934
20
42.00000062584877
30
0
11
51.000000238418579
21
39.333333919445678
31
0
0
LINE
5
154
100
AcDbEntity
8
0
100
AcDbLine
10
72.002052401896194
20
0.00011795813686782312
30
0
11
67.670041390147745
21
15.030142646574422
31
0
0
LINE
5
155
100
AcDbEntity
8
0
100
AcDbLine
10
51.000000238418579
20
30.000000447034832
30
0
11
51.000000238418579
21
39.333333919445678
31
0
0
LINE
5
156
100
AcDbEntity
8
0
100
AcDbLine
10
47.000000178813934
20
39.267345444987491
30
0
11
40.025510678759318
21
37.872447544976566
31
0
0
LINE
5
157
100
AcDbEntity
8
0
100
AcDbLine
10
64.007873305455263
20
13.845869490340084
30
0
11
67.998552845133915
21
0.00010041802987374439
31
0
0
LINE
5
158
100
AcDbEntity
8
0
100
AcDbLine
10
67.998552845133915
20
0.00010041802987374439
30
0
11
72.002052401896194
21
0.00011795813686782312
31
0
0
LINE
5
159
100
AcDbEntity
8
0
100
AcDbLine
10
40.705366843265992
20
34.473166722443203
30
0
11
46.207213938444326
21
34.473166722443203
31
0
0
LINE
5
160
100
AcDbEntity
8
0
100
AcDbLine
10
72.002052401896194
20
0.00011795813686782312
30
0
11
67.670041390147745
21
15.030142646574422
31
0
0
SPLINE
5
161
100
AcDbEntity
8
0
100
AcDbSpline
70
4
71
5
72
21
73
15
74
0
42
0.000000001
43
0.0000000001
44
0.0000000001
40
0
40
0
40
0
40
0
40
0
40
0
40
0.10000000000000001
40
0.20000000000000001
40
0.30000000000000004
40
0.40000000000000002
40
0.5
40
0.59999999999999998
40
0.69999999999999996
40
0.79999999999999993
40
0.89999999999999991
40
1
40
1
40
1
40
1
40
1
40
1
41
1
41
1
41
1
41
1
41
1
41
1
41
1
41
1
41
1
41
1
41
1
41
1
41
1
41
1
41
1
10
49.835359806935884
20
14.642268769344412
30
0
10
50.05374148971115
20
14.600101334102982
30
0
10
50.488270058425186
20
14.520098651223138
30
0
10
51.133371658650674
20
14.413087788349531
30
0
10
51.992038622644074
20
14.293396476043831
30
0
10
53.125334341677295
20
14.167149370988536
30
0
10
54.385704032446938
20
14.049118315600158
30
0
10
55.821257418961622
20
13.929864632360939
30
0
10
57.423788407634795
20
13.814165180112683
30
0
10
59.132113995946931
20
13.720290220820605
30
0
10
60.862144558466539
20
13.673052589471453
30
0
10
62.192634326889795
20
13.693739953050301
30
0
10
63.12825372413397
20
13.75198898815275
30
0
10
63.720000211028776
20
13.811182388481749
30
0
10
64.007873305455263
20
13.845869490340084
30
0
0
SPLINE
5
162
100
AcDbEntity
8
0
100
AcDbSpline
70
4
71
5
72
21
73
15
74
0
42
0.000000001
43
0.0000000001
44
0.0000000001
40
0
40
0
40
0
40
0
40
0
40
0
40
0.10000000000000001
40
0.20000000000000001
40
0.30000000000000004
40
0.40000000000000002
40
0.5
40
0.59999999999999998
40
0.69999999999999996
40
0.79999999999999993
40
0.89999999999999991
40
1
40
1
40
1
40
1
40
1
40
1
41
1
41
1
41
1
41
1
41
1
41
1
41
1
41
1
41
1
41
1
41
1
41
1
41
1
41
1
41
1
10
46.207213938444326
20
23.000000342726711
30
0
10
46.05259528810798
20
22.843782997752754
30
0
10
45.755562329706521
20
22.531871355453692
30
0
10
45.346623809981814
20
22.065573101924066
30
0
10
44.875817104887716
20
21.447031462936668
30
0
10
44.420375342474273
20
20.680173242494458
30
0
10
44.111744156449653
20
19.922079833905691
30
0
10
43.965309989533992
20
19.177249311274476
30
0
10
43.994269728371748
20
18.452706620018372
30
0
10
44.201051423654178
20
17.758734426029267
30
0
10
44.581241336814188
20
17.107726393631946
30
0
10
45.020050794655063
20
16.631299672481681
30
0
10
45.423370925264052
20
16.303575148069413
30
0
10
45.725139715133487
20
16.098891774832513
30
0
10
45.884246338594039
20
16.000000238418579
30
0
0
LINE
5
163
100
AcDbEntity
8
0
100
AcDbLine
10
67.739360278805236
20
21.269569613294056
30
0
11
75.000000596046448
21
18.000000268220901
31
0
0
SPLINE
5
164
100
AcDbEntity
8
0
100
AcDbSpline
70
4
71
5
72
26
73
20
74
0
42
0.000000001
43
0.0000000001
44
0.0000000001
40
0
40
0
40
0
40
0
40
0
40
0
40
0.066666666666666666
40
0.13333333333333333
40
0.20000000000000001
40
0.26666666666666666
40
0.33333333333333331
40
0.39999999999999997
40
0.46666666666666662
40
0.53333333333333333
40
0.59999999999999998
40
0.66666666666666663
40
0.73333333333333328
40
0.79999999999999993
40
0.86666666666666659
40
0.93333333333333324
40
1
40
1
40
1
40
1
40
1
40
1
41
1
41
1
41
1
41
1
41
1
41
1
41
1
41
1
41
1
41
1
41
1
41
1
41
1
41
1
41
1
41
1
41
1
41
1
41
1
41
1
10
67.739372165391572
20
21.269558432669484
30
0
10
67.692288153984151
20
21.326398658327545
30
0
10
67.602869516497151
20
21.437145700675259
30
0
10
67.482971343203673
20
21.594468694793861
30
0
10
67.326418801342925
20
21.789572742039368
30
0
10
67.016306120662676
20
22.021913387516229
30
0
10
66.486181457962019
20
22.251640995118503
30
0
10
65.707913633998743
20
22.475436944608667
30
0
10
64.703932441297894
20
22.682785065330641
30
0
10
63.52902082790051
20
22.859810581585947
30
0
10
62.250253008438811
20
22.993637986513313
30
0
10
60.929953543716032
20
23.076282254037608
30
0
10
59.605147865371052
20
23.109854087984107
30
0
10
58.290427618658136
20
23.104422930603445
30
0
10
56.985268828304747
20
23.074563151066464
30
0
10
55.679312951561066
20
23.036646471028249
30
0
10
54.622363087200043
20
23.012129193614935
30
0
10
53.816880987086968
20
23.002205651953112
30
0
10
53.273379484335834
20
23.000000342726707
30
0
10
53.000000268220901
20
23.000000342726707
30
0
0
LINE
5
165
100
AcDbEntity
8
0
100
AcDbLine
10
47.000000178813934
20
42.00000062584877
30
0
11
51.000000238418579
21
39.333333919445678
31
0
0
LINE
5
166
100
AcDbEntity
8
0
100
AcDbLine
10
75.000000596046448
20
18.000000268220901
30
0
11
74.159280877640313
21
16.133037730124737
31
0
0
LINE
5
167
100
AcDbEntity
8
0
100
AcDbLine
10
51.000000238418579
20
30.000000447034832
30
0
11
53.000000268220901
21
23.000000342726707
31
0
0
SPLINE
5
168
100
AcDbEntity
8
0
100
AcDbSpline
70
4
71
5
72
26
73
20
74
0
42
0.000000001
43
0.0000000001
44
0.0000000001
40
0
40
0
40
0
40
0
40
0
40
0
40
0.066666666666666666
40
0.13333333333333333
40
0.20000000000000001
40
0.26666666666666666
40
0.33333333333333331
40
0.39999999999999997
40
0.46666666666666662
40
0.53333333333333333
40
0.59999999999999998
40
0.66666666666666663
40
0.73333333333333328
40
0.79999999999999993
40
0.86666666666666659
40
0.93333333333333324
40
1
40
1
40
1
40
1
40
1
40
1
41
1
41
1
41
1
41
1
41
1
41
1
41
1
41
1
41
1
41
1
41
1
41
1
41
1
41
1
41
1
41
1
41
1
41
1
41
1
41
1
10
67.739372165391572
20
21.269558432669484
30
0
10
67.692288153984151
20
21.326398658327545
30
0
10
67.602869516497151
20
21.437145700675259
30
0
10
67.482971343203673
20
21.594468694793861
30
0
10
67.326418801342925
20
21.789572742039368
30
0
10
67.016306120662676
20
22.021913387516229
30
0
10
66.486181457962019
20
22.251640995118503
30
0
10
65.707913633998743
20
22.475436944608667
30
0
10
64.703932441297894
20
22.682785065330641
30
0
10
63.52902082790051
20
22.859810581585947
30
0
10
62.250253008438811
20
22.993637986513313
30
0
10
60.929953543716032
20
23.076282254037608
30
0
10
59.605147865371052
20
23.109854087984107
30
0
10
58.290427618658136
20
23.104422930603445
30
0
10
56.985268828304747
20
23.074563151066464
30
0
10
55.679312951561066
20
23.036646471028249
30
0
10
54.622363087200043
20
23.012129193614935
30
0
10
53.816880987086968
20
23.002205651953112
30
0
10
53.273379484335834
20
23.000000342726707
30
0
10
53.000000268220901
20
23.000000342726707
30
0
0
LINE
5
169
100
AcDbEntity
8
0
100
AcDbLine
10
40.705366843265992
20
34.473166722443203
30
0
11
46.207213938444326
21
34.473166722443203
31
0
0
LINE
5
170
100
AcDbEntity
8
0
100
AcDbLine
10
51.000000238418579
20
30.000000447034832
30
0
11
51.000000238418579
21
39.333333919445678
31
0
0
LINE
5
171
100
AcDbEntity
8
0
100
AcDbLine
10
46.207213938444326
20
34.473166722443203
30
0
11
46.207213938444326
21
23.000000342726711
31
0
0
SPLINE
5
172
100
AcDbEntity
8
0
100
AcDbSpline
70
4
71
5
72
21
73
15
74
0
42
0.000000001
43
0.0000000001
44
0.0000000001
40
0
40
0
40
0
40
0
40
0
40
0
40
0.10000000000000001
40
0.20000000000000001
40
0.30000000000000004
40
0.40000000000000002
40
0.5
40
0.59999999999999998
40
0.69999999999999996
40
0.79999999999999993
40
0.89999999999999991
40
1
40
1
40
1
40
1
40
1
40
1
41
1
41
1
41
1
41
1
41
1
41
1
41
1
41
1
41
1
41
1
41
1
41
1
41
1
41
1
41
1
10
46.207213938444326
20
23.000000342726711
30
0
10
46.05259528810798
20
22.843782997752754
30
0
10
45.755562329706521
20
22.531871355453692
30
0
10
45.346623809981814
20
22.065573101924066
30
0
10
44.875817104887716
20
21.447031462936668
30
0
10
44.420375342474273
20
20.680173242494458
30
0
10
44.111744156449653
20
19.922079833905691
30
0
10
43.965309989533992
20
19.177249311274476
30
0
10
43.994269728371748
20
18.452706620018372
30
0
10
44.201051423654178
20
17.758734426029267
30
0
10
44.581241336814188
20
17.107726393631946
30
0
10
45.020050794655063
20
16.631299672481681
30
0
10
45.423370925264052
20
16.303575148069413
30
0
10
45.725139715133487
20
16.098891774832513
30
0
10
45.884246338594039
20
16.000000238418579
30
0
0
LINE
5
173
100
AcDbEntity
8
0
100
AcDbLine
10
67.998552845133915
20
0.00010041802987374439
30
0
11
72.002052401896194
21
0.00011795813686782312
31
0
0
LINE
5
174
100
AcDbEntity
8
0
100
AcDbLine
10
67.739360278805236
20
21.269569613294056
30
0
11
75.000000596046448
21
18.000000268220901
31
0
0
LINE
5
175
100
AcDbEntity
8
0
100
AcDbLine
10
48.000800779096949
20
-0.03420345282172732
30
0
11
49.835359806935884
21
14.642268769344412
31
0
0
SPLINE
5
176
100
AcDbEntity
8
0
100
AcDbSpline
70
4
71
5
72
21
73
15
74
0
42
0.000000001
43
0.0000000001
44
0.0000000001
40
0
40
0
40
0
40
0
40
0
40
0
40
0.10000000000000001
40
0.20000000000000001
40
0.30000000000000004
40
0.40000000000000002
40
0.5
40
0.59999999999999998
40
0.69999999999999996
40
0.79999999999999993
40
0.89999999999999991
40
1
40
1
40
1
40
1
40
1
40
1
41
1
41
1
41
1
41
1
41
1
41
1
41
1
41
1
41
1
41
1
41
1
41
1
41
1
41
1
41
1
10
49.835359806935884
20
14.642268769344412
30
0
10
50.05374148971115
20
14.600101334102982
30
0
10
50.488270058425186
20
14.520098651223138
30
0
10
51.133371658650674
20
14.413087788349531
30
0
10
51.992038622644074
20
14.293396476043831
30
0
10
53.125334341677295
20
14.167149370988536
30
0
10
54.385704032446938
20
14.049118315600158
30
0
10
55.821257418961622
20
13.929864632360939
30
0
10
57.423788407634795
20
13.814165180112683
30
0
10
59.132113995946931
20
13.720290220820605
30
0
10
60.862144558466539
20
13.673052589471453
30
0
10
62.192634326889795
20
13.693739953050301
30
0
10
63.12825372413397
20
13.75198898815275
30
0
10
63.720000211028776
20
13.811182388481749
30
0
10
64.007873305455263
20
13.845869490340084
30
0
0
LINE
5
177
100
AcDbEntity
8
0
100
AcDbLine
10
43.87997087718901
20
-0.03420345282172798
30
0
11
48.000800779096949
21
-0.03420345282172732
31
0
0
LINE
5
178
100
AcDbEntity
8
0
100
AcDbLine
10
45.884246338594039
20
16.000000238418579
30
0
11
43.87997087718901
21
-0.03420345282172798
31
0
0
LINE
5
179
100
AcDbEntity
8
0
100
AcDbLine
10
47.000000178813934
20
39.267345444987491
30
0
11
47.000000178813934
21
42.00000062584877
31
0
0
LINE
5
180
100
AcDbEntity
8
0
100
AcDbLine
10
74.159280877640313
20
16.133037730124737
30
0
11
69.025793954496791
21
18.444719484379025
31
0
0
LINE
5
181
100
AcDbEntity
8
0
100
AcDbLine
10
47.000000178813934
20
39.267345444987491
30
0
11
47.000000178813934
21
42.00000062584877
31
0
0
LINE
5
182
100
AcDbEntity
8
0
100
AcDbLine
10
74.159280877640313
20
16.133037730124737
30
0
11
69.025793954496791
21
18.444719484379025
31
0
0
LINE
5
183
100
AcDbEntity
8
0
100
AcDbLine
10
46.207213938444326
20
34.473166722443203
30
0
11
46.207213938444326
21
23.000000342726711
31
0
0
LINE
5
184
100
AcDbEntity
8
0
100
AcDbLine
10
45.884246338594039
20
16.000000238418579
30
0
11
43.87997087718901
21
-0.03420345282172798
31
0
0
LINE
5
185
100
AcDbEntity
8
0
100
AcDbLine
10
40.025510678759318
20
37.872447544976566
30
0
11
40.705366843265992
21
34.473166722443203
31
0
0
LINE
5
186
100
AcDbEntity
8
0
100
AcDbLine
10
47.000000178813934
20
39.267345444987491
30
0
11
40.025510678759318
21
37.872447544976566
31
0
0
LINE
5
187
100
AcDbEntity
8
0
100
AcDbLine
10
40.025510678759318
20
37.872447544976566
30
0
11
40.705366843265992
21
34.473166722443203
31
0
0
LINE
5
188
100
AcDbEntity
8
0
100
AcDbLine
10
16.000000238418576
20
-14.999999552965168
30
0
11
18.000000268220901
21
-21.999999657273293
31
0
0
LINE
5
189
100
AcDbEntity
8
0
100
AcDbLine
10
40.000000596046448
20
-26.999999731779099
30
0
11
39.15928087764032
21
-28.866962269875263
31
0
0
SPLINE
5
190
100
AcDbEntity
8
0
100
AcDbSpline
70
4
71
5
72
21
73
15
74
0
42
0.000000001
43
0.0000000001
44
0.0000000001
40
0
40
0
40
0
40
0
40
0
40
0
40
0.10000000000000001
40
0.20000000000000001
40
0.30000000000000004
40
0.40000000000000002
40
0.5
40
0.59999999999999998
40
0.69999999999999996
40
0.79999999999999993
40
0.89999999999999991
40
1
40
1
40
1
40
1
40
1
40
1
41
1
41
1
41
1
41
1
41
1
41
1
41
1
41
1
41
1
41
1
41
1
41
1
41
1
41
1
41
1
10
32.670041390147745
20
-29.969857353425581
30
0
10
32.747132687963884
20
-29.914870608589364
30
0
10
32.896515768586362
20
-29.798706701141867
30
0
10
33.106192915308235
20
-29.605890081696145
30
0
10
33.356532578316525
20
-29.315699300321874
30
0
10
33.617941827292832
20
-28.919622765858929
30
0
10
33.82415309903373
20
-28.516819630588692
30
0
10
33.972329689946839
20
-28.131830103763356
30
0
10
34.062293343230422
20
-27.78148941871585
30
0
10
34.1007810842613
20
-27.465675211861576
30
0
10
34.099949424209321
20
-27.169821771842226
30
0
10
34.078016532199477
20
-26.933510241576016
30
0
10
34.054234452407208
20
-26.748440626984923
30
0
10
34.035717638959483
20
-26.620438064491651
30
0
10
34.025793954496784
20
-26.555280515620975
30
0
0
LINE
5
191
100
AcDbEntity
8
0
100
AcDbLine
10
8.879970877189006
20
-45.034203452821728
30
0
11
13.000800779096949
21
-45.034203452821728
31
0
0
LINE
5
192
100
AcDbEntity
8
0
100
AcDbLine
10
13.000800779096949
20
-45.034203452821728
30
0
11
14.835359806935884
21
-30.357731230655588
31
0
0
LINE
5
193
100
AcDbEntity
8
0
100
AcDbLine
10
5.705366843265991
20
-10.526833277556795
30
0
11
5.0255106787593178
21
-7.1275524550234337
31
0
0
LINE
5
194
100
AcDbEntity
8
0
100
AcDbLine
10
5.705366843265991
20
-10.526833277556795
30
0
11
5.0255106787593178
21
-7.1275524550234337
31
0
0
LINE
5
195
100
AcDbEntity
8
0
100
AcDbLine
10
29.007873305455259
20
-31.154130509659915
30
0
11
32.998552845133915
21
-44.999899581970126
31
0
0
SPLINE
5
196
100
AcDbEntity
8
0
100
AcDbSpline
70
4
71
5
72
21
73
15
74
0
42
0.000000001
43
0.0000000001
44
0.0000000001
40
0
40
0
40
0
40
0
40
0
40
0
40
0.10000000000000001
40
0.20000000000000001
40
0.30000000000000004
40
0.40000000000000002
40
0.5
40
0.59999999999999998
40
0.69999999999999996
40
0.79999999999999993
40
0.89999999999999991
40
1
40
1
40
1
40
1
40
1
40
1
41
1
41
1
41
1
41
1
41
1
41
1
41
1
41
1
41
1
41
1
41
1
41
1
41
1
41
1
41
1
10
32.670041390147745
20
-29.969857353425581
30
0
10
32.747132687963884
20
-29.914870608589364
30
0
10
32.896515768586362
20
-29.798706701141867
30
0
10
33.106192915308235
20
-29.605890081696145
30
0
10
33.356532578316525
20
-29.315699300321874
30
0
10
33.617941827292832
20
-28.919622765858929
30
0
10
33.82415309903373
20
-28.516819630588692
30
0
10
33.972329689946839
20
-28.131830103763356
30
0
10
34.062293343230422
20
-27.78148941871585
30
0
10
34.1007810842613
20
-27.465675211861576
30
0
10
34.099949424209321
20
-27.169821771842226
30
0
10
34.078016532199477
20
-26.933510241576016
30
0
10
34.054234452407208
20
-26.748440626984923
30
0
10
34.035717638959483
20
-26.620438064491651
30
0
10
34.025793954496784
20
-26.555280515620975
30
0
0
LINE
5
197
100
AcDbEntity
8
0
100
AcDbLine
10
12.000000178813934
20
-2.9999993741512299
30
0
11
16.000000238418576
21
-5.666666080554319
31
0
0
LINE
5
198
100
AcDbEntity
8
0
100
AcDbLine
10
37.002052401896186
20
-44.999882041863131
30
0
11
32.670041390147745
21
-29.969857353425581
31
0
0
LINE
5
199
100
AcDbEntity
8
0
100
AcDbLine
10
16.000000238418576
20
-14.999999552965168
30
0
11
16.000000238418576
21
-5.666666080554319
31
0
0
LINE
5
200
100
AcDbEntity
8
0
100
AcDbLine
10
12.000000178813934
20
-5.7326545550125108
30
0
11
5.0255106787593178
21
-7.1275524550234337
31
0
0
LINE
5
201
100
AcDbEntity
8
0
100
AcDbLine
10
29.007873305455259
20
-31.154130509659915
30
0
11
32.998552845133915
21
-44.999899581970126
31
0
0
LINE
5
202
100
AcDbEntity
8
0
100
AcDbLine
10
32.998552845133915
20
-44.999899581970126
30
0
11
37.002052401896186
21
-44.999882041863131
31
0
0
LINE
5
203
100
AcDbEntity
8
0
100
AcDbLine
10
5.705366843265991
20
-10.526833277556795
30
0
11
11.207213938444321
21
-10.526833277556795
31
0
0
LINE
5
204
100
AcDbEntity
8
0
100
AcDbLine
10
37.002052401896186
20
-44.999882041863131
30
0
11
32.670041390147745
21
-29.969857353425581
31
0
0
SPLINE
5
205
100
AcDbEntity
8
0
100
AcDbSpline
70
4
71
5
72
21
73
15
74
0
42
0.000000001
43
0.0000000001
44
0.0000000001
40
0
40
0
40
0
40
0
40
0
40
0
40
0.10000000000000001
40
0.20000000000000001
40
0.30000000000000004
40
0.40000000000000002
40
0.5
40
0.59999999999999998
40
0.69999999999999996
40
0.79999999999999993
40
0.89999999999999991
40
1
40
1
40
1
40
1
40
1
40
1
41
1
41
1
41
1
41
1
41
1
41
1
41
1
41
1
41
1
41
1
41
1
41
1
41
1
41
1
41
1
10
14.835359806935884
20
-30.357731230655588
30
0
10
15.053741489711152
20
-30.399898665897016
30
0
10
15.488270058425135
20
-30.479901348776899
30
0
10
16.133371658650258
20
-30.586912211650823
30
0
10
16.992038622643392
20
-30.706603523956769
30
0
10
18.125334341676833
20
-30.832850629011851
30
0
10
19.38570403244681
20
-30.950881684399878
30
0
10
20.821257418961856
20
-31.070135367638947
30
0
10
22.423788407635161
20
-31.185834819887322
30
0
10
24.132113995947183
20
-31.27970977917963
30
0
10
25.862144558466596
20
-31.326947410528881
30
0
10
27.192634326889742
20
-31.306260046949951
30
0
10
28.128253724133945
20
-31.248011011847314
30
0
10
28.720000211028772
20
-31.188817611518253
30
0
10
29.007873305455259
20
-31.154130509659915
30
0
0
SPLINE
5
206
100
AcDbEntity
8
0
100
AcDbSpline
70
4
71
5
72
21
73
15
74
0
42
0.000000001
43
0.0000000001
44
0.0000000001
40
0
40
0
40
0
40
0
40
0
40
0
40
0.10000000000000001
40
0.20000000000000001
40
0.30000000000000004
40
0.40000000000000002
40
0.5
40
0.59999999999999998
40
0.69999999999999996
40
0.79999999999999993
40
0.89999999999999991
40
1
40
1
40
1
40
1
40
1
40
1
41
1
41
1
41
1
41
1
41
1
41
1
41
1
41
1
41
1
41
1
41
1
41
1
41
1
41
1
41
1
10
11.207213938444323
20
-21.999999657273289
30
0
10
11.0525952881097
20
-22.156217002241117
30
0
10
10.755562329711159
20
-22.468128644529731
30
0
10
10.346623809989255
20
-22.934426898049146
30
0
10
9.8758171048961199
20
-23.552968537032836
30
0
10
9.4203753424807086
20
-24.319826757481767
30
0
10
9.1117441564528683
20
-25.077920166082276
30
0
10
8.9653099895342478
20
-25.822750688724625
30
0
10
8.9942697283702362
20
-26.547293379987252
30
0
10
9.201051423652288
20
-27.241265573977632
30
0
10
9.5812413368129334
20
-27.892273606372481
30
0
10
10.020050794654567
20
-28.368700327519957
30
0
10
10.423370925263955
20
-28.696424851930871
30
0
10
10.725139715133484
20
-28.901108225167484
30
0
10
10.884246338594037
20
-28.999999761581421
30
0
0
LINE
5
207
100
AcDbEntity
8
0
100
AcDbLine
10
32.739360278805236
20
-23.730430386705944
30
0
11
40.000000596046448
21
-26.999999731779099
31
0
0
SPLINE
5
208
100
AcDbEntity
8
0
100
AcDbSpline
70
4
71
5
72
26
73
20
74
0
42
0.000000001
43
0.0000000001
44
0.0000000001
40
0
40
0
40
0
40
0
40
0
40
0
40
0.066666666666666666
40
0.13333333333333333
40
0.20000000000000001
40
0.26666666666666666
40
0.33333333333333331
40
0.39999999999999997
40
0.46666666666666662
40
0.53333333333333333
40
0.59999999999999998
40
0.66666666666666663
40
0.73333333333333328
40
0.79999999999999993
40
0.86666666666666659
40
0.93333333333333324
40
1
40
1
40
1
40
1
40
1
40
1
41
1
41
1
41
1
41
1
41
1
41
1
41
1
41
1
41
1
41
1
41
1
41
1
41
1
41
1
41
1
41
1
41
1
41
1
41
1
41
1
10
32.739372165391572
20
-23.730441567330516
30
0
10
32.692288153984144
20
-23.673601341672455
30
0
10
32.602869516497094
20
-23.562854299324837
30
0
10
32.482971343203239
20
-23.4055313052068
30
0
10
32.326418801342314
20
-23.210427257961591
30
0
10
32.016306120662712
20
-22.978086612483743
30
0
10
31.486181457962729
20
-22.748359004880264
30
0
10
30.70791363399983
20
-22.524563055389301
30
0
10
29.703932441298981
20
-22.317214934667291
30
0
10
28.529020827901157
20
-22.140189418412753
30
0
10
27.250253008438882
20
-22.006362013486537
30
0
10
25.929953543715616
20
-21.923717745963231
30
0
10
24.605147865370473
20
-21.890145912017054
30
0
10
23.290427618657649
20
-21.895577069397561
30
0
10
21.985268828304491
20
-21.925436848934105
30
0
10
20.67931295156103
20
-21.963353528971865
30
0
10
19.622363087200082
20
-21.987870806385004
30
0
10
18.816880987086964
20
-21.997794348046877
30
0
10
18.273379484335827
20
-21.999999657273293
30
0
10
18.000000268220901
20
-21.999999657273293
30
0
0
LINE
5
209
100
AcDbEntity
8
0
100
AcDbLine
10
12.000000178813934
20
-2.9999993741512299
30
0
11
16.000000238418576
21
-5.666666080554319
31
0
0
LINE
5
210
100
AcDbEntity
8
0
100
AcDbLine
10
40.000000596046448
20
-26.999999731779099
30
0
11
39.15928087764032
21
-28.866962269875263
31
0
0
LINE
5
211
100
AcDbEntity
8
0
100
AcDbLine
10
16.000000238418576
20
-14.999999552965168
30
0
11
18.000000268220901
21
-21.999999657273293
31
0
0
SPLINE
5
212
100
AcDbEntity
8
0
100
AcDbSpline
70
4
71
5
72
26
73
20
74
0
42
0.000000001
43
0.0000000001
44
0.0000000001
40
0
40
0
40
0
40
0
40
0
40
0
40
0.066666666666666666
40
0.13333333333333333
40
0.20000000000000001
40
0.26666666666666666
40
0.33333333333333331
40
0.39999999999999997
40
0.46666666666666662
40
0.53333333333333333
40
0.59999999999999998
40
0.66666666666666663
40
0.73333333333333328
40
0.79999999999999993
40
0.86666666666666659
40
0.93333333333333324
40
1
40
1
40
1
40
1
40
1
40
1
41
1
41
1
41
1
41
1
41
1
41
1
41
1
41
1
41
1
41
1
41
1
41
1
41
1
41
1
41
1
41
1
41
1
41
1
41
1
41
1
10
32.739372165391572
20
-23.730441567330516
30
0
10
32.692288153984144
20
-23.673601341672455
30
0
10
32.602869516497094
20
-23.562854299324837
30
0
10
32.482971343203239
20
-23.4055313052068
30
0
10
32.326418801342314
20
-23.210427257961591
30
0
10
32.016306120662712
20
-22.978086612483743
30
0
10
31.486181457962729
20
-22.748359004880264
30
0
10
30.70791363399983
20
-22.524563055389301
30
0
10
29.703932441298981
20
-22.317214934667291
30
0
10
28.529020827901157
20
-22.140189418412753
30
0
10
27.250253008438882
20
-22.006362013486537
30
0
10
25.929953543715616
20
-21.923717745963231
30
0
10
24.605147865370473
20
-21.890145912017054
30
0
10
23.290427618657649
20
-21.895577069397561
30
0
10
21.985268828304491
20
-21.925436848934105
30
0
10
20.67931295156103
20
-21.963353528971865
30
0
10
19.622363087200082
20
-21.987870806385004
30
0
10
18.816880987086964
20
-21.997794348046877
30
0
10
18.273379484335827
20
-21.999999657273293
30
0
10
18.000000268220901
20
-21.999999657273293
30
0
0
LINE
5
213
100
AcDbEntity
8
0
100
AcDbLine
10
5.705366843265991
20
-10.526833277556795
30
0
11
11.207213938444321
21
-10.526833277556795
31
0
0
LINE
5
214
100
AcDbEntity
8
0
100
AcDbLine
10
16.000000238418576
20
-14.999999552965168
30
0
11
16.000000238418576
21
-5.666666080554319
31
0
0
LINE
5
215
100
AcDbEntity
8
0
100
AcDbLine
10
11.207213938444321
20
-10.526833277556795
30
0
11
11.207213938444323
21
-21.999999657273289
31
0
0
SPLINE
5
216
100
AcDbEntity
8
0
100
AcDbSpline
70
4
71
5
72
21
73
15
74
0
42
0.000000001
43
0.0000000001
44
0.0000000001
40
0
40
0
40
0
40
0
40
0
40
0
40
0.10000000000000001
40
0.20000000000000001
40
0.30000000000000004
40
0.40000000000000002
40
0.5
40
0.59999999999999998
40
0.69999999999999996
40
0.79999999999999993
40
0.89999999999999991
40
1
40
1
40
1
40
1
40
1
40
1
41
1
41
1
41
1
41
1
41
1
41
1
41
1
41
1
41
1
41
1
41
1
41
1
41
1
41
1
41
1
10
11.207213938444323
20
-21.999999657273289
30
0
10
11.0525952881097
20
-22.156217002241117
30
0
10
10.755562329711159
20
-22.468128644529731
30
0
10
10.346623809989255
20
-22.934426898049146
30
0
10
9.8758171048961199
20
-23.552968537032836
30
0
10
9.4203753424807086
20
-24.319826757481767
30
0
10
9.1117441564528683
20
-25.077920166082276
30
0
10
8.9653099895342478
20
-25.822750688724625
30
0
10
8.9942697283702362
20
-26.547293379987252
30
0
10
9.201051423652288
20
-27.241265573977632
30
0
10
9.5812413368129334
20
-27.892273606372481
30
0
10
10.020050794654567
20
-28.368700327519957
30
0
10
10.423370925263955
20
-28.696424851930871
30
0
10
10.725139715133484
20
-28.901108225167484
30
0
10
10.884246338594037
20
-28.999999761581421
30
0
0
LINE
5
217
100
AcDbEntity
8
0
100
AcDbLine
10
32.998552845133915
20
-44.999899581970126
30
0
11
37.002052401896186
21
-44.999882041863131
31
0
0
LINE
5
218
100
AcDbEntity
8
0
100
AcDbLine
10
32.739360278805236
20
-23.730430386705944
30
0
11
40.000000596046448
21
-26.999999731779099
31
0
0
LINE
5
219
100
AcDbEntity
8
0
100
AcDbLine
10
13.000800779096949
20
-45.034203452821728
30
0
11
14.835359806935884
21
-30.357731230655588
31
0
0
SPLINE
5
220
100
AcDbEntity
8
0
100
AcDbSpline
70
4
71
5
72
21
73
15
74
0
42
0.000000001
43
0.0000000001
44
0.0000000001
40
0
40
0
40
0
40
0
40
0
40
0
40
0.10000000000000001
40
0.20000000000000001
40
0.30000000000000004
40
0.40000000000000002
40
0.5
40
0.59999999999999998
40
0.69999999999999996
40
0.79999999999999993
40
0.89999999999999991
40
1
40
1
40
1
40
1
40
1
40
1
41
1
41
1
41
1
41
1
41
1
41
1
41
1
41
1
41
1
41
1
41
1
41
1
41
1
41
1
41
1
10
14.835359806935884
20
-30.357731230655588
30
0
10
15.053741489711152
20
-30.399898665897016
30
0
10
15.488270058425135
20
-30.479901348776899
30
0
10
16.133371658650258
20
-30.586912211650823
30
0
10
16.992038622643392
20
-30.706603523956769
30
0
10
18.125334341676833
20
-30.832850629011851
30
0
10
19.38570403244681
20
-30.950881684399878
30
0
10
20.821257418961856
20
-31.070135367638947
30
0
10
22.423788407635161
20
-31.185834819887322
30
0
10
24.132113995947183
20
-31.27970977917963
30
0
10
25.862144558466596
20
-31.326947410528881
30
0
10
27.192634326889742
20
-31.306260046949951
30
0
10
28.128253724133945
20
-31.248011011847314
30
0
10
28.720000211028772
20
-31.188817611518253
30
0
10
29.007873305455259
20
-31.154130509659915
30
0
0
LINE
5
221
100
AcDbEntity
8
0
100
AcDbLine
10
8.879970877189006
20
-45.034203452821728
30
0
11
13.000800779096949
21
-45.034203452821728
31
0
0
LINE
5
222
100
AcDbEntity
8
0
100
AcDbLine
10
10.884246338594037
20
-28.999999761581421
30
0
11
8.879970877189006
21
-45.034203452821728
31
0
0
LINE
5
223
100
AcDbEntity
8
0
100
AcDbLine
10
12.000000178813934
20
-5.7326545550125108
30
0
11
12.000000178813934
21
-2.9999993741512299
31
0
0
LINE
5
224
100
AcDbEntity
8
0
100
AcDbLine
10
39.15928087764032
20
-28.866962269875263
30
0
11
34.025793954496784
21
-26.555280515620975
31
0
0
LINE
5
225
100
AcDbEntity
8
0
100
AcDbLine
10
12.000000178813934
20
-5.7326545550125108
30
0
11
12.000000178813934
21
-2.9999993741512299
31
0
0
LINE
5
226
100
AcDbEntity
8
0
100
AcDbLine
10
39.15928087764032
20
-28.866962269875263
30
0
11
34.025793954496784
21
-26.555280515620975
31
0
0
LINE
5
227
100
AcDbEntity
8
0
100
AcDbLine
10
11.207213938444321
20
-10.526833277556795
30
0
11
11.207213938444323
21
-21.999999657273289
31
0
0
LINE
5
228
100
AcDbEntity
8
0
100
AcDbLine
10
10.884246338594037
20
-28.999999761581421
30
0
11
8.879970877189006
21
-45.034203452821728
31
0
0
LINE
5
229
100
AcDbEntity
8
0
100
AcDbLine
10
5.0255106787593178
20
-7.1275524550234337
30
0
11
5.705366843265991
21
-10.526833277556795
31
0
0
LINE
5
230
100
AcDbEntity
8
0
100
AcDbLine
10
12.000000178813934
20
-5.7326545550125108
30
0
11
5.0255106787593178
21
-7.1275524550234337
31
0
0
LINE
5
231
100
AcDbEntity
8
0
100
AcDbLine
10
5.0255106787593178
20
-7.1275524550234337
30
0
11
5.705366843265991
21
-10.526833277556795
31
0
0
LINE
5
232
100
AcDbEntity
8
0
100
AcDbLine
10
56.969682214662271
20
-17.356590126265829
30
0
11
58.969682244464593
21
-24.356590230573953
31
0
0
LINE
5
233
100
AcDbEntity
8
0
100
AcDbLine
10
80.969682572290139
20
-29.356590305079759
30
0
11
80.128962853884005
21
-31.223552843175923
31
0
0
SPLINE
5
234
100
AcDbEntity
8
0
100
AcDbSpline
70
4
71
5
72
21
73
15
74
0
42
0.000000001
43
0.0000000001
44
0.0000000001
40
0
40
0
40
0
40
0
40
0
40
0
40
0.10000000000000001
40
0.20000000000000001
40
0.30000000000000004
40
0.40000000000000002
40
0.5
40
0.59999999999999998
40
0.69999999999999996
40
0.79999999999999993
40
0.89999999999999991
40
1
40
1
40
1
40
1
40
1
40
1
41
1
41
1
41
1
41
1
41
1
41
1
41
1
41
1
41
1
41
1
41
1
41
1
41
1
41
1
41
1
10
73.639723366391436
20
-32.326447926726239
30
0
10
73.716814664207561
20
-32.271461181890025
30
0
10
73.866197744830103
20
-32.155297274442518
30
0
10
74.075874891552274
20
-31.962480654996735
30
0
10
74.326214554560678
20
-31.67228987362239
30
0
10
74.587623803537113
20
-31.276213339159391
30
0
10
74.793835075277826
20
-30.873410203889197
30
0
10
74.942011666190609
20
-30.488420677063989
30
0
10
75.031975319473972
20
-30.138079992016579
30
0
10
75.070463060505034
20
-29.822265785162298
30
0
10
75.069631400453261
20
-29.526412345142909
30
0
10
75.047698508443375
20
-29.290100814876684
30
0
10
75.023916428650949
20
-29.10503120028558
30
0
10
75.005399615203174
20
-28.977028637792309
30
0
10
74.995475930740469
20
-28.911871088921636
30
0
0
LINE
5
235
100
AcDbEntity
8
0
100
AcDbLine
10
49.849652853432701
20
-47.390794026122393
30
0
11
53.97048275534064
21
-47.390794026122393
31
0
0
LINE
5
236
100
AcDbEntity
8
0
100
AcDbLine
10
53.97048275534064
20
-47.390794026122393
30
0
11
55.805041783179576
21
-32.714321803956253
31
0
0
LINE
5
237
100
AcDbEntity
8
0
100
AcDbLine
10
46.675048819509684
20
-12.883423850857456
30
0
11
45.995192655003009
21
-9.4841430283240946
31
0
0
LINE
5
238
100
AcDbEntity
8
0
100
AcDbLine
10
46.675048819509684
20
-12.883423850857456
30
0
11
45.995192655003009
21
-9.4841430283240946
31
0
0
LINE
5
239
100
AcDbEntity
8
0
100
AcDbLine
10
69.977555281698955
20
-33.510721082960579
30
0
11
73.968234821377607
21
-47.356490155270791
31
0
0
SPLINE
5
240
100
AcDbEntity
8
0
100
AcDbSpline
70
4
71
5
72
21
73
15
74
0
42
0.000000001
43
0.0000000001
44
0.0000000001
40
0
40
0
40
0
40
0
40
0
40
0
40
0.10000000000000001
40
0.20000000000000001
40
0.30000000000000004
40
0.40000000000000002
40
0.5
40
0.59999999999999998
40
0.69999999999999996
40
0.79999999999999993
40
0.89999999999999991
40
1
40
1
40
1
40
1
40
1
40
1
41
1
41
1
41
1
41
1
41
1
41
1
41
1
41
1
41
1
41
1
41
1
41
1
41
1
41
1
41
1
10
73.639723366391436
20
-32.326447926726239
30
0
10
73.716814664207561
20
-32.271461181890025
30
0
10
73.866197744830103
20
-32.155297274442518
30
0
10
74.075874891552274
20
-31.962480654996735
30
0
10
74.326214554560678
20
-31.67228987362239
30
0
10
74.587623803537113
20
-31.276213339159391
30
0
10
74.793835075277826
20
-30.873410203889197
30
0
10
74.942011666190609
20
-30.488420677063989
30
0
10
75.031975319473972
20
-30.138079992016579
30
0
10
75.070463060505034
20
-29.822265785162298
30
0
10
75.069631400453261
20
-29.526412345142909
30
0
10
75.047698508443375
20
-29.290100814876684
30
0
10
75.023916428650949
20
-29.10503120028558
30
0
10
75.005399615203174
20
-28.977028637792309
30
0
10
74.995475930740469
20
-28.911871088921636
30
0
0
LINE
5
241
100
AcDbEntity
8
0
100
AcDbLine
10
52.969682155057626
20
-5.3565899474518908
30
0
11
56.969682214662271
21
-8.023256653854979
31
0
0
LINE
5
242
100
AcDbEntity
8
0
100
AcDbLine
10
77.971734378139871
20
-47.356472615163796
30
0
11
73.639723366391436
21
-32.326447926726239
31
0
0
LINE
5
243
100
AcDbEntity
8
0
100
AcDbLine
10
56.969682214662271
20
-17.356590126265829
30
0
11
56.969682214662271
21
-8.023256653854979
31
0
0
LINE
5
244
100
AcDbEntity
8
0
100
AcDbLine
10
52.969682155057626
20
-8.0892451283131717
30
0
11
45.995192655003009
21
-9.4841430283240946
31
0
0
LINE
5
245
100
AcDbEntity
8
0
100
AcDbLine
10
69.977555281698955
20
-33.510721082960579
30
0
11
73.968234821377607
21
-47.356490155270791
31
0
0
LINE
5
246
100
AcDbEntity
8
0
100
AcDbLine
10
73.968234821377607
20
-47.356490155270791
30
0
11
77.971734378139871
21
-47.356472615163796
31
0
0
LINE
5
247
100
AcDbEntity
8
0
100
AcDbLine
10
46.675048819509684
20
-12.883423850857456
30
0
11
52.176895914688011
21
-12.883423850857456
31
0
0
LINE
5
248
100
AcDbEntity
8
0
100
AcDbLine
10
77.971734378139871
20
-47.356472615163796
30
0
11
73.639723366391436
21
-32.326447926726239
31
0
0
SPLINE
5
249
100
AcDbEntity
8
0
100
AcDbSpline
70
4
71
5
72
21
73
15
74
0
42
0.000000001
43
0.0000000001
44
0.0000000001
40
0
40
0
40
0
40
0
40
0
40
0
40
0.10000000000000001
40
0.20000000000000001
40
0.30000000000000004
40
0.40000000000000002
40
0.5
40
0.59999999999999998
40
0.69999999999999996
40
0.79999999999999993
40
0.89999999999999991
40
1
40
1
40
1
40
1
40
1
40
1
41
1
41
1
41
1
41
1
41
1
41
1
41
1
41
1
41
1
41
1
41
1
41
1
41
1
41
1
41
1
10
55.805041783179576
20
-32.714321803956253
30
0
10
56.023423465954842
20
-32.756489239197677
30
0
10
56.45795203466907
20
-32.836491922077542
30
0
10
57.103053634895502
20
-32.943502784951484
30
0
10
57.961720598889954
20
-33.063194097257465
30
0
10
59.095016317922948
20
-33.189441202312622
30
0
10
60.355386008691255
20
-33.307472257700667
30
0
10
61.79093939520439
20
-33.426725940939477
30
0
10
63.393470383876632
20
-33.542425393187486
30
0
10
65.101795972188711
20
-33.636300352479616
30
0
10
66.831826534708966
20
-33.68353798382897
30
0
10
68.162316303132997
20
-33.662850620250346
30
0
10
69.097935700377576
20
-33.604601585147911
30
0
10
69.689682187272467
20
-33.545408184818911
30
0
10
69.977555281698955
20
-33.510721082960579
30
0
0
SPLINE
5
250
100
AcDbEntity
8
0
100
AcDbSpline
70
4
71
5
72
21
73
15
74
0
42
0.000000001
43
0.0000000001
44
0.0000000001
40
0
40
0
40
0
40
0
40
0
40
0
40
0.10000000000000001
40
0.20000000000000001
40
0.30000000000000004
40
0.40000000000000002
40
0.5
40
0.59999999999999998
40
0.69999999999999996
40
0.79999999999999993
40
0.89999999999999991
40
1
40
1
40
1
40
1
40
1
40
1
41
1
41
1
41
1
41
1
41
1
41
1
41
1
41
1
41
1
41
1
41
1
41
1
41
1
41
1
41
1
10
52.176895914688011
20
-24.35659023057395
30
0
10
52.022277264350038
20
-24.51280757554661
30
0
10
51.725244305945772
20
-24.824719217843505
30
0
10
51.316305786218322
20
-25.291017471371063
30
0
10
50.845499081123208
20
-25.909559110357762
30
0
10
50.390057318711492
20
-26.676417330801382
30
0
10
50.081426132690012
20
-27.434510739392486
30
0
10
49.934991965777414
20
-28.179341262025943
30
0
10
49.963951704617003
20
-28.903883953283504
30
0
10
50.170733399899909
20
-29.597856147273113
30
0
10
50.550923313059258
20
-30.248864179670019
30
0
10
50.989732770899309
20
-30.725290900819555
30
0
10
51.393052901507836
20
-31.053015425231344
30
0
10
51.694821691377172
20
-31.257698798468144
30
0
10
51.853928314837731
20
-31.356590334882082
30
0
0
LINE
5
251
100
AcDbEntity
8
0
100
AcDbLine
10
73.709042255048928
20
-26.087020960006605
30
0
11
80.969682572290139
21
-29.356590305079759
31
0
0
SPLINE
5
252
100
AcDbEntity
8
0
100
AcDbSpline
70
4
71
5
72
26
73
20
74
0
42
0.000000001
43
0.0000000001
44
0.0000000001
40
0
40
0
40
0
40
0
40
0
40
0
40
0.066666666666666666
40
0.13333333333333333
40
0.20000000000000001
40
0.26666666666666666
40
0.33333333333333331
40
0.39999999999999997
40
0.46666666666666662
40
0.53333333333333333
40
0.59999999999999998
40
0.66666666666666663
40
0.73333333333333328
40
0.79999999999999993
40
0.86666666666666659
40
0.93333333333333324
40
1
40
1
40
1
40
1
40
1
40
1
41
1
41
1
41
1
41
1
41
1
41
1
41
1
41
1
41
1
41
1
41
1
41
1
41
1
41
1
41
1
41
1
41
1
41
1
41
1
41
1
10
73.709054141635264
20
-26.087032140631177
30
0
10
73.661970130227829
20
-26.030191914973116
30
0
10
73.572551492740814
20
-25.919444872625505
30
0
10
73.452653319447393
20
-25.762121878507514
30
0
10
73.296100777586759
20
-25.56701783126233
30
0
10
72.985988096906468
20
-25.334677185784432
30
0
10
72.455863434205256
20
-25.104949578180733
30
0
10
71.677595610241482
20
-24.881153628689582
30
0
10
70.673614417540506
20
-24.673805507967494
30
0
10
69.498702804143463
20
-24.496779991713083
30
0
10
68.219934984682382
20
-24.362952586787124
30
0
10
66.899635519960214
20
-24.280308319264144
30
0
10
65.57482984161561
20
-24.246736485318216
30
0
10
64.260109594902744
20
-24.252167642698819
30
0
10
62.954950804549163
20
-24.282027422235281
30
0
10
61.648994927805141
20
-24.319944102272835
30
0
10
60.592045063443891
20
-24.344461379685796
30
0
10
59.786562963330695
20
-24.354384921347567
30
0
10
59.243061460579518
20
-24.356590230573953
30
0
10
58.969682244464593
20
-24.356590230573953
30
0
0
LINE
5
253
100
AcDbEntity
8
0
100
AcDbLine
10
52.969682155057626
20
-5.3565899474518908
30
0
11
56.969682214662271
21
-8.023256653854979
31
0
0
LINE
5
254
100
AcDbEntity
8
0
100
AcDbLine
10
80.969682572290139
20
-29.356590305079759
30
0
11
80.128962853884005
21
-31.223552843175923
31
0
0
LINE
5
255
100
AcDbEntity
8
0
100
AcDbLine
10
56.969682214662271
20
-17.356590126265829
30
0
11
58.969682244464593
21
-24.356590230573953
31
0
0
SPLINE
5
256
100
AcDbEntity
8
0
100
AcDbSpline
70
4
71
5
72
26
73
20
74
0
42
0.000000001
43
0.0000000001
44
0.0000000001
40
0
40
0
40
0
40
0
40
0
40
0
40
0.066666666666666666
40
0.13333333333333333
40
0.20000000000000001
40
0.26666666666666666
40
0.33333333333333331
40
0.39999999999999997
40
0.46666666666666662
40
0.53333333333333333
40
0.59999999999999998
40
0.66666666666666663
40
0.73333333333333328
40
0.79999999999999993
40
0.86666666666666659
40
0.93333333333333324
40
1
40
1
40
1
40
1
40
1
40
1
41
1
41
1
41
1
41
1
41
1
41
1
41
1
41
1
41
1
41
1
41
1
41
1
41
1
41
1
41
1
41
1
41
1
41
1
41
1
41
1
10
73.709054141635264
20
-26.087032140631177
30
0
10
73.661970130227829
20
-26.030191914973116
30
0
10
73.572551492740814
20
-25.919444872625505
30
0
10
73.452653319447393
20
-25.762121878507514
30
0
10
73.296100777586759
20
-25.56701783126233
30
0
10
72.985988096906468
20
-25.334677185784432
30
0
10
72.455863434205256
20
-25.104949578180733
30
0
10
71.677595610241482
20
-24.881153628689582
30
0
10
70.673614417540506
20
-24.673805507967494
30
0
10
69.498702804143463
20
-24.496779991713083
30
0
10
68.219934984682382
20
-24.362952586787124
30
0
10
66.899635519960214
20
-24.280308319264144
30
0
10
65.57482984161561
20
-24.246736485318216
30
0
10
64.260109594902744
20
-24.252167642698819
30
0
10
62.954950804549163
20
-24.282027422235281
30
0
10
61.648994927805141
20
-24.319944102272835
30
0
10
60.592045063443891
20
-24.344461379685796
30
0
10
59.786562963330695
20
-24.354384921347567
30
0
10
59.243061460579518
20
-24.356590230573953
30
0
10
58.969682244464593
20
-24.356590230573953
30
0
0
LINE
5
257
100
AcDbEntity
8
0
100
AcDbLine
10
46.675048819509684
20
-12.883423850857456
30
0
11
52.176895914688011
21
-12.883423850857456
31
0
0
LINE
5
258
100
AcDbEntity
8
0
100
AcDbLine
10
56.969682214662271
20
-17.356590126265829
30
0
11
56.969682214662271
21
-8.023256653854979
31
0
0
LINE
5
259
100
AcDbEntity
8
0
100
AcDbLine
10
52.176895914688011
20
-12.883423850857456
30
0
11
52.176895914688011
21
-24.35659023057395
31
0
0
SPLINE
5
260
100
AcDbEntity
8
0
100
AcDbSpline
70
4
71
5
72
21
73
15
74
0
42
0.000000001
43
0.0000000001
44
0.0000000001
40
0
40
0
40
0
40
0
40
0
40
0
40
0.10000000000000001
40
0.20000000000000001
40
0.30000000000000004
40
0.40000000000000002
40
0.5
40
0.59999999999999998
40
0.69999999999999996
40
0.79999999999999993
40
0.89999999999999991
40
1
40
1
40
1
40
1
40
1
40
1
41
1
41
1
41
1
41
1
41
1
41
1
41
1
41
1
41
1
41
1
41
1
41
1
41
1
41
1
41
1
10
52.176895914688011
20
-24.35659023057395
30
0
10
52.022277264350038
20
-24.51280757554661
30
0
10
51.725244305945772
20
-24.824719217843505
30
0
10
51.316305786218322
20
-25.291017471371063
30
0
10
50.845499081123208
20
-25.909559110357762
30
0
10
50.390057318711492
20
-26.676417330801382
30
0
10
50.081426132690012
20
-27.434510739392486
30
0
10
49.934991965777414
20
-28.179341262025943
30
0
10
49.963951704617003
20
-28.903883953283504
30
0
10
50.170733399899909
20
-29.597856147273113
30
0
10
50.550923313059258
20
-30.248864179670019
30
0
10
50.989732770899309
20
-30.725290900819555
30
0
10
51.393052901507836
20
-31.053015425231344
30
0
10
51.694821691377172
20
-31.257698798468144
30
0
10
51.853928314837731
20
-31.356590334882082
30
0
0
LINE
5
261
100
AcDbEntity
8
0
100
AcDbLine
10
73.968234821377607
20
-47.356490155270791
30
0
11
77.971734378139871
21
-47.356472615163796
31
0
0
LINE
5
262
100
AcDbEntity
8
0
100
AcDbLine
10
73.709042255048928
20
-26.087020960006605
30
0
11
80.969682572290139
21
-29.356590305079759
31
0
0
LINE
5
263
100
AcDbEntity
8
0
100
AcDbLine
10
53.97048275534064
20
-47.390794026122393
30
0
11
55.805041783179576
21
-32.714321803956253
31
0
0
SPLINE
5
264
100
AcDbEntity
8
0
100
AcDbSpline
70
4
71
5
72
21
73
15
74
0
42
0.000000001
43
0.0000000001
44
0.0000000001
40
0
40
0
40
0
40
0
40
0
40
0
40
0.10000000000000001
40
0.20000000000000001
40
0.30000000000000004
40
0.40000000000000002
40
0.5
40
0.59999999999999998
40
0.69999999999999996
40
0.79999999999999993
40
0.89999999999999991
40
1
40
1
40
1
40
1
40
1
40
1
41
1
41
1
41
1
41
1
41
1
41
1
41
1
41
1
41
1
41
1
41
1
41
1
41
1
41
1
41
1
10
55.805041783179576
20
-32.714321803956253
30
0
10
56.023423465954842
20
-32.756489239197677
30
0
10
56.45795203466907
20
-32.836491922077542
30
0
10
57.103053634895502
20
-32.943502784951484
30
0
10
57.961720598889954
20
-33.063194097257465
30
0
10
59.095016317922948
20
-33.189441202312622
30
0
10
60.355386008691255
20
-33.307472257700667
30
0
10
61.79093939520439
20
-33.426725940939477
30
0
10
63.393470383876632
20
-33.542425393187486
30
0
10
65.101795972188711
20
-33.636300352479616
30
0
10
66.831826534708966
20
-33.68353798382897
30
0
10
68.162316303132997
20
-33.662850620250346
30
0
10
69.097935700377576
20
-33.604601585147911
30
0
10
69.689682187272467
20
-33.545408184818911
30
0
10
69.977555281698955
20
-33.510721082960579
30
0
0
LINE
5
265
100
AcDbEntity
8
0
100
AcDbLine
10
49.849652853432701
20
-47.390794026122393
30
0
11
53.97048275534064
21
-47.390794026122393
31
0
0
LINE
5
266
100
AcDbEntity
8
0
100
AcDbLine
10
51.853928314837731
20
-31.356590334882082
30
0
11
49.849652853432701
21
-47.390794026122393
31
0
0
LINE
5
267
100
AcDbEntity
8
0
100
AcDbLine
10
52.969682155057626
20
-8.0892451283131717
30
0
11
52.969682155057626
21
-5.3565899474518908
31
0
0
LINE
5
268
100
AcDbEntity
8
0
100
AcDbLine
10
80.128962853884005
20
-31.223552843175923
30
0
11
74.995475930740469
21
-28.911871088921636
31
0
0
LINE
5
269
100
AcDbEntity
8
0
100
AcDbLine
10
52.969682155057626
20
-8.0892451283131717
30
0
11
52.969682155057626
21
-5.3565899474518908
31
0
0
LINE
5
270
100
AcDbEntity
8
0
100
AcDbLine
10
80.128962853884005
20
-31.223552843175923
30
0
11
74.995475930740469
21
-28.911871088921636
31
0
0
LINE
5
271
100
AcDbEntity
8
0
100
AcDbLine
10
52.176895914688011
20
-12.883423850857456
30
0
11
52.176895914688011
21
-24.35659023057395
31
0
0
LINE
5
272
100
AcDbEntity
8
0
100
AcDbLine
10
51.853928314837731
20
-31.356590334882082
30
0
11
49.849652853432701
21
-47.390794026122393
31
0
0
LINE
5
273
100
AcDbEntity
8
0
100
AcDbLine
10
45.995192655003009
20
-9.4841430283240946
30
0
11
46.675048819509684
21
-12.883423850857456
31
0
0
LINE
5
274
100
AcDbEntity
8
0
100
AcDbLine
10
52.969682155057626
20
-8.0892451283131717
30
0
11
45.995192655003009
21
-9.4841430283240946
31
0
0
LINE
5
275
100
AcDbEntity
8
0
100
AcDbLine
10
45.995192655003009
20
-9.4841430283240946
30
0
11
46.675048819509684
21
-12.883423850857456
31
0
0
LWPOLYLINE
5
276
100
AcDbEntity
8
0
100
AcDbPolyline
90
4
70
1
43
0.0
10
80
20
35
10
60
20
35
10
60
20
45.000000000000036
10
80.000000000000071
20
45.000000000000036
0
LWPOLYLINE
5
277
100
AcDbEntity
8
0
100
AcDbPolyline
90
4
70
1
43
0.0
10
80.46733477539442
20
-14.381707933343133
10
60.46733477539442
20
-14.381707933343133
10
60.46733477539442
20
-4.3817079333430975
10
80.467334775394491
20
-4.3817079333430975
0
ENDSEC
0
SECTION
2
OBJECTS
0
DICTIONARY
5
C
100
AcDbDictionary
3
ACAD_GROUP
350
D
3
ACAD_MLINESTYLE
350
17
0
DICTIONARY
5
D
100
AcDbDictionary
0
DICTIONARY
5
1A
330
C
100
AcDbDictionary
0
DICTIONARY
5
17
100
AcDbDictionary
0
ENDSEC
0
EOF
