0
SECTION
2
HEADER
9
$INSUNITS
70
4
9
$ACADVER
1
AC1014
9
$HANDSEED
5
FFFF
0
ENDSEC
0
SECTION
2
TABLES
0
TABLE
2
VPORT
5
8
100
AcDbSymbolTable
0
ENDTAB
0
TABLE
2
LTYPE
5
5
100
AcDbSymbolTable
0
LTYPE
5
14
100
AcDbSymbolTableRecord
100
AcDbLinetypeTableRecord
2
BYBLOCK
70
0
0
LTYPE
5
15
100
AcDbSymbolTableRecord
100
AcDbLinetypeTableRecord
2
BYLAYER
70
0
0
ENDTAB
0
TABLE
2
LAYER
5
2
100
AcDbSymbolTable
70
2
0
LAYER
5
50
100
AcDbSymbolTableRecord
100
AcDbLayerTableRecord
2
0
70
0
6
CONTINUOUS
0
ENDTAB
0
TABLE
2
STYLE
5
3
100
AcDbSymbolTable
70
1
0
STYLE
5
11
100
AcDbSymbolTableRecord
100
AcDbTextStyleTableRecord
2
STANDARD
70
0
0
ENDTAB
0
TABLE
2
VIEW
5
6
100
AcDbSymbolTable
70
0
0
ENDTAB
0
TABLE
2
UCS
5
7
100
AcDbSymbolTable
70
0
0
ENDTAB
0
TABLE
2
APPID
5
9
100
AcDbSymbolTable
70
2
0
APPID
5
12
100
AcDbSymbolTableRecord
100
AcDbRegAppTableRecord
2
ACAD
70
0
0
ENDTAB
0
TABLE
2
DIMSTYLE
5
A
100
AcDbSymbolTable
70
1
0
ENDTAB
0
TABLE
2
BLOCK_RECORD
5
1
100
AcDbSymbolTable
70
1
0
BLOCK_RECORD
5
1F
100
AcDbSymbolTableRecord
100
AcDbBlockTableRecord
2
*MODEL_SPACE
0
BLOCK_RECORD
5
1B
100
AcDbSymbolTableRecord
100
AcDbBlockTableRecord
2
*PAPER_SPACE
0
ENDTAB
0
ENDSEC
0
SECTION
2
BLOCKS
0
BLOCK
5
20
100
AcDbEntity
100
AcDbBlockBegin
2
*MODEL_SPACE
0
ENDBLK
5
21
100
AcDbEntity
100
AcDbBlockEnd
0
BLOCK
5
1C
100
AcDbEntity
100
AcDbBlockBegin
2
*PAPER_SPACE
0
ENDBLK
5
1D
100
AcDbEntity
100
AcDbBlockEnd
0
ENDSEC
0
SECTION
2
ENTITIES
0
CIRCLE
5
100
100
AcDbEntity
8
0
100
AcDbCircle
10
0
20
0
30
0
40
60
210
0
220
0
230
1
0
LWPOLYLINE
5
101
100
AcDbEntity
8
0
100
AcDbPolyline
90
14
70
1
43
0.0
10
-275
20
30
10
-275
20
0
10
-257.5
20
0
10
-257.5
20
-2.5
10
-252.5
20
-2.5
10
-247.5
20
-2.5
10
-247.5
20
0
10
-230
20
0
10
-230
20
30
10
-247.5
20
30
10
-247.5
20
32.5
10
-252.5
20
32.5
10
-257.5
20
32.5
10
-257.5
20
30
0
LINE
5
102
100
AcDbEntity
8
0
100
AcDbLine
10
25.832601098152864
20
-49.29978627377097
30
0
11
25.354246807696498
21
-48.144936858131864
31
0
0
LWPOLYLINE
5
103
100
AcDbEntity
8
0
100
AcDbPolyline
90
4
70
1
43
0.0
10
26.310955388609223
20
-50.454635689410082
10
25.354246807696498
20
-48.144936858131864
10
16.115451482583637
20
-51.971771181782778
10
17.072160063496362
20
-54.281470013060996
0
LWPOLYLINE
5
104
100
AcDbEntity
8
0
100
AcDbPolyline
90
5
70
1
43
0.0
10
-16.115451482583634
20
-51.971771181782771
10
-16.593805773039996
20
-53.126620597421876
10
-17.072160063496359
20
-54.281470013060982
10
-26.310955388609226
20
-50.45463568941009
10
-25.354246807696505
20
-48.144936858131871
0
LINE
5
105
100
AcDbEntity
8
0
100
AcDbLine
10
-49.299786273770977
20
-25.832601098152864
30
0
11
-50.45463568941009
21
-26.310955388609223
31
0
0
LWPOLYLINE
5
106
100
AcDbEntity
8
0
100
AcDbPolyline
90
4
70
1
43
0.0
10
-54.281470013060982
20
-17.072160063496355
10
-50.45463568941009
20
-26.310955388609223
10
-48.144936858131871
20
-25.354246807696498
10
-51.971771181782771
20
-16.11545148258363
0
LWPOLYLINE
5
107
100
AcDbEntity
8
0
100
AcDbPolyline
90
5
70
1
43
0.0
10
-51.971771181782756
20
16.115451482583623
10
-53.126620597421869
20
16.593805773039985
10
-54.281470013060975
20
17.072160063496348
10
-50.454635689410082
20
26.310955388609219
10
-48.144936858131864
20
25.354246807696494
0
LWPOLYLINE
5
108
100
AcDbEntity
8
0
100
AcDbPolyline
90
5
70
1
43
0.0
10
-25.354246807696498
20
48.144936858131864
10
-25.832601098152857
20
49.29978627377097
10
-26.310955388609223
20
50.454635689410082
10
-17.072160063496355
20
54.281470013060975
10
-16.11545148258363
20
51.971771181782756
0
LWPOLYLINE
5
109
100
AcDbEntity
8
0
100
AcDbPolyline
90
5
70
1
43
0.0
10
25.354246807696505
20
48.144936858131871
10
25.832601098152864
20
49.299786273770977
10
26.31095538860923
20
50.45463568941009
10
17.072160063496362
20
54.281470013060982
10
16.115451482583637
20
51.971771181782771
0
LWPOLYLINE
5
110
100
AcDbEntity
8
0
100
AcDbPolyline
90
5
70
1
43
0.0
10
51.971771181782771
20
16.115451482583634
10
53.126620597421876
20
16.593805773039996
10
54.281470013060982
20
17.072160063496359
10
50.45463568941009
20
26.310955388609226
10
48.144936858131871
20
25.354246807696505
0
LWPOLYLINE
5
111
100
AcDbEntity
8
0
100
AcDbPolyline
90
5
70
1
43
0.0
10
48.144936858131871
20
-25.354246807696494
10
49.299786273770977
20
-25.832601098152853
10
50.454635689410082
20
-26.310955388609216
10
54.281470013060975
20
-17.072160063496344
10
51.971771181782756
20
-16.115451482583619
0
LWPOLYLINE
5
112
100
AcDbEntity
8
0
100
AcDbPolyline
90
5
70
1
43
0.0
10
-178.14493685813187
20
25.354246807696494
10
-181.97177118178274
20
16.115451482583623
10
-183.12662059742189
20
16.593805773039985
10
-184.28147001306098
20
17.072160063496348
10
-180.45463568941011
20
26.310955388609219
0
CIRCLE
5
113
100
AcDbEntity
8
0
100
AcDbCircle
10
-130
20
0
30
0
40
60
210
0
220
0
230
1
0
LWPOLYLINE
5
114
100
AcDbEntity
8
0
100
AcDbPolyline
90
5
70
1
43
0.0
10
-147.07216006349637
20
-54.281470013060982
10
-156.31095538860922
20
-50.45463568941009
10
-155.35424680769651
20
-48.144936858131871
10
-146.11545148258364
20
-51.971771181782771
10
-146.59380577304
20
-53.126620597421876
0
LWPOLYLINE
5
115
100
AcDbEntity
8
0
100
AcDbPolyline
90
4
70
1
43
0.0
10
-181.97177118178277
20
-16.11545148258363
10
-184.28147001306098
20
-17.072160063496355
10
-180.45463568941011
20
-26.310955388609223
10
-178.14493685813187
20
-25.354246807696498
0
LWPOLYLINE
5
116
100
AcDbEntity
8
0
100
AcDbPolyline
90
5
70
1
43
0.0
10
-79.545364310589918
20
26.310955388609226
10
-81.855063141868129
20
25.354246807696505
10
-78.028228818217229
20
16.115451482583634
10
-76.873379402578124
20
16.593805773039996
10
-75.718529986939018
20
17.072160063496359
0
LWPOLYLINE
5
117
100
AcDbEntity
8
0
100
AcDbPolyline
90
5
70
1
43
0.0
10
-80.700213726229023
20
-25.832601098152853
10
-79.545364310589918
20
-26.310955388609216
10
-75.718529986939018
20
-17.072160063496344
10
-78.028228818217244
20
-16.115451482583619
10
-81.855063141868129
20
-25.354246807696494
0
LWPOLYLINE
5
118
100
AcDbEntity
8
0
100
AcDbPolyline
90
5
70
1
43
0.0
10
-113.88454851741636
20
51.971771181782771
10
-104.64575319230349
20
48.144936858131871
10
-104.16739890184714
20
49.299786273770977
10
-103.68904461139078
20
50.45463568941009
10
-112.92783993650363
20
54.281470013060982
0
LWPOLYLINE
5
119
100
AcDbEntity
8
0
100
AcDbPolyline
90
5
70
1
43
0.0
10
-155.35424680769648
20
48.144936858131864
10
-155.83260109815285
20
49.29978627377097
10
-156.31095538860922
20
50.454635689410082
10
-147.07216006349637
20
54.281470013060975
10
-146.11545148258364
20
51.971771181782756
0
LWPOLYLINE
5
120
100
AcDbEntity
8
0
100
AcDbPolyline
90
4
70
1
43
0.0
10
-113.88454851741636
20
-51.971771181782778
10
-104.6457531923035
20
-48.144936858131864
10
-103.68904461139078
20
-50.454635689410082
10
-112.92783993650363
20
-54.281470013060996
0
LINE
5
121
100
AcDbEntity
8
0
100
AcDbLine
10
-104.16739890184714
20
-49.29978627377097
30
0
11
-104.6457531923035
21
-48.144936858131864
31
0
0
LINE
5
122
100
AcDbEntity
8
0
100
AcDbLine
10
-179.29978627377096
20
-25.832601098152864
30
0
11
-180.45463568941011
21
-26.310955388609223
31
0
0
LWPOLYLINE
5
123
100
AcDbEntity
8
0
100
AcDbPolyline
90
14
70
1
43
0.0
10
-257.5
20
50
10
-257.5
20
47.5
10
-252.5
20
47.5
10
-247.5
20
47.5
10
-247.5
20
50
10
-230
20
50
10
-230
20
80
10
-247.5
20
80
10
-247.5
20
82.5
10
-252.5
20
82.5
10
-257.5
20
82.5
10
-257.5
20
80
10
-275
20
80
10
-275
20
50
0
LWPOLYLINE
5
124
100
AcDbEntity
8
0
100
AcDbPolyline
90
14
70
1
43
0.0
10
-257.5
20
100
10
-275
20
100
10
-275
20
130
10
-257.5
20
130
10
-257.5
20
132.5
10
-252.5
20
132.5
10
-247.5
20
132.5
10
-247.5
20
130
10
-230
20
130
10
-230
20
100
10
-247.5
20
100
10
-247.5
20
97.5
10
-252.5
20
97.5
10
-257.5
20
97.5
0
LWPOLYLINE
5
125
100
AcDbEntity
8
0
100
AcDbPolyline
90
14
70
1
43
0.0
10
-307.5
20
50
10
-325
20
50
10
-325
20
80
10
-307.5
20
80
10
-307.5
20
82.5
10
-302.5
20
82.5
10
-297.5
20
82.5
10
-297.5
20
80
10
-280
20
80
10
-280
20
50
10
-297.5
20
50
10
-297.5
20
47.5
10
-302.5
20
47.5
10
-307.5
20
47.5
0
LWPOLYLINE
5
126
100
AcDbEntity
8
0
100
AcDbPolyline
90
14
70
1
43
0.0
10
-257.5
20
140
10
-275
20
140
10
-275
20
170
10
-257.5
20
170
10
-257.5
20
172.5
10
-252.5
20
172.5
10
-247.5
20
172.5
10
-247.5
20
170
10
-230
20
170
10
-230
20
140
10
-247.5
20
140
10
-247.5
20
137.5
10
-252.5
20
137.5
10
-257.5
20
137.5
0
LWPOLYLINE
5
127
100
AcDbEntity
8
0
100
AcDbPolyline
90
14
70
1
43
0.0
10
-307.5
20
0
10
-325
20
0
10
-325
20
30
10
-307.5
20
30
10
-307.5
20
32.5
10
-302.5
20
32.5
10
-297.5
20
32.5
10
-297.5
20
30
10
-280
20
30
10
-280
20
0
10
-297.5
20
0
10
-297.5
20
-2.5
10
-302.5
20
-2.5
10
-307.5
20
-2.5
0
LWPOLYLINE
5
128
100
AcDbEntity
8
0
100
AcDbPolyline
90
14
70
1
43
0.0
10
-307.5
20
100
10
-325
20
100
10
-325
20
130
10
-307.5
20
130
10
-307.5
20
132.5
10
-302.5
20
132.5
10
-297.5
20
132.5
10
-297.5
20
130
10
-280
20
130
10
-280
20
100
10
-297.5
20
100
10
-297.5
20
97.5
10
-302.5
20
97.5
10
-307.5
20
97.5
0
LWPOLYLINE
5
129
100
AcDbEntity
8
0
100
AcDbPolyline
90
14
70
1
43
0.0
10
-307.5
20
140
10
-325
20
140
10
-325
20
170
10
-307.5
20
170
10
-307.5
20
172.5
10
-302.5
20
172.5
10
-297.5
20
172.5
10
-297.5
20
170
10
-280
20
170
10
-280
20
140
10
-297.5
20
140
10
-297.5
20
137.5
10
-302.5
20
137.5
10
-307.5
20
137.5
0
LWPOLYLINE
5
130
100
AcDbEntity
8
0
100
AcDbPolyline
90
15
70
1
43
0.0
10
-340
20
0
10
-357.5
20
0
10
-357.5
20
-2.5
10
-362.5
20
-2.5
10
-367.5
20
-2.5
10
-367.5
20
0
10
-385
20
0
10
-385
20
30
10
-367.5
20
30
10
-363.75
20
30
10
-363.75
20
25
10
-361.25
20
25
10
-361.25
20
30
10
-357.5
20
30
10
-340
20
30
0
LWPOLYLINE
5
131
100
AcDbEntity
8
0
100
AcDbPolyline
90
4
70
1
43
0.0
10
10.572174287515917
20
-54.267871775973319
10
5.9527766249594833
20
-56.181288937798762
10
6.8903510342539533
20
-58.444793792451421
10
11.509748696810387
20
-56.531376630625971
0
LWPOLYLINE
5
132
100
AcDbEntity
8
0
100
AcDbPolyline
90
4
70
1
43
0.0
10
35.516921665320645
20
-43.935419102115858
10
30.897524002764214
20
-45.848836263941315
10
31.835098412058688
20
-48.112341118593974
10
36.454496074615122
20
-46.19892395676851
0
LWPOLYLINE
5
133
100
AcDbEntity
8
0
100
AcDbPolyline
90
4
70
1
43
0.0
10
-35.516921665320666
20
-43.935419102115887
10
-30.897524002764229
20
-45.848836263941337
10
-31.835098412058699
20
-48.112341118593989
10
-36.454496074615136
20
-46.198923956768539
0
LWPOLYLINE
5
134
100
AcDbEntity
8
0
100
AcDbPolyline
90
4
70
1
43
0.0
10
-5.9527766249594798
20
-56.181288937798755
10
-10.572174287515914
20
-54.267871775973305
10
-11.509748696810384
20
-56.531376630625957
10
-6.8903510342539489
20
-58.444793792451406
0
LWPOLYLINE
5
135
100
AcDbEntity
8
0
100
AcDbPolyline
90
4
70
1
43
0.0
10
-43.935419102115887
20
-35.516921665320652
10
-45.848836263941344
20
-30.897524002764225
10
-48.112341118593996
20
-31.835098412058699
10
-46.198923956768539
20
-36.454496074615136
0
LWPOLYLINE
5
136
100
AcDbEntity
8
0
100
AcDbPolyline
90
4
70
1
43
0.0
10
-56.181288937798755
20
-5.9527766249594727
10
-54.267871775973305
20
-10.572174287515907
10
-56.531376630625957
20
-11.50974869681038
10
-58.444793792451406
20
-6.8903510342539427
0
LWPOLYLINE
5
137
100
AcDbEntity
8
0
100
AcDbPolyline
90
4
70
1
43
0.0
10
-43.93541910211588
20
35.516921665320652
10
-45.848836263941322
20
30.897524002764222
10
-48.112341118593982
20
31.835098412058688
10
-46.198923956768532
20
36.454496074615122
0
LWPOLYLINE
5
138
100
AcDbEntity
8
0
100
AcDbPolyline
90
4
70
1
43
0.0
10
-56.181288937798762
20
5.9527766249594745
10
-54.267871775973305
20
10.572174287515905
10
-56.531376630625957
20
11.509748696810378
10
-58.444793792451421
20
6.8903510342539498
0
LWPOLYLINE
5
139
100
AcDbEntity
8
0
100
AcDbPolyline
90
4
70
1
43
0.0
10
-5.9527766249594727
20
56.181288937798747
10
-10.572174287515907
20
54.267871775973298
10
-11.509748696810377
20
56.53137663062595
10
-6.8903510342539391
20
58.444793792451399
0
LWPOLYLINE
5
140
100
AcDbEntity
8
0
100
AcDbPolyline
90
4
70
1
43
0.0
10
-35.516921665320645
20
43.935419102115858
10
-30.897524002764211
20
45.848836263941315
10
-31.835098412058681
20
48.112341118593974
10
-36.454496074615115
20
46.19892395676851
0
LWPOLYLINE
5
141
100
AcDbEntity
8
0
100
AcDbPolyline
90
4
70
1
43
0.0
10
35.516921665320631
20
43.93541910211583
10
30.897524002764207
20
45.848836263941308
10
31.835098412058688
20
48.112341118593953
10
36.454496074615115
20
46.198923956768482
0
LWPOLYLINE
5
142
100
AcDbEntity
8
0
100
AcDbPolyline
90
4
70
1
43
0.0
10
5.9527766249594816
20
56.181288937798755
10
10.572174287515914
20
54.267871775973305
10
11.509748696810387
20
56.531376630625957
10
6.8903510342539516
20
58.444793792451406
0
LWPOLYLINE
5
143
100
AcDbEntity
8
0
100
AcDbPolyline
90
4
70
1
43
0.0
10
56.181288937798755
20
5.9527766249594771
10
54.267871775973305
20
10.572174287515912
10
56.531376630625957
20
11.509748696810382
10
58.444793792451406
20
6.8903510342539498
0
LWPOLYLINE
5
144
100
AcDbEntity
8
0
100
AcDbPolyline
90
4
70
1
43
0.0
10
43.935419102115887
20
35.516921665320666
10
45.848836263941337
20
30.897524002764229
10
48.112341118593989
20
31.835098412058699
10
46.198923956768539
20
36.454496074615136
0
LWPOLYLINE
5
145
100
AcDbEntity
8
0
100
AcDbPolyline
90
5
70
1
43
0.0
10
45.848836263941322
20
-30.897524002764207
10
47.003685679580435
20
-31.375878293220573
10
48.112341118593974
20
-31.83509841205867
10
46.198923956768525
20
-36.454496074615108
10
43.935419102115873
20
-35.516921665320638
0
LWPOLYLINE
5
146
100
AcDbEntity
8
0
100
AcDbPolyline
90
5
70
1
43
0.0
10
54.267871775973298
20
-10.572174287515899
10
55.422721191612403
20
-11.05052857797226
10
56.53137663062595
20
-11.509748696810366
10
58.444793792451399
20
-6.8903510342539356
10
56.181288937798747
20
-5.9527766249594647
0
LWPOLYLINE
5
147
100
AcDbEntity
8
0
100
AcDbPolyline
90
15
70
1
43
0.0
10
-357.5
20
80
10
-361.25
20
80
10
-361.25
20
75
10
-363.75
20
75
10
-363.75
20
80
10
-367.5
20
80
10
-385
20
80
10
-385
20
50
10
-367.5
20
50
10
-367.5
20
47.5
10
-362.5
20
47.5
10
-357.5
20
47.5
10
-357.5
20
50
10
-340
20
50
10
-340
20
80
0
LWPOLYLINE
5
148
100
AcDbEntity
8
0
100
AcDbPolyline
90
15
70
1
43
0.0
10
-367.5
20
100
10
-385
20
100
10
-385
20
130
10
-367.5
20
130
10
-363.75
20
130
10
-363.75
20
125
10
-361.25
20
125
10
-361.25
20
130
10
-357.5
20
130
10
-340
20
130
10
-340
20
100
10
-357.5
20
100
10
-357.5
20
97.5
10
-362.5
20
97.5
10
-367.5
20
97.5
0
LWPOLYLINE
5
149
100
AcDbEntity
8
0
100
AcDbPolyline
90
15
70
1
43
0.0
10
-367.5
20
140
10
-385
20
140
10
-385
20
170
10
-367.5
20
170
10
-363.75
20
170
10
-363.75
20
165
10
-361.25
20
165
10
-361.25
20
170
10
-357.5
20
170
10
-340
20
170
10
-340
20
140
10
-357.5
20
140
10
-357.5
20
137.5
10
-362.5
20
137.5
10
-367.5
20
137.5
0
LWPOLYLINE
5
150
100
AcDbEntity
8
0
100
AcDbPolyline
90
15
70
1
43
0.0
10
-427.5
20
0
10
-445
20
0
10
-445
20
30
10
-427.5
20
30
10
-423.75
20
30
10
-423.75
20
25
10
-421.25
20
25
10
-421.25
20
30
10
-417.5
20
30
10
-400
20
30
10
-400
20
0
10
-417.5
20
0
10
-417.5
20
-2.5
10
-422.5
20
-2.5
10
-427.5
20
-2.5
0
LWPOLYLINE
5
151
100
AcDbEntity
8
0
100
AcDbPolyline
90
15
70
1
43
0.0
10
-427.5
20
50
10
-445
20
50
10
-445
20
80
10
-427.5
20
80
10
-423.75
20
80
10
-423.75
20
75
10
-421.25
20
75
10
-421.25
20
80
10
-417.5
20
80
10
-400
20
80
10
-400
20
50
10
-417.5
20
50
10
-417.5
20
47.5
10
-422.5
20
47.5
10
-427.5
20
47.5
0
LWPOLYLINE
5
152
100
AcDbEntity
8
0
100
AcDbPolyline
90
15
70
1
43
0.0
10
-427.5
20
100
10
-445
20
100
10
-445
20
130
10
-427.5
20
130
10
-423.75
20
130
10
-423.75
20
125
10
-421.25
20
125
10
-421.25
20
130
10
-417.5
20
130
10
-400
20
130
10
-400
20
100
10
-417.5
20
100
10
-417.5
20
97.5
10
-422.5
20
97.5
10
-427.5
20
97.5
0
LWPOLYLINE
5
153
100
AcDbEntity
8
0
100
AcDbPolyline
90
15
70
1
43
0.0
10
-427.5
20
140
10
-445
20
140
10
-445
20
170
10
-427.5
20
170
10
-423.75
20
170
10
-423.75
20
165
10
-421.25
20
165
10
-421.25
20
170
10
-417.5
20
170
10
-400
20
170
10
-400
20
140
10
-417.5
20
140
10
-417.5
20
137.5
10
-422.5
20
137.5
10
-427.5
20
137.5
0
SPLINE
5
154
100
AcDbEntity
8
0
100
AcDbSpline
70
4
71
5
72
21
73
15
74
0
42
0.000000001
43
0.0000000001
44
0.0000000001
40
0
40
0
40
0
40
0
40
0
40
0
40
0.10000000000000001
40
0.20000000000000001
40
0.30000000000000004
40
0.40000000000000002
40
0.5
40
0.59999999999999998
40
0.69999999999999996
40
0.79999999999999993
40
0.89999999999999991
40
1
40
1
40
1
40
1
40
1
40
1
41
1
41
1
41
1
41
1
41
1
41
1
41
1
41
1
41
1
41
1
41
1
41
1
41
1
41
1
41
1
10
-400
20
-260
30
0
10
-401.91846108813047
20
-259.98693530331639
30
0
10
-405.67888203041122
20
-259.90358911650088
30
0
10
-411.09002475395812
20
-259.60693068375338
30
0
10
-417.83822371234356
20
-258.86236330841689
30
0
10
-425.43961216199904
20
-257.30799343554702
30
0
10
-432.12151809929145
20
-255.06592431587495
30
0
10
-437.78908572972239
20
-252.06521141533733
30
0
10
-442.36124951975347
20
-248.24522421013836
30
0
10
-445.82731707938194
20
-243.59796564927379
30
0
10
-448.24758660882367
20
-238.1685339551797
30
0
10
-449.40452667294352
20
-233.24215291999144
30
0
10
-449.86000486962121
20
-229.23905448793658
30
0
10
-449.98337993904818
20
-226.43548940224258
30
0
10
-450
20
-225
30
0
0
SPLINE
5
155
100
AcDbEntity
8
0
100
AcDbSpline
70
4
71
5
72
21
73
15
74
0
42
0.000000001
43
0.0000000001
44
0.0000000001
40
0
40
0
40
0
40
0
40
0
40
0
40
0.10000000000000001
40
0.20000000000000001
40
0.30000000000000004
40
0.40000000000000002
40
0.5
40
0.59999999999999998
40
0.69999999999999996
40
0.79999999999999993
40
0.89999999999999991
40
1
40
1
40
1
40
1
40
1
40
1
41
1
41
1
41
1
41
1
41
1
41
1
41
1
41
1
41
1
41
1
41
1
41
1
41
1
41
1
41
1
10
-400
20
-210
30
0
10
-401.91846108813047
20
-209.98693530325374
30
0
10
-405.67888203041122
20
-209.90358911632831
30
0
10
-411.09002475395812
20
-209.60693068346308
30
0
10
-417.83822371234356
20
-208.86236330805988
30
0
10
-425.43961216199904
20
-207.30799343522557
30
0
10
-432.12151809929145
20
-205.06592431566605
30
0
10
-437.78908572972239
20
-202.0652114152725
30
0
10
-442.36124951975347
20
-198.2452242102064
30
0
10
-445.82731707938194
20
-193.5979656494325
30
0
10
-448.24758660882367
20
-188.16853395536737
30
0
10
-449.40452667294352
20
-183.2421529201437
30
0
10
-449.86000486962121
20
-179.2390544880266
30
0
10
-449.98337993904818
20
-176.43548940227527
30
0
10
-450
20
-175
30
0
0
SPLINE
5
156
100
AcDbEntity
8
0
100
AcDbSpline
70
4
71
5
72
21
73
15
74
0
42
0.000000001
43
0.0000000001
44
0.0000000001
40
0
40
0
40
0
40
0
40
0
40
0
40
0.10000000000000001
40
0.20000000000000001
40
0.30000000000000004
40
0.40000000000000002
40
0.5
40
0.59999999999999998
40
0.69999999999999996
40
0.79999999999999993
40
0.89999999999999991
40
1
40
1
40
1
40
1
40
1
40
1
41
1
41
1
41
1
41
1
41
1
41
1
41
1
41
1
41
1
41
1
41
1
41
1
41
1
41
1
41
1
10
-400
20
-185
30
0
10
-401.91846108813047
20
-184.98693530326415
30
0
10
-405.67888203041122
20
-184.9035891163573
30
0
10
-411.09002475395812
20
-184.60693068351307
30
0
10
-417.83822371234356
20
-183.86236330812409
30
0
10
-425.43961216199904
20
-182.30799343528707
30
0
10
-432.12151809929145
20
-180.06592431570911
30
0
10
-437.78908572972239
20
-177.06521141528756
30
0
10
-442.36124951975347
20
-173.24522421019162
30
0
10
-445.82731707938194
20
-168.5979656493933
30
0
10
-448.24758660882367
20
-163.16853395531709
30
0
10
-449.40452667294352
20
-158.24215292010066
30
0
10
-449.86000486962121
20
-154.23905448800031
30
0
10
-449.98337993904818
20
-151.43548940226557
30
0
10
-450
20
-150
30
0
0
SPLINE
5
157
100
AcDbEntity
8
0
100
AcDbSpline
70
4
71
5
72
21
73
15
74
0
42
0.000000001
43
0.0000000001
44
0.0000000001
40
0
40
0
40
0
40
0
40
0
40
0
40
0.10000000000000001
40
0.20000000000000001
40
0.30000000000000004
40
0.40000000000000002
40
0.5
40
0.59999999999999998
40
0.69999999999999996
40
0.79999999999999993
40
0.89999999999999991
40
1
40
1
40
1
40
1
40
1
40
1
41
1
41
1
41
1
41
1
41
1
41
1
41
1
41
1
41
1
41
1
41
1
41
1
41
1
41
1
41
1
10
-400
20
-160
30
0
10
-401.91846108813047
20
-159.98693530325147
30
0
10
-405.67888203041122
20
-159.90358911632205
30
0
10
-411.09002475395812
20
-159.60693068345276
30
0
10
-417.83822371234356
20
-158.86236330804792
30
0
10
-425.43961216199904
20
-157.30799343521574
30
0
10
-432.12151809929145
20
-155.06592431566088
30
0
10
-437.78908572972239
20
-152.06521141527165
30
0
10
-442.36124951975347
20
-148.24522421020782
30
0
10
-445.82731707938194
20
-143.59796564943332
30
0
10
-448.24758660882367
20
-138.16853395536612
30
0
10
-449.40452667294352
20
-133.24215292014151
30
0
10
-449.86000486962121
20
-129.23905448802483
30
0
10
-449.98337993904818
20
-126.43548940227453
30
0
10
-450
20
-125
30
0
0
SPLINE
5
158
100
AcDbEntity
8
0
100
AcDbSpline
70
4
71
5
72
21
73
15
74
0
42
0.000000001
43
0.0000000001
44
0.0000000001
40
0
40
0
40
0
40
0
40
0
40
0
40
0.10000000000000001
40
0.20000000000000001
40
0.30000000000000004
40
0.40000000000000002
40
0.5
40
0.59999999999999998
40
0.69999999999999996
40
0.79999999999999993
40
0.89999999999999991
40
1
40
1
40
1
40
1
40
1
40
1
41
1
41
1
41
1
41
1
41
1
41
1
41
1
41
1
41
1
41
1
41
1
41
1
41
1
41
1
41
1
10
-325
20
-260
30
0
10
-326.91846108813957
20
-259.98693530331639
30
0
10
-330.67888203043543
20
-259.90358911650088
30
0
10
-336.0900247539945
20
-259.60693068375338
30
0
10
-342.83822371237733
20
-258.86236330841689
30
0
10
-350.43961216201205
20
-257.30799343554702
30
0
10
-357.12151809928434
20
-255.06592431587495
30
0
10
-362.78908572971034
20
-252.06521141533733
30
0
10
-367.36124951976001
20
-248.24522421013836
30
0
10
-370.8273170794231
20
-243.59796564927379
30
0
10
-373.2475866088941
20
-238.1685339551797
30
0
10
-374.40452667301253
20
-233.24215291999144
30
0
10
-374.86000486966566
20
-229.23905448793658
30
0
10
-374.983379939065
20
-226.43548940224258
30
0
10
-375
20
-225
30
0
0
SPLINE
5
159
100
AcDbEntity
8
0
100
AcDbSpline
70
4
71
5
72
21
73
15
74
0
42
0.000000001
43
0.0000000001
44
0.0000000001
40
0
40
0
40
0
40
0
40
0
40
0
40
0.10000000000000001
40
0.20000000000000001
40
0.30000000000000004
40
0.40000000000000002
40
0.5
40
0.59999999999999998
40
0.69999999999999996
40
0.79999999999999993
40
0.89999999999999991
40
1
40
1
40
1
40
1
40
1
40
1
41
1
41
1
41
1
41
1
41
1
41
1
41
1
41
1
41
1
41
1
41
1
41
1
41
1
41
1
41
1
10
-325
20
-235
30
0
10
-326.91846108813957
20
-234.98693530330937
30
0
10
-330.67888203043543
20
-234.90358911648144
30
0
10
-336.0900247539945
20
-234.60693068372075
30
0
10
-342.83822371237733
20
-233.86236330837687
30
0
10
-350.43961216201205
20
-232.30799343551098
30
0
10
-357.12151809928434
20
-230.0659243158513
30
0
10
-362.78908572971034
20
-227.0652114153296
30
0
10
-367.36124951976001
20
-223.2452242101462
30
0
10
-370.8273170794231
20
-218.59796564929351
30
0
10
-373.2475866088941
20
-213.16853395520465
30
0
10
-374.40452667301253
20
-208.24215292001273
30
0
10
-374.86000486966566
20
-204.23905448794943
30
0
10
-374.983379939065
20
-201.43548940224733
30
0
10
-375
20
-200
30
0
0
SPLINE
5
160
100
AcDbEntity
8
0
100
AcDbSpline
70
4
71
5
72
21
73
15
74
0
42
0.000000001
43
0.0000000001
44
0.0000000001
40
0
40
0
40
0
40
0
40
0
40
0
40
0.10000000000000001
40
0.20000000000000001
40
0.30000000000000004
40
0.40000000000000002
40
0.5
40
0.59999999999999998
40
0.69999999999999996
40
0.79999999999999993
40
0.89999999999999991
40
1
40
1
40
1
40
1
40
1
40
1
41
1
41
1
41
1
41
1
41
1
41
1
41
1
41
1
41
1
41
1
41
1
41
1
41
1
41
1
41
1
10
-325
20
-210
30
0
10
-326.91846108813957
20
-209.98693530325374
30
0
10
-330.67888203043543
20
-209.90358911632831
30
0
10
-336.0900247539945
20
-209.60693068346308
30
0
10
-342.83822371237733
20
-208.86236330805988
30
0
10
-350.43961216201205
20
-207.30799343522557
30
0
10
-357.12151809928434
20
-205.06592431566605
30
0
10
-362.78908572971034
20
-202.0652114152725
30
0
10
-367.36124951976001
20
-198.2452242102064
30
0
10
-370.8273170794231
20
-193.5979656494325
30
0
10
-373.2475866088941
20
-188.16853395536737
30
0
10
-374.40452667301253
20
-183.2421529201437
30
0
10
-374.86000486966566
20
-179.2390544880266
30
0
10
-374.983379939065
20
-176.43548940227527
30
0
10
-375
20
-175
30
0
0
SPLINE
5
161
100
AcDbEntity
8
0
100
AcDbSpline
70
4
71
5
72
21
73
15
74
0
42
0.000000001
43
0.0000000001
44
0.0000000001
40
0
40
0
40
0
40
0
40
0
40
0
40
0.10000000000000001
40
0.20000000000000001
40
0.30000000000000004
40
0.40000000000000002
40
0.5
40
0.59999999999999998
40
0.69999999999999996
40
0.79999999999999993
40
0.89999999999999991
40
1
40
1
40
1
40
1
40
1
40
1
41
1
41
1
41
1
41
1
41
1
41
1
41
1
41
1
41
1
41
1
41
1
41
1
41
1
41
1
41
1
10
-325
20
-185
30
0
10
-326.91846108813957
20
-184.98693530326415
30
0
10
-330.67888203043543
20
-184.9035891163573
30
0
10
-336.0900247539945
20
-184.60693068351307
30
0
10
-342.83822371237733
20
-183.86236330812409
30
0
10
-350.43961216201205
20
-182.30799343528707
30
0
10
-357.12151809928434
20
-180.06592431570911
30
0
10
-362.78908572971034
20
-177.06521141528756
30
0
10
-367.36124951976001
20
-173.24522421019162
30
0
10
-370.8273170794231
20
-168.5979656493933
30
0
10
-373.2475866088941
20
-163.16853395531709
30
0
10
-374.40452667301253
20
-158.24215292010066
30
0
10
-374.86000486966566
20
-154.23905448800031
30
0
10
-374.983379939065
20
-151.43548940226557
30
0
10
-375
20
-150
30
0
0
LINE
5
162
100
AcDbEntity
8
0
100
AcDbLine
10
-325
20
-93.044849459661037
30
0
11
-323.75
21
-93.044849459661037
31
0
0
LINE
5
163
100
AcDbEntity
8
0
100
AcDbLine
10
-323.75
20
-93.044849459661037
30
0
11
-323.75
21
-90.078432583507777
31
0
0
LINE
5
164
100
AcDbEntity
8
0
100
AcDbLine
10
-325
20
-93.044849459661037
30
0
11
-326.25
21
-93.044849459661037
31
0
0
LINE
5
165
100
AcDbEntity
8
0
100
AcDbLine
10
-326.25
20
-93.044849459661037
30
0
11
-326.25
21
-90.000001341104507
31
0
0
LINE
5
166
100
AcDbEntity
8
0
100
AcDbLine
10
-320.05025253169424
20
-95.050252531694184
30
0
11
-319.16636905521096
21
-95.934136008177347
31
0
0
LINE
5
167
100
AcDbEntity
8
0
100
AcDbLine
10
-319.16636905521096
20
-95.934136008177347
30
0
11
-317.0450487116513
21
-93.812815664617716
31
0
0
LINE
5
168
100
AcDbEntity
8
0
100
AcDbLine
10
-320.05025253169424
20
-95.050252531694184
30
0
11
-320.9341360081774
21
-94.166369055210964
31
0
0
LINE
5
169
100
AcDbEntity
8
0
100
AcDbLine
10
-320.9341360081774
20
-94.166369055210964
30
0
11
-318.8682758762821
21
-92.100508923315644
31
0
0
LINE
5
170
100
AcDbEntity
8
0
100
AcDbLine
10
-318.00000473856926
20
-100
30
0
11
-318.00000473856926
21
-98.75
31
0
0
LINE
5
171
100
AcDbEntity
8
0
100
AcDbLine
10
-318.00000473856926
20
-98.75
30
0
11
-315.07843258350778
21
-98.75
31
0
0
LINE
5
172
100
AcDbEntity
8
0
100
AcDbLine
10
-318.00000473856926
20
-100
30
0
11
-318.00000473856926
21
-101.25
31
0
0
LINE
5
173
100
AcDbEntity
8
0
100
AcDbLine
10
-318.00000473856926
20
-101.25
30
0
11
-315.07843258350778
21
-101.25
31
0
0
LINE
5
174
100
AcDbEntity
8
0
100
AcDbLine
10
-320.05025253169413
20
-104.94974746830584
30
0
11
-319.16636905521096
21
-104.06586399182267
31
0
0
LINE
5
175
100
AcDbEntity
8
0
100
AcDbLine
10
-319.16636905521096
20
-104.06586399182267
30
0
11
-317.04504871165136
21
-106.18718433538233
31
0
0
LINE
5
176
100
AcDbEntity
8
0
100
AcDbLine
10
-320.05025253169413
20
-104.94974746830584
30
0
11
-320.93413600817735
21
-105.83363094478899
31
0
0
LINE
5
177
100
AcDbEntity
8
0
100
AcDbLine
10
-320.93413600817735
20
-105.83363094478899
30
0
11
-318.81281566461774
21
-107.95495128834867
31
0
0
LINE
5
178
100
AcDbEntity
8
0
100
AcDbLine
10
-325
20
-107
30
0
11
-323.75
21
-107
31
0
0
LINE
5
179
100
AcDbEntity
8
0
100
AcDbLine
10
-323.75
20
-107
30
0
11
-323.75
21
-110
31
0
0
LINE
5
180
100
AcDbEntity
8
0
100
AcDbLine
10
-325
20
-107
30
0
11
-326.25
21
-107
31
0
0
LINE
5
181
100
AcDbEntity
8
0
100
AcDbLine
10
-326.25
20
-107
30
0
11
-326.25
21
-110
31
0
0
LINE
5
182
100
AcDbEntity
8
0
100
AcDbLine
10
-329.94974746830587
20
-104.94974746830584
30
0
11
-329.06586399182265
21
-105.83363094478904
31
0
0
LINE
5
183
100
AcDbEntity
8
0
100
AcDbLine
10
-329.06586399182265
20
-105.83363094478904
30
0
11
-331.13172412371802
21
-107.89949107668434
31
0
0
LINE
5
184
100
AcDbEntity
8
0
100
AcDbLine
10
-329.94974746830587
20
-104.94974746830584
30
0
11
-330.83363094478904
21
-104.06586399182262
31
0
0
LINE
5
185
100
AcDbEntity
8
0
100
AcDbLine
10
-330.83363094478904
20
-104.06586399182262
30
0
11
-332.95495128834875
21
-106.18718433538228
31
0
0
LINE
5
186
100
AcDbEntity
8
0
100
AcDbLine
10
-332
20
-100
30
0
11
-332
21
-101.25
31
0
0
LINE
5
187
100
AcDbEntity
8
0
100
AcDbLine
10
-332
20
-101.25
30
0
11
-335
21
-101.25
31
0
0
LINE
5
188
100
AcDbEntity
8
0
100
AcDbLine
10
-332
20
-100
30
0
11
-332
21
-98.75
31
0
0
LINE
5
189
100
AcDbEntity
8
0
100
AcDbLine
10
-332
20
-98.75
30
0
11
-334.92156741649217
21
-98.75
31
0
0
LINE
5
190
100
AcDbEntity
8
0
100
AcDbLine
10
-329.94974746830587
20
-95.050252531694184
30
0
11
-330.83363094478904
21
-95.934136008177376
31
0
0
LINE
5
191
100
AcDbEntity
8
0
100
AcDbLine
10
-330.83363094478904
20
-95.934136008177376
30
0
11
-332.89949107668434
21
-93.86827587628207
31
0
0
LINE
5
192
100
AcDbEntity
8
0
100
AcDbLine
10
-329.94974746830587
20
-95.050252531694184
30
0
11
-329.06586399182265
21
-94.166369055210993
31
0
0
LINE
5
193
100
AcDbEntity
8
0
100
AcDbLine
10
-329.06586399182265
20
-94.166369055210993
30
0
11
-331.13172412371796
21
-92.100508923315672
31
0
0
ARC
5
194
100
AcDbEntity
8
0
100
AcDbCircle
10
-325
20
-100
30
0
40
9.9999999999999929
210
0
220
0
230
1
100
AcDbArc
50
142.18075578145846
51
172.81924421854168
0
ARC
5
195
100
AcDbEntity
8
0
100
AcDbCircle
10
-325
20
-100
30
0
40
9.9999999999999662
210
0
220
0
230
1
100
AcDbArc
50
187.18075578145829
51
217.81924421854143
0
ARC
5
196
100
AcDbEntity
8
0
100
AcDbCircle
10
-325
20
-100
30
0
40
10.000000000000057
210
0
220
0
230
1
100
AcDbArc
50
232.18075578145806
51
262.81924421854177
0
ARC
5
197
100
AcDbEntity
8
0
100
AcDbCircle
10
-325
20
-100
30
0
40
10.000000000000002
210
0
220
0
230
1
100
AcDbArc
50
277.18075578145829
51
307.81924421854166
0
ARC
5
198
100
AcDbEntity
8
0
100
AcDbCircle
10
-325
20
-100
30
0
40
9.9999999999999982
210
0
220
0
230
1
100
AcDbArc
50
322.18075578145806
51
352.81924421854171
0
ARC
5
199
100
AcDbEntity
8
0
100
AcDbCircle
10
-325
20
-100
30
0
40
10.000000000000002
210
0
220
-0
230
1
100
AcDbArc
50
7.1807557814582612
51
37.819244218541606
0
ARC
5
200
100
AcDbEntity
8
0
100
AcDbCircle
10
-325
20
-100
30
0
40
10.000000000000007
210
0
220
-0
230
1
100
AcDbArc
50
52.180755781458636
51
82.819244218541726
0
ARC
5
201
100
AcDbEntity
8
0
100
AcDbCircle
10
-325
20
-100
30
0
40
10.000000000000002
210
0
220
0
230
1
100
AcDbArc
50
97.180755781458274
51
127.81924421854174
0
ARC
5
202
100
AcDbEntity
8
0
100
AcDbCircle
10
-325
20
-175
30
0
40
10
210
0
220
0
230
1
100
AcDbArc
50
-90
51
182.37229918170982
0
ARC
5
203
100
AcDbEntity
8
0
100
AcDbCircle
10
-325
20
-200
30
0
40
10
210
0
220
0
230
1
100
AcDbArc
50
-90
51
182.37229918139803
0
SPLINE
5
204
100
AcDbEntity
8
0
100
AcDbSpline
70
4
71
5
72
20
73
14
74
0
42
0.000000001
43
0.0000000001
44
0.0000000001
40
0.13130886211621379
40
0.13130886211621379
40
0.13130886211621379
40
0.13130886211621379
40
0.13130886211621379
40
0.13130886211621379
40
0.20000000000000001
40
0.30000000000000004
40
0.40000000000000002
40
0.5
40
0.59999999999999998
40
0.69999999999999996
40
0.79999999999999993
40
0.89999999999999991
40
1
40
1
40
1
40
1
40
1
40
1
41
1
41
1
41
1
41
1
41
1
41
1
41
1
41
1
41
1
41
1
41
1
41
1
41
1
41
1
10
-334.9914295896744
20
-175.41392602454869
30
0
10
-335.99134838694602
20
-175.40820608525644
30
0
10
-338.41715522318566
20
-175.36202035454252
30
0
10
-342.16285438104507
20
-175.16099920087038
30
0
10
-347.03368308427798
20
-174.59499312468557
30
0
10
-352.71477452638641
20
-173.3242600916893
30
0
10
-358.12555701981233
20
-171.26749538046087
30
0
10
-362.83862038417249
20
-168.45789006689731
30
0
10
-366.85416855596037
20
-164.89566419901143
30
0
10
-370.21341227065295
20
-160.62528425861285
30
0
10
-372.41313493883411
20
-156.68278072916343
30
0
10
-373.80518969967346
20
-153.44780398592258
30
0
10
-374.62051455641904
20
-151.16953668444162
30
0
10
-375
20
-150
30
0
0
SPLINE
5
205
100
AcDbEntity
8
0
100
AcDbSpline
70
4
71
5
72
20
73
14
74
0
42
0.000000001
43
0.0000000001
44
0.0000000001
40
0.13130886211624507
40
0.13130886211624507
40
0.13130886211624507
40
0.13130886211624507
40
0.13130886211624507
40
0.13130886211624507
40
0.20000000000000001
40
0.30000000000000004
40
0.40000000000000002
40
0.5
40
0.59999999999999998
40
0.69999999999999996
40
0.79999999999999993
40
0.89999999999999991
40
1
40
1
40
1
40
1
40
1
40
1
41
1
41
1
41
1
41
1
41
1
41
1
41
1
41
1
41
1
41
1
41
1
41
1
41
1
41
1
10
-334.99142958967667
20
-200.41392602449429
30
0
10
-335.99134838694783
20
-200.40820608519846
30
0
10
-338.41715522318691
20
-200.36202035447729
30
0
10
-342.16285438104592
20
-200.16099920079878
30
0
10
-347.03368308427844
20
-199.594993124616
30
0
10
-352.71477452638641
20
-198.32426009163845
30
0
10
-358.12555701981233
20
-196.26749538044376
30
0
10
-362.83862038417249
20
-193.45789006692053
30
0
10
-366.85416855596037
20
-189.89566419907095
30
0
10
-370.21341227065295
20
-185.62528425869095
30
0
10
-372.41313493883411
20
-181.68278072923164
30
0
10
-373.80518969967346
20
-178.44780398596453
30
0
10
-374.62051455641904
20
-176.16953668445711
30
0
10
-375
20
-175
30
0
0
SPLINE
5
206
100
AcDbEntity
8
0
100
AcDbSpline
70
4
71
5
72
20
73
14
74
0
42
0.000000001
43
0.0000000001
44
0.0000000001
40
0.13130886208329012
40
0.13130886208329012
40
0.13130886208329012
40
0.13130886208329012
40
0.13130886208329012
40
0.13130886208329012
40
0.20000000000000001
40
0.30000000000000004
40
0.40000000000000002
40
0.5
40
0.59999999999999998
40
0.69999999999999996
40
0.79999999999999993
40
0.89999999999999991
40
1
40
1
40
1
40
1
40
1
40
1
41
1
41
1
41
1
41
1
41
1
41
1
41
1
41
1
41
1
41
1
41
1
41
1
41
1
41
1
10
-334.99142958727805
20
-225.41392602448016
30
0
10
-335.99134838505216
20
-225.40820608520602
30
0
10
-338.41715522180868
20
-225.36202035452206
30
0
10
-342.16285438017513
20
-225.16099920087382
30
0
10
-347.03368308387894
20
-224.59499312468918
30
0
10
-352.71477452638641
20
-223.32426009163635
30
0
10
-358.12555701981233
20
-221.26749538044817
30
0
10
-362.83862038417249
20
-218.45789006691803
30
0
10
-366.85416855596037
20
-214.89566419905228
30
0
10
-370.21341227065295
20
-210.62528425865787
30
0
10
-372.41313493883411
20
-206.68278072919875
30
0
10
-373.80518969967346
20
-203.44780398594324
30
0
10
-374.62051455641904
20
-201.1695366844491
30
0
10
-375
20
-200
30
0
0
ARC
5
207
100
AcDbEntity
8
0
100
AcDbCircle
10
-325
20
-225
30
0
40
10
210
0
220
0
230
1
100
AcDbArc
50
-90
51
182.37229918188595
0
SPLINE
5
208
100
AcDbEntity
8
0
100
AcDbSpline
70
4
71
5
72
20
73
14
74
0
42
0.000000001
43
0.0000000001
44
0.0000000001
40
0.13130886208325987
40
0.13130886208325987
40
0.13130886208325987
40
0.13130886208325987
40
0.13130886208325987
40
0.13130886208325987
40
0.20000000000000001
40
0.30000000000000004
40
0.40000000000000002
40
0.5
40
0.59999999999999998
40
0.69999999999999996
40
0.79999999999999993
40
0.89999999999999991
40
1
40
1
40
1
40
1
40
1
40
1
41
1
41
1
41
1
41
1
41
1
41
1
41
1
41
1
41
1
41
1
41
1
41
1
41
1
41
1
10
-334.99142958727583
20
-250.41392602453408
30
0
10
-335.99134838505046
20
-250.40820608526278
30
0
10
-338.41715522180749
20
-250.36202035458416
30
0
10
-342.16285438017439
20
-250.16099920093842
30
0
10
-347.03368308387849
20
-249.59499312474665
30
0
10
-352.71477452638641
20
-248.32426009167239
30
0
10
-358.12555701981233
20
-246.26749538045726
30
0
10
-362.83862038417249
20
-243.45789006690364
30
0
10
-366.85416855596037
20
-239.89566419902269
30
0
10
-370.21341227065295
20
-235.62528425862396
30
0
10
-372.41313493883411
20
-231.68278072917155
30
0
10
-373.80518969967346
20
-228.44780398592707
30
0
10
-374.62051455641904
20
-226.16953668444324
30
0
10
-375
20
-225
30
0
0
ARC
5
209
100
AcDbEntity
8
0
100
AcDbCircle
10
-325
20
-250
30
0
40
10
210
0
220
0
230
1
100
AcDbArc
50
-90
51
182.37229918219498
0
ARC
5
210
100
AcDbEntity
8
0
100
AcDbCircle
10
-400
20
-250
30
0
40
10
210
0
220
0
230
1
100
AcDbArc
50
-90
51
182.37229918155646
0
SPLINE
5
211
100
AcDbEntity
8
0
100
AcDbSpline
70
4
71
5
72
20
73
14
74
0
42
0.000000001
43
0.0000000001
44
0.0000000001
40
0.13130886211239123
40
0.13130886211239123
40
0.13130886211239123
40
0.13130886211239123
40
0.13130886211239123
40
0.13130886211239123
40
0.20000000000000001
40
0.30000000000000004
40
0.40000000000000002
40
0.5
40
0.59999999999999998
40
0.69999999999999996
40
0.79999999999999993
40
0.89999999999999991
40
1
40
1
40
1
40
1
40
1
40
1
41
1
41
1
41
1
41
1
41
1
41
1
41
1
41
1
41
1
41
1
41
1
41
1
41
1
41
1
10
-409.99142958967553
20
-250.41392602452194
30
0
10
-410.99134838702287
20
-250.40820608523092
30
0
10
-413.41715522335755
20
-250.36202035451879
30
0
10
-417.16285438130376
20
-250.16099920084895
30
0
10
-422.03368308457391
20
-249.59499312466764
30
0
10
-427.71477452662879
20
-248.32426009167239
30
0
10
-433.12555701988964
20
-246.26749538045726
30
0
10
-437.83862038406482
20
-243.45789006690364
30
0
10
-441.85416855569588
20
-239.89566419902269
30
0
10
-445.21341227031439
20
-235.62528425862396
30
0
10
-447.41313493854358
20
-231.68278072917155
30
0
10
-448.8051896994964
20
-228.44780398592707
30
0
10
-449.62051455635395
20
-226.16953668444324
30
0
10
-450
20
-225
30
0
0
ARC
5
212
100
AcDbEntity
8
0
100
AcDbCircle
10
-400
20
-200
30
0
40
10
210
0
220
0
230
1
100
AcDbArc
50
-90
51
182.37229918140721
0
SPLINE
5
213
100
AcDbEntity
8
0
100
AcDbSpline
70
4
71
5
72
20
73
14
74
0
42
0.000000001
43
0.0000000001
44
0.0000000001
40
0.13130886211240589
40
0.13130886211240589
40
0.13130886211240589
40
0.13130886211240589
40
0.13130886211240589
40
0.13130886211240589
40
0.20000000000000001
40
0.30000000000000004
40
0.40000000000000002
40
0.5
40
0.59999999999999998
40
0.69999999999999996
40
0.79999999999999993
40
0.89999999999999991
40
1
40
1
40
1
40
1
40
1
40
1
41
1
41
1
41
1
41
1
41
1
41
1
41
1
41
1
41
1
41
1
41
1
41
1
41
1
41
1
10
-409.9914295896765
20
-200.41392602449591
30
0
10
-410.99134838702361
20
-200.40820608520275
30
0
10
-413.41715522335812
20
-200.36202035448594
30
0
10
-417.1628543813041
20
-200.16099920081052
30
0
10
-422.03368308457408
20
-199.5949931246264
30
0
10
-427.71477452662879
20
-198.32426009163845
30
0
10
-433.12555701988964
20
-196.26749538044376
30
0
10
-437.83862038406482
20
-193.45789006692053
30
0
10
-441.85416855569588
20
-189.89566419907095
30
0
10
-445.21341227031439
20
-185.62528425869095
30
0
10
-447.41313493854358
20
-181.68278072923164
30
0
10
-448.8051896994964
20
-178.44780398596453
30
0
10
-449.62051455635395
20
-176.16953668445711
30
0
10
-450
20
-175
30
0
0
ARC
5
214
100
AcDbEntity
8
0
100
AcDbCircle
10
-400
20
-175
30
0
40
10
210
0
220
0
230
1
100
AcDbArc
50
-90
51
182.37229918171906
0
SPLINE
5
215
100
AcDbEntity
8
0
100
AcDbSpline
70
4
71
5
72
20
73
14
74
0
42
0.000000001
43
0.0000000001
44
0.0000000001
40
0.13130886211237464
40
0.13130886211237464
40
0.13130886211237464
40
0.13130886211237464
40
0.13130886211237464
40
0.13130886211237464
40
0.20000000000000001
40
0.30000000000000004
40
0.40000000000000002
40
0.5
40
0.59999999999999998
40
0.69999999999999996
40
0.79999999999999993
40
0.89999999999999991
40
1
40
1
40
1
40
1
40
1
40
1
41
1
41
1
41
1
41
1
41
1
41
1
41
1
41
1
41
1
41
1
41
1
41
1
41
1
41
1
10
-409.9914295896744
20
-175.41392602455031
30
0
10
-410.99134838702184
20
-175.40820608526062
30
0
10
-413.41715522335681
20
-175.36202035455116
30
0
10
-417.1628543813033
20
-175.16099920088215
30
0
10
-422.03368308457379
20
-174.594993124696
30
0
10
-427.71477452662879
20
-173.3242600916893
30
0
10
-433.12555701988964
20
-171.26749538046087
30
0
10
-437.83862038406482
20
-168.45789006689731
30
0
10
-441.85416855569588
20
-164.89566419901143
30
0
10
-445.21341227031439
20
-160.62528425861285
30
0
10
-447.41313493854358
20
-156.68278072916343
30
0
10
-448.8051896994964
20
-153.44780398592258
30
0
10
-449.62051455635395
20
-151.16953668444162
30
0
10
-450
20
-150
30
0
0
ARC
5
216
100
AcDbEntity
8
0
100
AcDbCircle
10
-400
20
-150
30
0
40
10
210
0
220
0
230
1
100
AcDbArc
50
-90
51
182.3722991820101
0
SPLINE
5
217
100
AcDbEntity
8
0
100
AcDbSpline
70
4
71
5
72
20
73
14
74
0
42
0.000000001
43
0.0000000001
44
0.0000000001
40
0.13130886211234541
40
0.13130886211234541
40
0.13130886211234541
40
0.13130886211234541
40
0.13130886211234541
40
0.13130886211234541
40
0.20000000000000001
40
0.30000000000000004
40
0.40000000000000002
40
0.5
40
0.59999999999999998
40
0.69999999999999996
40
0.79999999999999993
40
0.89999999999999991
40
1
40
1
40
1
40
1
40
1
40
1
41
1
41
1
41
1
41
1
41
1
41
1
41
1
41
1
41
1
41
1
41
1
41
1
41
1
41
1
10
-409.99142958967218
20
-150.41392602460107
30
0
10
-410.99134838702014
20
-150.40820608531436
30
0
10
-413.41715522335562
20
-150.36202035461071
30
0
10
-417.16285438130251
20
-150.16099920094564
30
0
10
-422.03368308457334
20
-149.59499312475469
30
0
10
-427.71477452662879
20
-148.32426009172934
30
0
10
-433.12555701988964
20
-146.26749538047301
30
0
10
-437.83862038406482
20
-143.45789006688005
30
0
10
-441.85416855569588
20
-139.89566419897085
30
0
10
-445.21341227031439
20
-135.62528425856209
30
0
10
-447.41313493854358
20
-131.68278072912048
30
0
10
-448.8051896994964
20
-128.44780398589651
30
0
10
-449.62051455635395
20
-126.1695366844321
30
0
10
-450
20
-125
30
0
0
LINE
5
218
100
AcDbEntity
8
0
100
AcDbLine
10
-145
20
0
30
0
11
-145
21
15
31
0
0
LINE
5
219
100
AcDbEntity
8
0
100
AcDbLine
10
-115
20
0
30
0
11
-115
21
-15
31
0
0
LWPOLYLINE
5
220
100
AcDbEntity
8
0
100
AcDbPolyline
90
4
70
1
43
0.0
10
-115
20
15
10
-145
20
15
10
-145
20
-15
10
-115
20
-15
0
LWPOLYLINE
5
221
100
AcDbEntity
8
0
100
AcDbPolyline
90
5
70
1
43
0.0
10
-79.545364310589918
20
151.31095538860922
10
-81.855063141868129
20
150.35424680769651
10
-78.028228818217229
20
141.11545148258364
10
-76.873379402578124
20
141.59380577304
10
-75.718529986939018
20
142.07216006349637
0
LINE
5
222
100
AcDbEntity
8
0
100
AcDbLine
10
-115
20
125
30
0
11
-115
21
110
31
0
0
LINE
5
223
100
AcDbEntity
8
0
100
AcDbLine
10
-179.29978627377096
20
99.167398901847136
30
0
11
-180.45463568941011
21
98.689044611390784
31
0
0
LWPOLYLINE
5
224
100
AcDbEntity
8
0
100
AcDbPolyline
90
5
70
1
43
0.0
10
-155.35424680769651
20
76.855063141868129
10
-146.11545148258364
20
73.028228818217229
10
-146.59380577304
20
71.873379402578124
10
-147.07216006349637
20
70.718529986939018
10
-156.31095538860922
20
74.545364310589918
0
LWPOLYLINE
5
225
100
AcDbEntity
8
0
100
AcDbPolyline
90
4
70
1
43
0.0
10
-181.97177118178277
20
108.88454851741636
10
-184.28147001306098
20
107.92783993650363
10
-180.45463568941011
20
98.689044611390784
10
-178.14493685813187
20
99.645753192303502
0
CIRCLE
5
226
100
AcDbEntity
8
0
100
AcDbCircle
10
-130
20
125
30
0
40
60
210
0
220
0
230
1
0
LWPOLYLINE
5
227
100
AcDbEntity
8
0
100
AcDbPolyline
90
4
70
1
43
0.0
10
-115
20
110
10
-115
20
140
10
-145
20
140
10
-145
20
110
0
LWPOLYLINE
5
228
100
AcDbEntity
8
0
100
AcDbPolyline
90
5
70
1
43
0.0
10
-181.97177118178274
20
141.11545148258361
10
-183.12662059742189
20
141.59380577304
10
-184.28147001306098
20
142.07216006349634
10
-180.45463568941011
20
151.31095538860922
10
-178.14493685813187
20
150.35424680769648
0
LWPOLYLINE
5
229
100
AcDbEntity
8
0
100
AcDbPolyline
90
5
70
1
43
0.0
10
-146.11545148258364
20
176.97177118178274
10
-155.35424680769648
20
173.14493685813187
10
-155.83260109815285
20
174.29978627377096
10
-156.31095538860922
20
175.45463568941011
10
-147.07216006349637
20
179.28147001306098
0
LWPOLYLINE
5
230
100
AcDbEntity
8
0
100
AcDbPolyline
90
5
70
1
43
0.0
10
-103.68904461139078
20
175.45463568941011
10
-112.92783993650363
20
179.28147001306098
10
-113.88454851741636
20
176.97177118178277
10
-104.64575319230349
20
173.14493685813187
10
-104.16739890184714
20
174.29978627377096
0
LINE
5
231
100
AcDbEntity
8
0
100
AcDbLine
10
-145
20
125
30
0
11
-145
21
140
31
0
0
LWPOLYLINE
5
232
100
AcDbEntity
8
0
100
AcDbPolyline
90
4
70
1
43
0.0
10
-113.88454851741636
20
73.028228818217229
10
-104.6457531923035
20
76.855063141868129
10
-103.68904461139078
20
74.545364310589918
10
-112.92783993650363
20
70.718529986939004
0
LWPOLYLINE
5
233
100
AcDbEntity
8
0
100
AcDbPolyline
90
5
70
1
43
0.0
10
-78.028228818217244
20
108.88454851741639
10
-81.855063141868129
20
99.645753192303502
10
-80.700213726229023
20
99.16739890184715
10
-79.545364310589918
20
98.689044611390784
10
-75.718529986939018
20
107.92783993650366
0
LINE
5
234
100
AcDbEntity
8
0
100
AcDbLine
10
-104.16739890184714
20
75.700213726229023
30
0
11
-104.6457531923035
21
76.855063141868129
31
0
0
LWPOLYLINE
5
235
100
AcDbEntity
8
0
100
AcDbPolyline
90
5
70
1
43
0.0
10
45.45463568941009
20
151.31095538860922
10
43.144936858131864
20
150.35424680769651
10
46.971771181782771
20
141.11545148258364
10
48.126620597421876
20
141.59380577304
10
49.281470013060982
20
142.07216006349637
0
LINE
5
236
100
AcDbEntity
8
0
100
AcDbLine
10
10
20
125
30
0
11
10
21
110
31
0
0
LINE
5
237
100
AcDbEntity
8
0
100
AcDbLine
10
-54.299786273770962
20
99.167398901847136
30
0
11
-55.454635689410097
21
98.689044611390784
31
0
0
LWPOLYLINE
5
238
100
AcDbEntity
8
0
100
AcDbPolyline
90
5
70
1
43
0.0
10
-30.354246807696512
20
76.855063141868129
10
-21.115451482583634
20
73.028228818217229
10
-21.593805773039989
20
71.873379402578124
10
-22.072160063496362
20
70.718529986939018
10
-31.310955388609223
20
74.545364310589918
0
LWPOLYLINE
5
239
100
AcDbEntity
8
0
100
AcDbPolyline
90
4
70
1
43
0.0
10
-56.971771181782778
20
108.88454851741636
10
-59.281470013060975
20
107.92783993650363
10
-55.454635689410097
20
98.689044611390784
10
-53.144936858131864
20
99.645753192303502
0
CIRCLE
5
240
100
AcDbEntity
8
0
100
AcDbCircle
10
-5
20
125
30
0
40
60
210
0
220
0
230
1
0
LWPOLYLINE
5
241
100
AcDbEntity
8
0
100
AcDbPolyline
90
4
70
1
43
0.0
10
10
20
110
10
10
20
140
10
-20
20
140
10
-20
20
110
0
LWPOLYLINE
5
242
100
AcDbEntity
8
0
100
AcDbPolyline
90
5
70
1
43
0.0
10
-56.971771181782742
20
141.11545148258361
10
-58.126620597421876
20
141.59380577304
10
-59.281470013060975
20
142.07216006349634
10
-55.454635689410097
20
151.31095538860922
10
-53.144936858131864
20
150.35424680769648
0
LWPOLYLINE
5
243
100
AcDbEntity
8
0
100
AcDbPolyline
90
5
70
1
43
0.0
10
-21.115451482583634
20
176.97177118178274
10
-30.354246807696494
20
173.14493685813187
10
-30.83260109815285
20
174.29978627377096
10
-31.310955388609223
20
175.45463568941011
10
-22.072160063496362
20
179.28147001306098
0
LWPOLYLINE
5
244
100
AcDbEntity
8
0
100
AcDbPolyline
90
5
70
1
43
0.0
10
21.310955388609223
20
175.45463568941011
10
12.072160063496362
20
179.28147001306098
10
11.115451482583634
20
176.97177118178277
10
20.354246807696512
20
173.14493685813187
10
20.832601098152868
20
174.29978627377096
0
LINE
5
245
100
AcDbEntity
8
0
100
AcDbLine
10
-20
20
125
30
0
11
-20
21
140
31
0
0
LWPOLYLINE
5
246
100
AcDbEntity
8
0
100
AcDbPolyline
90
4
70
1
43
0.0
10
11.115451482583634
20
73.028228818217229
10
20.354246807696494
20
76.855063141868129
10
21.310955388609223
20
74.545364310589918
10
12.072160063496362
20
70.718529986939004
0
LWPOLYLINE
5
247
100
AcDbEntity
8
0
100
AcDbPolyline
90
5
70
1
43
0.0
10
46.971771181782756
20
108.88454851741639
10
43.144936858131864
20
99.645753192303502
10
44.299786273770977
20
99.16739890184715
10
45.454635689410082
20
98.689044611390784
10
49.281470013060975
20
107.92783993650366
0
LINE
5
248
100
AcDbEntity
8
0
100
AcDbLine
10
20.832601098152868
20
75.700213726229023
30
0
11
20.354246807696494
21
76.855063141868129
31
0
0
LINE
5
249
100
AcDbEntity
8
0
100
AcDbLine
10
-15
20
0
30
0
11
-15
21
15
31
0
0
LINE
5
250
100
AcDbEntity
8
0
100
AcDbLine
10
15
20
0
30
0
11
15
21
-15
31
0
0
LWPOLYLINE
5
251
100
AcDbEntity
8
0
100
AcDbPolyline
90
4
70
1
43
0.0
10
-15
20
-15
10
15
20
-15
10
15
20
15
10
-15
20
15
0
LWPOLYLINE
5
252
100
AcDbEntity
8
0
100
AcDbPolyline
90
40
70
1
43
0.0
10
-248.75
20
-90
10
-250
20
-90
10
-251.25
20
-90
10
-251.25
20
-85.052174071123261
42
0.15587893274961248
10
-259.68582560182165
20
-88.546407445211969
10
-256.18718433538231
20
-92.045048711651305
10
-257.07106781186548
20
-92.928932188134496
10
-257.9549512883487
20
-93.812815664617688
10
-261.45359255478803
20
-90.314174398178324
42
0.15587893274961229
10
-264.94782592887674
20
-98.75
10
-260.00000387430191
20
-98.75
10
-260.00000387430191
20
-100
10
-260.00000387430191
20
-101.25
10
-264.94782592887674
20
-101.25
42
0.15587893274961206
10
-261.45359255478803
20
-109.68582560182165
10
-257.9549512883487
20
-106.18718433538231
10
-257.07106781186548
20
-107.0710678118655
10
-256.18718433538231
20
-107.9549512883487
10
-259.68582560182165
20
-111.45359255478803
42
0.15587893274961248
10
-251.25
20
-114.94782592887674
10
-251.25
20
-110
10
-250
20
-110
10
-248.75
20
-110
10
-248.75
20
-114.94782592887674
42
0.15587893274961181
10
-240.31417439817835
20
-111.45359255478806
10
-243.81281566461774
20
-107.95495128834865
10
-242.92893218813452
20
-107.07106781186546
10
-242.04504871165136
20
-106.18718433538227
10
-238.54640744521194
20
-109.68582560182165
42
0.15587893274961206
10
-235.05217407112326
20
-101.25
10
-240
20
-101.25
10
-240
20
-100
10
-240
20
-98.75
10
-235.05217407112326
20
-98.75
42
0.15587893274961404
10
-238.54640744521203
20
-90.314174398178267
10
-242.04504871165139
20
-93.812815664617673
10
-242.92893218813458
20
-92.928932188134496
10
-243.81281566461777
20
-92.045048711651333
10
-240.31417439817841
20
-88.546407445211898
42
0.15587893274961084
10
-248.75
20
-85.052174071123261
0
ENDSEC
0
SECTION
2
OBJECTS
0
DICTIONARY
5
C
100
AcDbDictionary
3
ACAD_GROUP
350
D
3
ACAD_MLINESTYLE
350
17
0
DICTIONARY
5
D
100
AcDbDictionary
0
DICTIONARY
5
1A
330
C
100
AcDbDictionary
0
DICTIONARY
5
17
100
AcDbDictionary
0
ENDSEC
0
EOF
